<svg width="734" height="734" viewBox="0 0 734 734" fill="none" xmlns="http://www.w3.org/2000/svg">
<path d="M366.83 733.66C268.85 733.66 176.73 695.5 107.44 626.22C38.16 556.93 0 464.81 0 366.83C0 268.85 38.16 176.73 107.44 107.44C176.73 38.16 268.85 0 366.83 0C464.81 0 556.93 38.16 626.22 107.44C695.51 176.73 733.66 268.85 733.66 366.83C733.66 464.81 695.5 556.93 626.22 626.22C556.93 695.51 464.81 733.66 366.83 733.66ZM366.83 33C182.76 33 33 182.76 33 366.83C33 550.9 182.76 700.66 366.83 700.66C550.9 700.66 700.66 550.9 700.66 366.83C700.66 182.76 550.91 33 366.83 33Z" fill="white" fill-opacity="0.9"/>
<path d="M214 388L366.5 261M366.5 261L519 388M366.5 261V587.5" stroke="white" stroke-opacity="0.9" stroke-width="34" stroke-linecap="round" stroke-linejoin="round"/>
<path d="M203 169H530" stroke="white" stroke-opacity="0.9" stroke-width="34" stroke-linecap="round"/>
</svg>
