<svg width="96" height="80" viewBox="0 0 96 80" fill="none" xmlns="http://www.w3.org/2000/svg">
<path d="M11.3271 25.7192C1.67187 25.7192 1.67188 17.8776 1.67188 13.6632C1.67188 8.06694 2.97593 1.64453 13.1493 1.64453C19.7243 1.64453 23.6508 6.1382 23.6508 13.6632C23.6508 18.9341 22.3928 25.0657 12.5793 25.6789C12.1504 25.7048 11.7272 25.7192 11.3271 25.7192ZM13.1464 4.23537C5.74525 4.23537 4.25984 7.8424 4.25984 13.6632C4.25984 19.9416 5.35087 23.1284 11.3242 23.1284C11.6725 23.1284 12.0381 23.1168 12.4152 23.0938C19.612 22.6447 21.0571 19.1529 21.0571 13.6632C21.0571 10.1425 20.0294 4.23537 13.1464 4.23537Z" fill="white" fill-opacity="0.9"/>
<path d="M12.4987 76.8827C2.5067 76.8827 1.67188 70.9468 1.67188 64.8641C1.67188 58.7813 2.96442 52.333 13.0399 52.333C23.1154 52.333 23.3256 59.5759 23.3256 64.8641C23.3256 65.1519 23.3256 65.4398 23.3256 65.7219C23.3399 69.0468 23.3543 72.1904 21.1895 74.3638C19.4796 76.0824 16.716 76.8827 12.4958 76.8827H12.4987ZM13.0399 54.9238C5.75389 54.9238 4.26272 58.8965 4.26272 64.8641C4.26272 70.8316 4.83558 74.2918 12.4987 74.2918C15.9359 74.2918 18.1813 73.719 19.3558 72.5358C20.7606 71.1224 20.752 68.6237 20.7376 65.7334C20.7376 65.4456 20.7376 65.1577 20.7376 64.8641C20.7376 58.7007 20.3662 54.9238 13.0428 54.9238H13.0399Z" fill="white" fill-opacity="0.9"/>
<path d="M57.2309 52.2179C48.5055 52.2179 41.9708 50.9053 37.2526 48.205C31.4578 44.8887 28.5215 39.471 28.5215 32.0986C28.5215 17.7166 28.5215 5.29492 54.6372 5.29492C55.4029 5.29492 56.2003 5.30643 57.0092 5.32658C81.3919 5.33234 83.3782 17.2329 83.3782 31.6121C83.3782 50.0819 68.4579 52.2179 57.2338 52.2179H57.2309ZM54.6343 7.88576C43.6865 7.88576 37.126 10.0419 33.991 14.668C31.1123 18.9141 31.1123 25.0256 31.1123 32.0986C31.1123 38.5613 33.542 43.0953 38.5394 45.9567C42.8546 48.4267 48.969 49.6271 57.2309 49.6271C65.4928 49.6271 70.7608 48.3662 74.5521 45.7667C78.7464 42.8938 80.7845 38.2619 80.7845 31.6092C80.7845 17.7367 79.0774 7.91455 56.992 7.91455H56.9574C56.1658 7.8944 55.3856 7.88288 54.6372 7.88288L54.6343 7.88576Z" fill="white" fill-opacity="0.9"/>
<path d="M57.7168 59.8146C53.5283 59.8146 49.6449 59.6045 46.1818 59.1928C37.586 58.168 31.1722 55.914 26.572 52.3012C21.255 48.127 18.5605 42.1537 18.5605 34.5453C18.5605 25.8688 19.2773 16.9621 24.4849 10.5915C29.9689 3.8841 39.5032 0.757812 54.484 0.757812C55.4311 0.757812 56.4127 0.77221 57.4001 0.798119H57.5153C71.6814 0.798119 81.2532 3.8294 86.7716 10.0647C91.3689 15.2579 93.3294 22.3913 93.3294 33.9235C93.3294 43.4606 90.062 50.1623 83.3373 54.4113C77.5828 58.0471 69.2 59.8146 57.711 59.8146H57.7168ZM54.4869 3.35154C23.6587 3.35154 21.1514 17.4803 21.1514 34.5481C21.1514 47.3671 29.4392 54.5869 46.4898 56.6221C49.8522 57.0223 53.629 57.2266 57.7168 57.2266C68.6991 57.2266 76.6299 55.5887 81.9584 52.2235C87.8684 48.4898 90.7414 42.5049 90.7414 33.9264C90.7414 23.0851 88.9739 16.4641 84.8343 11.7862C79.8339 6.13813 70.8984 3.39183 57.5182 3.39183H57.3714H57.3541C56.3811 3.36592 55.4167 3.35441 54.4869 3.35441V3.35154Z" fill="white" fill-opacity="0.9"/>
<path d="M19.7734 42.6371C19.6179 44.1685 19.1602 45.6827 18.1469 46.8544C16.8025 48.406 14.5888 49.1948 11.569 49.1948C5.71948 49.1948 3.33303 46.2585 3.33303 39.0588C3.33303 31.8592 4.56512 28.9229 11.569 28.9229C15.7489 28.9229 17.6086 30.699 18.5672 33.3158C18.5816 31.8045 18.619 30.2903 18.7082 28.7876C17.1854 27.3309 14.94 26.332 11.569 26.332C1.57701 26.332 0.742188 32.9013 0.742188 39.0588C0.742188 42.2053 0.742188 51.7856 11.569 51.7856C15.3776 51.7856 18.2505 50.6975 20.1073 48.5499C20.6773 47.8907 21.112 47.1682 21.4516 46.4111C20.7752 45.2308 20.2138 43.9728 19.7762 42.6371H19.7734Z" fill="white" fill-opacity="0.9"/>
<path d="M57.6096 46.36C56.1127 46.36 54.7626 46.3341 53.4844 46.2794C44.1919 45.8821 33.5234 43.8612 33.5234 31.6872C33.5234 25.6649 33.5234 20.4631 36.2841 16.571C39.5083 12.0256 46.1264 10.0652 57.2671 10.3444C66.5106 10.3444 72.3515 12.2098 75.6275 16.2112C78.6012 19.8413 79.2086 24.8646 79.2086 31.2899C79.2086 43.795 70.5725 46.3571 57.6068 46.3571L57.6096 46.36ZM55.2548 11.7578C34.9657 11.7578 34.9657 20.1176 34.9657 31.6872C34.9657 40.3492 40.5216 44.2844 53.5478 44.8429C54.8058 44.8976 56.1328 44.9235 57.6096 44.9235C64.7805 44.9235 69.3577 44.1318 72.4551 42.3528C76.0794 40.2715 77.7693 36.7595 77.7693 31.2957C77.7693 19.8729 76.2982 11.7866 57.2469 11.7866C56.556 11.7694 55.8882 11.7607 55.252 11.7607L55.2548 11.7578Z" fill="white" fill-opacity="0.9"/>
<path d="M35.9792 27.8288C36.9407 26.9969 38.4578 26.6716 40.4844 26.8616C42.3066 27.0314 42.6261 27.7856 43.1587 29.0321C44.4311 32.0231 46.3282 34.5017 56.7174 34.5017C66.0243 34.5017 67.1297 32.0029 67.5558 28.986C67.8033 27.2185 67.9674 26.0526 72.3143 26.0526C74.9253 26.0526 76.9346 26.8875 77.6745 27.2473C77.6428 26.6946 77.6025 26.1505 77.5478 25.618C76.4308 25.1718 74.5856 24.6133 72.3143 24.6133C67.1297 24.6133 66.4619 26.4211 66.1308 28.7845C65.8343 30.886 65.5292 33.0594 56.7174 33.0594C46.4347 33.0594 45.3523 30.5146 44.4829 28.4679C43.9273 27.1581 43.2969 25.6755 40.6197 25.428C38.1872 25.2005 36.3074 25.6439 35.0378 26.7407C35.0378 26.7407 35.035 26.7406 35.0321 26.7435C34.9918 27.6849 34.9745 28.6607 34.9688 29.6625C34.9774 29.5675 35.0868 28.5974 35.9792 27.8288Z" fill="white" fill-opacity="0.9"/>
<path d="M69.7101 32.1995C69.0307 34.6809 68.1872 37.7726 56.7962 37.7726C54.594 37.7726 52.6163 37.6776 50.915 37.4905C43.4447 36.6701 42.6156 34.3153 42.0082 32.5967C41.634 31.5345 41.2079 30.334 39.3425 30.2966C39.2965 30.2966 39.2533 30.2966 39.2072 30.2966C37.1374 30.2966 35.796 31.2092 34.9727 32.3088C35.0043 33.3164 35.1195 34.2549 35.3152 35.13C35.4073 34.5514 36.032 31.6784 39.3138 31.7388C40.1486 31.7532 40.2781 32.0296 40.6495 33.0775C41.3404 35.0379 42.3882 38.0029 50.7566 38.9212C52.5098 39.1141 54.5421 39.212 56.7933 39.212C69.284 39.212 70.329 35.3775 71.0947 32.5794C71.5467 30.9213 71.7741 30.0865 74.4513 30.2736C77.1861 30.4636 77.6812 31.474 77.759 31.7043C77.759 31.5661 77.7676 31.4308 77.7676 31.2927C77.7676 30.7457 77.7647 30.2074 77.7561 29.6777C77.0681 29.2747 76.0519 28.9436 74.555 28.84C70.7032 28.5751 70.1966 30.4175 69.7101 32.2023V32.1995Z" fill="white" fill-opacity="0.9"/>
<path d="M48.1992 16.2362C48.1992 19.9958 50.8879 22.1549 55.5802 22.1549C60.2725 22.1549 63.3988 19.8864 63.3988 16.2362C63.3988 14.4111 62.7194 12.9516 61.4787 11.9354C60.1747 11.8347 58.7699 11.7828 57.2528 11.7828C56.9793 11.7771 56.7144 11.7713 56.4525 11.7684C58.7123 11.8577 61.9623 12.6177 61.9623 16.2362C61.9623 20.3902 57.08 20.7155 55.5831 20.7155C52.8714 20.7155 49.6415 19.9382 49.6415 16.2362C49.6415 12.5342 53.7033 11.8001 55.7098 11.7627C55.5601 11.7627 55.4046 11.7627 55.2578 11.7627C53.4154 11.7627 51.7429 11.8318 50.2201 11.9671C48.9218 12.989 48.205 14.4457 48.205 16.242L48.1992 16.2362Z" fill="white" fill-opacity="0.9"/>
<path d="M46.417 21.4706C47.9801 23.9089 51.0546 25.1439 55.5569 25.1439C55.6404 25.1439 55.7239 25.1439 55.8074 25.1439C60.5601 25.0949 63.8534 23.7563 65.5979 21.1597C67.5467 18.258 67.0027 14.6049 66.4989 12.6733C65.9894 12.5552 65.4597 12.4487 64.907 12.3537C65.3273 13.6952 66.2859 17.5642 64.4003 20.3652C62.9351 22.5415 60.0419 23.6642 55.7958 23.7074C51.6966 23.7448 48.9445 22.7373 47.6347 20.702C45.7635 17.7859 47.2777 13.4822 47.7757 12.2559C47.2 12.3451 46.6502 12.443 46.1234 12.5552C45.4382 14.5387 44.4969 18.4796 46.4199 21.4764L46.417 21.4706Z" fill="white" fill-opacity="0.9"/>
<path d="M62.3025 38.8952C61.8506 38.9557 61.3727 39.0075 60.8689 39.0507C61.0733 40.5937 61.2144 43.2334 60.3709 44.359C60.155 44.6469 59.8959 44.7966 59.5562 44.8311C59.1935 44.8685 58.8912 44.7649 58.612 44.5087C57.5239 43.5184 57.1813 40.7491 57.1122 39.209C57.1036 39.209 57.0949 39.209 57.0863 39.209C56.9913 39.209 56.8963 39.209 56.7984 39.209C56.4155 39.209 56.0413 39.2061 55.6728 39.2003C55.6613 39.2003 55.6527 39.2003 55.6441 39.2003C55.7362 40.6627 55.6786 43.268 54.6883 44.359C54.3803 44.6987 54.0147 44.857 53.534 44.8398C53.0158 44.8282 52.6358 44.6498 52.3393 44.2784C51.4181 43.1183 51.5822 40.49 51.8038 39.0219C51.4469 38.9931 51.0986 38.9585 50.7618 38.924C50.6265 38.9096 50.4998 38.8923 50.3702 38.8779C50.1486 40.3633 49.8809 43.4983 51.2137 45.1766C51.7722 45.879 52.5638 46.2618 53.5052 46.282C53.5311 46.282 53.5541 46.282 53.58 46.282C54.4379 46.282 55.1892 45.9538 55.7563 45.3263C56.1075 44.9405 56.3695 44.4598 56.5681 43.9358C56.8387 44.5807 57.1899 45.1593 57.6476 45.5738C58.1572 46.0373 58.7675 46.2762 59.4296 46.2762C59.5188 46.2762 59.6109 46.2705 59.703 46.2618C60.4429 46.1899 61.0762 45.83 61.531 45.2197C62.7487 43.5933 62.5155 40.4411 62.3083 38.8923L62.3025 38.8952Z" fill="white" fill-opacity="0.9"/>
<path d="M38.2374 65.1464C37.4458 66.0301 36.4037 66.4677 35.0536 66.4763C35.0363 66.4763 35.0219 66.4763 35.0046 66.4763C32.6585 66.4763 31.838 65.0946 31.5905 64.4987C31.484 64.2367 31.4149 63.9632 31.3832 63.6955C32.48 64.4785 33.81 64.7779 35.1745 64.4987C37.2126 64.0813 38.7988 62.4404 39.0291 60.5088C39.1385 59.5818 39.0463 58.6952 38.7614 57.869C37.0428 57.443 35.4422 56.9421 33.9481 56.3721C34.639 56.7002 35.2148 57.109 35.6437 57.5898C36.3029 58.3325 36.5764 59.2105 36.4584 60.2036C36.3605 61.0298 35.6005 61.7697 34.6563 61.9625C34.0374 62.0892 32.8686 62.0777 32.005 60.5779C31.8064 60.2324 31.4552 59.9964 31.0608 59.9417C30.6635 59.887 30.2663 60.0194 29.9784 60.2958C28.7348 61.5077 28.421 63.5919 29.1983 65.4832C30.1223 67.7315 32.2929 69.0672 35.0104 69.0672C35.0334 69.0672 35.0564 69.0672 35.0766 69.0672C37.1723 69.0499 38.888 68.3101 40.1777 66.865C42.282 64.5073 42.6419 60.8226 42.6534 58.675C41.7639 58.5196 40.8945 58.3526 40.0568 58.1684C40.0942 59.8121 39.9474 63.2349 38.2403 65.1435L38.2374 65.1464Z" fill="white" fill-opacity="0.9"/>
<path d="M86.984 52.877C86.4342 52.877 85.8987 52.9058 85.3834 52.9604C84.7415 53.4729 84.0621 53.9594 83.3424 54.4142C81.8829 55.3354 80.2536 56.1385 78.4486 56.8208C77.8412 57.9176 77.608 59.1727 77.7664 60.5113C77.9967 62.4429 79.5828 64.0838 81.621 64.5012C82.9826 64.7804 84.3154 64.4782 85.4122 63.698C85.3806 63.9658 85.3143 64.2392 85.205 64.5012C84.9603 65.0971 84.1369 66.4789 81.7908 66.4789C81.7735 66.4789 81.7591 66.4789 81.7419 66.4789C80.3917 66.4674 79.3497 66.0327 78.558 65.1489C76.4911 62.8373 76.7127 58.3005 76.779 57.4023C75.9384 57.6729 75.0632 57.9205 74.1507 58.145C74.1075 60.163 74.3292 64.3026 76.6206 66.8704C77.9103 68.3155 79.626 69.0553 81.7217 69.0726C84.468 69.1014 86.6673 67.757 87.6 65.4886C88.3773 63.6002 88.0635 61.5131 86.8199 60.3012C86.5349 60.0219 86.1319 59.8924 85.7375 59.9471C85.3403 60.0018 84.9919 60.2378 84.7933 60.5833C83.9268 62.0831 82.758 62.0946 82.142 61.9679C81.1949 61.7722 80.4378 61.0352 80.3399 60.209C80.2104 59.1353 80.4896 58.2083 81.1632 57.4484C82.2773 56.1932 84.4018 55.4707 86.984 55.4707C92.5485 55.4707 93.1502 61.2367 93.1502 63.7153C93.1502 72.3572 89.6727 76.3845 82.2111 76.3845C74.358 76.3845 71.0071 73.6469 71.0071 67.2273C71.0071 61.9161 71.5973 59.4634 71.8506 58.6517C69.965 59.0144 67.9442 59.2936 65.7823 59.4865C66.6229 59.9787 68.376 63.9255 67.7225 68.7675C67.236 72.3658 65.339 76.6551 59.0605 76.6551C54.8086 76.6551 51.8205 75.4461 50.1797 73.0654C47.2865 68.8596 49.0368 61.9938 49.8025 59.5441C48.5532 59.4519 47.3412 59.3397 46.1811 59.1986C46.0487 59.1842 45.922 59.1641 45.7925 59.1468V67.2245C45.7925 73.644 42.4417 76.3817 34.5885 76.3817C26.7354 76.3817 23.6494 72.3572 23.6494 63.7124C23.6494 58.2486 25.6041 55.4764 29.4587 55.4764C30.78 55.4764 32.0063 55.6664 33.0542 56.0148C31.0276 55.1742 29.2111 54.1925 27.599 53.0612C23.4163 53.896 21.0586 57.6758 21.0586 63.7124C21.0586 73.8369 25.6098 78.9725 34.5885 78.9725C41.1693 78.9725 45.3521 77.038 47.229 73.097C47.4621 73.5893 47.727 74.0672 48.0408 74.5249C50.1912 77.6569 53.8989 79.2431 59.0605 79.2431C64.222 79.2431 67.6621 76.8422 69.372 72.648C71.1424 76.8912 75.3857 78.9725 82.2111 78.9725C91.1898 78.9725 95.741 73.8397 95.741 63.7124C95.741 57.0281 92.3845 52.877 86.984 52.877Z" fill="white" fill-opacity="0.9"/>
<path d="M40.8815 71.1539C39.5429 72.5818 37.7063 73.2755 35.268 73.2755C27.1616 73.2755 26.1224 68.4681 26.1224 64.2824C26.1224 59.8895 27.4235 58.0817 30.616 58.0443H30.6621C33.1435 58.0443 34.2835 60.3271 34.3296 60.425C34.4332 60.6409 34.6894 60.7301 34.9053 60.6265C35.1212 60.5229 35.2104 60.2667 35.1068 60.0508C35.0492 59.9327 33.6934 57.1807 30.6621 57.1807H30.6045C26.9054 57.2238 25.2559 59.4145 25.2559 64.2824C25.2559 68.5142 26.2922 74.1392 35.2651 74.1392C37.9193 74.1392 40.0208 73.3331 41.5091 71.7441C43.7257 69.3778 44.6872 65.1662 44.4425 58.9539C44.1488 58.9108 43.861 58.8647 43.5731 58.8215C43.8351 64.9014 42.9513 68.9431 40.8786 71.1568L40.8815 71.1539Z" fill="white" fill-opacity="0.9"/>
<path d="M85.6163 56.6103C84.2777 56.6103 83.2443 56.9903 82.5476 57.7359C81.5544 58.7981 81.6408 60.2087 81.6437 60.2663C81.661 60.5052 81.8682 60.6866 82.1043 60.6664C82.3432 60.6491 82.5217 60.4447 82.5044 60.2058C82.5044 60.1943 82.4382 59.1148 83.178 58.3231C83.7048 57.7589 84.5253 57.471 85.6134 57.471C89.0218 57.471 90.68 59.5005 90.68 63.6718C90.68 67.843 89.6379 72.7225 81.5141 72.7225C78.811 72.7225 76.8161 71.9625 75.417 70.3993C73.3991 68.1424 72.6592 64.0863 73.2091 58.349C72.9183 58.4153 72.6218 58.4786 72.3224 58.539C71.787 64.4577 72.5901 68.5339 74.7722 70.9751C76.321 72.7081 78.5894 73.5861 81.5141 73.5861C88.2618 73.5861 91.5436 70.3446 91.5436 63.6718C91.5436 57.8309 88.3194 56.6074 85.6134 56.6074L85.6163 56.6103Z" fill="white" fill-opacity="0.9"/>
<path d="M64.223 67.9558C63.6156 70.5956 61.8797 71.9342 59.0615 71.9342C56.2432 71.9342 54.4124 71.1253 53.353 69.5276C51.43 66.6316 52.6995 61.827 53.4048 59.7256C53.0997 59.714 52.8003 59.6996 52.5009 59.6881C51.7352 62.0228 50.5549 66.8763 52.6333 70.0054C53.8625 71.8593 56.0273 72.7978 59.0644 72.7978C63.1435 72.7978 64.58 70.2703 65.0693 68.1487C65.7343 65.2555 64.9801 61.6399 63.9438 59.6133C63.6329 59.6334 63.3191 59.6536 63.0024 59.6709C63.9236 61.2657 64.9197 64.9475 64.2288 67.9558H64.223Z" fill="white" fill-opacity="0.9"/>
</svg>
