<svg width="91" height="88" viewBox="0 0 91 88" fill="none" xmlns="http://www.w3.org/2000/svg">
<path d="M18.0269 87.9151C17.2665 87.9151 16.5609 87.6058 15.9842 87.0259C13.136 84.1584 13.0715 73.7773 13.1972 55.6766C13.2198 52.7189 13.2391 49.6581 13.2391 46.623C13.2391 43.7909 13.2391 41.1393 13.2359 38.6552C13.223 23.6443 13.2165 14.581 13.7321 9.38405C14.1219 5.44365 14.8339 1.59668 18.7615 1.59668C19.8021 1.59668 20.6592 1.92854 21.3132 2.58259C23.5267 4.80249 23.5106 10.1509 23.4461 32.6592C23.4332 36.9572 23.4204 41.8288 23.4204 47.3963V50.6633C23.4204 67.2401 23.4204 76.3678 22.9242 81.2232C22.4763 85.5631 21.5645 87.9151 18.0301 87.9151H18.0269ZM18.7615 4.49641C18.0752 4.49641 17.1312 4.4964 16.6189 9.66759C16.1163 14.7228 16.1227 23.7281 16.1356 38.652C16.1356 41.1361 16.1388 43.7909 16.1388 46.623C16.1388 49.6677 16.1163 52.7318 16.0969 55.6959C16.0422 63.3383 15.9906 70.5554 16.3192 76.0295C16.7768 83.6815 17.8593 84.8543 18.0752 85.0122C19.0708 85.0122 19.6249 84.951 20.0406 80.9203C20.5271 76.2131 20.5238 67.137 20.5238 50.6568V47.3898C20.5238 41.8191 20.5367 36.9444 20.5496 32.6463C20.6044 14.3458 20.627 5.99459 19.2641 4.62527C19.2093 4.5705 19.1288 4.48996 18.7647 4.48996L18.7615 4.49641Z" fill="white" fill-opacity="0.9"/>
<path d="M25.4351 87.9148C24.6747 87.9148 23.9691 87.6055 23.3924 87.0256C20.5442 84.1581 20.4798 73.777 20.6054 55.6763C20.628 52.7186 20.6473 49.6578 20.6473 46.6259C20.6473 43.7971 20.6473 41.1454 20.6441 38.6646C20.6312 23.6504 20.6247 14.5872 21.1403 9.38698C21.5301 5.44658 22.2421 1.59961 26.1697 1.59961C27.2103 1.59961 28.0674 1.93147 28.7214 2.58552C30.9349 4.80542 30.9188 10.1538 30.8543 32.6621C30.8414 36.9602 30.8286 41.8317 30.8286 47.3992V50.6727C30.8286 67.243 30.8286 76.3739 30.3324 81.2261C29.8845 85.566 28.9727 87.918 25.4383 87.918L25.4351 87.9148ZM26.1697 4.49611C25.4834 4.49611 24.5394 4.49611 24.0271 9.67051C23.5245 14.7257 23.5309 23.7342 23.5438 38.6581C23.5438 41.1422 23.547 43.7939 23.547 46.6227C23.547 49.6674 23.5245 52.7315 23.5051 55.6924C23.4504 63.3348 23.3988 70.5551 23.7274 76.0292C24.185 83.6812 25.2675 84.854 25.4834 85.0119C26.479 85.0119 27.0332 84.9507 27.4488 80.9233C27.9353 76.216 27.9321 67.1431 27.9321 50.6662V47.3927C27.9321 41.822 27.9449 36.9473 27.9578 32.6492C28.0126 14.3487 28.0352 5.99752 26.6723 4.6282C26.6175 4.57343 26.537 4.49289 26.1729 4.49289L26.1697 4.49611Z" fill="white" fill-opacity="0.9"/>
<path d="M32.8413 87.9148C32.0809 87.9148 31.3753 87.6055 30.7986 87.0256C27.9504 84.1581 27.886 73.777 28.0117 55.6763C28.031 52.7186 28.0535 49.6578 28.0535 46.6259C28.0535 43.7971 28.0535 41.1454 28.0503 38.6646C28.0374 23.6504 28.031 14.5872 28.5465 9.38698C28.9363 5.44658 29.6484 1.59961 33.5759 1.59961C34.6166 1.59961 35.4736 1.93147 36.1277 2.58552C38.3411 4.80542 38.325 10.1538 38.2606 32.6621C38.2477 36.9602 38.2348 41.8317 38.2348 47.3992V50.6662C38.2348 67.243 38.2348 76.3707 37.7354 81.2261C37.2876 85.566 36.3758 87.918 32.8413 87.918V87.9148ZM33.5759 4.49611C32.8896 4.49611 31.9456 4.49611 31.4333 9.67051C30.9307 14.7257 30.9372 23.7342 30.95 38.6581C30.95 41.1422 30.9533 43.7939 30.9533 46.6227C30.9533 49.6674 30.9307 52.7315 30.9114 55.6924C30.8566 63.3348 30.805 70.5551 31.1337 76.0292C31.5912 83.6812 32.6738 84.854 32.8896 85.0119C33.8852 85.0119 34.4394 84.9507 34.855 80.92C35.3415 76.2128 35.3383 67.1367 35.3383 50.6565V47.3895C35.3383 41.8188 35.3512 36.9441 35.3641 32.646C35.4188 14.3455 35.4414 5.99429 34.0785 4.62498C34.0237 4.5702 33.9432 4.48966 33.5791 4.48966L33.5759 4.49611Z" fill="white" fill-opacity="0.9"/>
<path d="M7.846 21.1403C2.93902 21.1403 0.123047 17.9442 0.123047 12.3671C0.123047 7.53095 3.58662 3.59375 7.846 3.59375C12.8496 3.59375 16.0812 7.038 16.0812 12.3671C16.0812 17.0388 12.2343 21.1403 7.846 21.1403ZM7.846 6.49348C5.18792 6.49348 3.02277 9.12902 3.02277 12.3671C3.02277 17.6317 5.7743 18.2406 7.846 18.2406C10.3655 18.2406 13.1815 15.7275 13.1815 12.3671C13.1815 10.6014 12.6628 6.49348 7.846 6.49348Z" fill="white" fill-opacity="0.9"/>
<path d="M7.846 50.7114C2.93902 50.7114 0.123047 47.6764 0.123047 42.386C0.123047 37.7947 3.58662 34.0605 7.846 34.0605C12.8496 34.0605 16.0812 37.3276 16.0812 42.386C16.0812 46.8226 12.2343 50.7114 7.846 50.7114ZM7.846 36.957C5.18792 36.957 3.02277 39.3928 3.02277 42.3828C3.02277 47.2479 5.7743 47.8085 7.846 47.8085C10.3655 47.8085 13.1815 45.4887 13.1815 42.3828C13.1815 40.7525 12.6628 36.957 7.846 36.957Z" fill="white" fill-opacity="0.9"/>
<path d="M7.846 87.9149C2.93902 87.9149 0.123047 84.6801 0.123047 79.0385C0.123047 74.1444 3.58662 70.1621 7.846 70.1621C12.8496 70.1621 16.0812 73.645 16.0812 79.0385C16.0812 83.7683 12.2343 87.9149 7.846 87.9149ZM7.846 73.0618C5.18792 73.0618 3.02277 75.7425 3.02277 79.0385C3.02277 84.3965 5.7743 85.0152 7.846 85.0152C10.3655 85.0152 13.1815 82.4602 13.1815 79.0385C13.1815 77.2407 12.6628 73.0618 7.846 73.0618Z" fill="white" fill-opacity="0.9"/>
<path d="M62.4797 87.9149C54.0995 87.9149 47.108 84.9861 42.259 79.4444C37.8224 74.3731 35.377 67.1947 35.377 59.2333C35.377 51.2719 37.9191 44.3384 42.7294 39.4346C47.8232 34.2409 55.282 31.499 64.2969 31.499C82.3815 31.499 90.098 39.7922 90.098 59.2333C90.098 77.1955 79.7718 87.918 62.4765 87.918L62.4797 87.9149ZM64.3001 34.3955C48.2485 34.3955 38.2799 43.9131 38.2799 59.2301C38.2799 74.5471 47.7781 85.0151 62.4797 85.0151C84.7915 85.0151 87.2015 66.982 87.2015 59.2301C87.2015 41.3581 80.7802 34.3955 64.3001 34.3955Z" fill="white" fill-opacity="0.9"/>
<path d="M60.8932 76.1456C56.0829 76.1456 52.0748 74.2736 49.3008 70.7295C46.7812 67.5108 45.3926 62.9582 45.3926 57.9063C45.3926 46.4846 51.1856 39.667 60.8932 39.667C71.3774 39.667 76.6935 45.8047 76.6935 57.9063C76.6935 69.328 70.7878 76.1456 60.8932 76.1456ZM60.8932 41.278C48.3568 41.278 47.0035 52.9059 47.0035 57.9063C47.0035 68.007 52.455 74.5346 60.8932 74.5346C73.7004 74.5346 75.0826 62.9067 75.0826 57.9063C75.0826 46.7165 70.4398 41.278 60.8932 41.278Z" fill="white" fill-opacity="0.9"/>
<path d="M59.9382 52.6094C59.9737 52.6127 60.0059 52.6159 60.0381 52.6159C60.2862 52.6159 60.5246 52.4999 60.6761 52.3001L68.0446 42.702C67.5516 42.4636 67.0393 42.2542 66.4948 42.077L60.2379 50.2284L56.6261 41.8096C56.0848 41.9546 55.579 42.1318 55.0957 42.3315L59.2971 52.1294C59.4098 52.3936 59.6547 52.574 59.9382 52.6127V52.6094Z" fill="white" fill-opacity="0.9"/>
<path d="M56.34 56.8685C56.3464 56.6397 56.253 56.4206 56.0854 56.266L48.5558 49.1777C48.3303 49.7255 48.137 50.2828 47.9694 50.8402L54.3295 56.8266L47.4668 62.7517C47.5892 63.3542 47.7342 63.9373 47.905 64.5012L56.0564 57.4613C56.2304 57.3131 56.3303 57.0972 56.3368 56.8685H56.34Z" fill="white" fill-opacity="0.9"/>
<path d="M63.8243 56.0282C63.5795 56.1764 63.4313 56.4438 63.4377 56.7306C63.4441 57.0173 63.5988 57.2815 63.8501 57.4201L74.5114 63.3677C74.6371 62.7974 74.7338 62.2368 74.8143 61.6923L65.8445 56.6887L74.4341 51.4853C74.3052 50.9247 74.157 50.3866 73.9895 49.8711L63.8243 56.0314V56.0282Z" fill="white" fill-opacity="0.9"/>
<path d="M61.7657 63.2547C61.4693 63.2193 61.1761 63.3514 61.0053 63.5995L54.5293 73.0461C55.0094 73.2974 55.512 73.5165 56.0307 73.7066L61.4629 65.7807L64.6332 74.1448C65.1777 74.0256 65.6997 73.8838 66.1927 73.713L62.4198 63.767C62.3135 63.4867 62.0589 63.2901 61.7625 63.2515L61.7657 63.2547Z" fill="white" fill-opacity="0.9"/>
<path d="M65.5703 34.0153C64.9259 34.0153 64.2622 34.0153 63.5792 34.0153C62.8575 34.0153 62.1164 34.0153 61.3496 34.0153C50.4144 34.0153 38.7285 29.627 38.7285 17.3064C38.7285 2.90122 48.1333 0.0820312 64.375 0.0820312C74.3726 0.0820312 81.6477 2.51781 86.0005 7.31847C90.3115 12.074 90.1665 17.4804 90.1053 18.4083C90.1761 19.7454 90.2148 28.4543 79.4471 32.5622C75.903 33.9154 71.46 34.0185 65.5736 34.0185L65.5703 34.0153ZM64.3718 2.97531C46.9412 2.97531 41.625 6.32289 41.625 17.3C41.625 30.1136 56.7197 31.1091 61.3464 31.1091C62.1132 31.1091 62.8607 31.1091 63.5824 31.1091C64.2622 31.1091 64.926 31.1091 65.5671 31.1091C70.9638 31.1091 75.3328 31.0157 78.4097 29.8429C87.9562 26.1989 87.2152 18.6274 87.2055 18.5501L87.1894 18.3986L87.2055 18.2472C87.2088 18.2053 87.5954 13.3499 83.8096 9.21294C80.0239 5.07277 73.4834 2.97208 64.3718 2.97208V2.97531Z" fill="white" fill-opacity="0.9"/>
<path d="M65.2513 13.4692C59.0137 12.7539 53.2271 14.8063 48.5199 19.4072C46.4224 21.4563 44.9822 23.5667 44.1445 24.9747C44.5022 25.4161 44.8856 25.8285 45.2948 26.2087C47.1409 22.9835 53.501 13.7431 65.0645 15.0705C76.57 16.3915 77.9811 26.4213 78.1197 29.9525C78.2163 29.9171 78.313 29.8881 78.4064 29.8526C78.8511 29.6819 79.2699 29.5015 79.6726 29.3146C79.3311 24.994 77.2433 14.8482 65.2481 13.4724L65.2513 13.4692Z" fill="white" fill-opacity="0.9"/>
<path d="M72.8429 22.3296C71.3254 19.9293 68.8155 18.4021 65.3809 17.7963C55.9504 16.1306 49.7707 24.6623 47.7441 28.0066C48.2081 28.2773 48.6882 28.5253 49.1747 28.7509C51.0724 25.6321 56.7043 17.8994 65.1006 19.3848C68.0648 19.9067 70.2106 21.1858 71.4768 23.1834C73.2102 25.9188 72.9073 29.3695 72.6431 30.9386C73.2166 30.8967 73.7708 30.8451 74.3024 30.7807C74.5795 28.8475 74.7245 25.3066 72.8429 22.3328V22.3296Z" fill="white" fill-opacity="0.9"/>
<path d="M61.6767 22.345L57.7556 26.7526C57.5784 26.9524 57.5945 27.2585 57.7943 27.4357C57.8877 27.5162 58.0005 27.5581 58.1164 27.5581C58.2485 27.5581 58.3839 27.5033 58.4773 27.397L62.3984 22.9894C62.5756 22.7897 62.5595 22.4836 62.3597 22.3064C62.16 22.1292 61.8539 22.1453 61.6767 22.345Z" fill="white" fill-opacity="0.9"/>
<path d="M69.1195 23.869C68.9423 23.6692 68.6362 23.6531 68.4365 23.8335L65.2339 26.7139C65.0341 26.8911 65.0212 27.1972 65.1984 27.3969C65.2951 27.5033 65.4272 27.558 65.5593 27.558C65.6753 27.558 65.7913 27.5162 65.8815 27.4356L69.0841 24.5552C69.2838 24.378 69.2999 24.0719 69.1195 23.8722V23.869Z" fill="white" fill-opacity="0.9"/>
<path d="M56.3255 3.30762C55.7263 3.36561 55.1399 3.43005 54.5857 3.50415C49.5885 10.602 50.4262 15.5735 50.9804 17.3133C51.3509 17.0394 51.7247 16.7785 52.1048 16.5304C51.6505 14.6778 51.2768 9.96088 56.3288 3.30762H56.3255Z" fill="white" fill-opacity="0.9"/>
<path d="M63.634 2.98174C62.9735 2.98496 62.3291 2.99463 61.704 3.00752C56.6263 7.99505 56.2493 12.6894 56.317 14.4421C56.7423 14.2907 57.174 14.1618 57.6058 14.0394C57.6315 12.1739 58.3114 7.6503 63.634 2.97852V2.98174Z" fill="white" fill-opacity="0.9"/>
<path d="M70.7699 3.37768C70.1384 3.29391 69.4811 3.22303 68.8174 3.16504C63.614 7.04745 62.438 11.5646 62.1738 13.3463C62.6056 13.3302 63.0405 13.3334 63.4755 13.3463C63.7816 11.5356 65.0993 7.03778 70.7699 3.37768Z" fill="white" fill-opacity="0.9"/>
<path d="M77.133 4.9082C69.874 7.4503 67.6798 11.9256 67.0645 13.7588C67.4994 13.849 67.9215 13.9521 68.3274 14.0649C68.9525 12.3315 71.2594 7.90136 78.9469 5.6879C78.3702 5.4076 77.7677 5.14663 77.133 4.9082Z" fill="white" fill-opacity="0.9"/>
</svg>
