<svg width="91" height="78" viewBox="0 0 91 78" fill="none" xmlns="http://www.w3.org/2000/svg">
<path d="M83.7362 12.3934C81.3009 12.1297 77.8516 12.1619 72.6292 12.2117C70.1851 12.2352 67.4127 12.2615 64.2125 12.2615C62.8498 12.2615 61.5837 12.2615 60.4056 12.2586C49.1316 12.244 46.1042 12.241 44.5774 13.7708C43.622 14.7291 43.6279 15.9746 43.6337 17.4165V17.8033C43.6337 18.9375 44.0176 19.887 44.7708 20.6255C46.9395 22.7502 51.8981 22.6506 59.4034 22.4982C61.5251 22.4542 63.9312 22.4044 66.4661 22.4044C69.1652 22.4044 71.7119 22.4718 73.9597 22.5304C74.9561 22.5568 75.9057 22.5832 76.8112 22.6007C77.623 22.6183 78.3879 22.6271 79.1059 22.6271C83.8124 22.6271 86.6083 22.2227 88.182 20.6812C88.9879 19.8899 89.3982 18.8554 89.3982 17.6011C89.3982 13.7884 87.1358 12.7597 83.7362 12.3934ZM86.3328 18.7997C85.0814 20.0247 80.9668 20.0482 76.8581 19.9661C75.9584 19.9485 75.0118 19.9222 74.0242 19.8958C71.7618 19.8372 69.1975 19.7668 66.4632 19.7668C63.9018 19.7668 61.4812 19.8167 59.3477 19.8606C53.2549 19.9866 47.9945 20.0921 46.6142 18.7411C46.4442 18.5741 46.2713 18.3338 46.2713 17.8033V17.4048C46.2684 16.5871 46.2625 15.8134 46.4442 15.6317C47.1973 14.8786 51.8863 14.8815 60.3998 14.8932C61.5779 14.8932 62.8439 14.8962 64.2096 14.8962C67.4215 14.8962 70.1997 14.8698 72.6527 14.8463C77.5966 14.7995 81.169 14.7672 83.452 15.0134C86.6258 15.3563 86.7606 16.0538 86.7606 17.6011C86.7606 18.2927 86.535 18.6034 86.3357 18.7968L86.3328 18.7997Z" fill="white" fill-opacity="0.9"/>
<path d="M53.4537 0.688476C46.429 0.688476 45.3799 4.58912 45.3799 6.9131C45.3799 11.4409 47.7097 11.9303 48.7091 11.9303C50.5729 11.9303 51.7774 10.3624 51.7774 7.93588C51.7774 7.05963 52.469 6.42662 53.4244 6.42662C54.0135 6.42662 54.6201 6.42662 54.6201 8.08828C54.6201 8.88833 53.7263 10.7405 52.8852 12.2087L52.7592 12.4314H53.0171C53.5446 12.4197 54.1043 12.4168 54.6992 12.4109H54.7871L54.8282 12.3347C55.5345 11.0189 56.3785 9.21363 56.3785 8.08535C56.3785 5.84929 55.3586 4.66532 53.4244 4.66532C51.4902 4.66532 50.019 6.06908 50.019 7.93295C50.019 8.45753 49.9253 10.169 48.7091 10.169C47.4108 10.169 47.1383 8.39599 47.1383 6.91017C47.1383 3.94732 49.2629 2.44392 53.4537 2.44392C57.3954 2.44392 59.0043 3.80372 59.0043 7.14169C59.0043 9.20191 58.3009 11.0248 57.7119 12.1882L57.6035 12.4021H59.564L59.6021 12.3172C60.1326 11.1244 60.7627 9.26052 60.7627 7.14169C60.7627 2.79852 58.3713 0.685547 53.4537 0.685547V0.688476Z" fill="white" fill-opacity="0.9"/>
<path d="M81.3509 0.688477C76.4334 0.688477 74.042 2.79852 74.042 7.14462C74.042 9.23415 74.6574 11.0746 75.1732 12.2497L75.2113 12.3377H75.308C75.8707 12.3318 76.407 12.3289 76.9228 12.3289H77.1572L77.0517 12.1179C76.4803 10.972 75.7974 9.17846 75.7974 7.14462C75.7974 3.80958 77.4063 2.44684 81.348 2.44684C85.5388 2.44684 87.6635 3.95025 87.6635 6.9131C87.6635 8.39892 87.3909 10.1719 86.0927 10.1719C84.8794 10.1719 84.7827 8.46046 84.7827 7.93588C84.7827 6.07201 83.3203 4.66825 81.3773 4.66825C79.4343 4.66825 78.4233 5.84929 78.4233 8.08828C78.4233 9.20191 79.2497 10.9779 79.9413 12.2732L79.9823 12.3494H80.0673C80.7033 12.364 81.2601 12.3787 81.7671 12.4021L82.0338 12.4139L81.9019 12.1823C81.0696 10.7229 80.1816 8.88247 80.1816 8.08828C80.1816 6.42662 80.7883 6.42662 81.3773 6.42662C82.3327 6.42662 83.0243 7.06256 83.0243 7.93588C83.0243 10.3624 84.2288 11.9303 86.0927 11.9303C87.0949 11.9303 89.4218 11.4409 89.4218 6.9131C89.4218 4.58912 88.3727 0.688477 81.348 0.688477H81.3509Z" fill="white" fill-opacity="0.9"/>
<path d="M67.6759 0.688477C65.5746 0.688477 61.1992 0.688477 61.1992 6.46472C61.1992 9.7558 62.5063 11.7545 65.0823 12.4021C65.9908 12.6307 66.826 12.6307 67.3242 12.6307C67.8224 12.6307 68.306 12.5487 68.8305 12.3846C71.0168 11.7047 73.373 9.63564 73.373 6.69917C73.373 2.99194 71.1897 0.688477 67.6729 0.688477H67.6759ZM67.6759 2.44684C70.1815 2.44684 71.6175 3.99714 71.6175 6.69917C71.6175 9.40119 68.7836 10.8753 67.3271 10.8753C64.7042 10.8753 62.9576 10.1251 62.9576 6.46765C62.9576 3.05055 64.4786 2.44978 67.6759 2.44978V2.44684Z" fill="white" fill-opacity="0.9"/>
<path d="M42.7512 4.47795C41.5438 3.14452 37.0892 -0.630113 29.3114 5.18422C28.2124 4.39882 26.3866 3.79218 23.3827 4.24057C20.0917 4.72998 17.3955 6.33302 15.3675 9.00867C13.0406 12.0741 11.927 16.0802 11.0302 19.301C10.3972 21.581 9.79642 23.7321 9.0286 24.538C6.00713 27.7031 -0.715694 38.3265 1.32694 44.6361C2.19441 47.3089 4.18137 47.0598 5.78148 46.8605C6.34709 46.7901 6.98889 46.711 7.70103 46.7052C7.78602 46.7872 7.92083 46.9718 8.01461 47.0979C8.46592 47.7104 9.25133 48.7771 10.8456 48.7771C11.0947 48.7771 11.3643 48.7507 11.6515 48.6921C13.8817 48.2467 15.5346 45.9491 16.1236 44.0061C16.6892 42.1393 16.3962 40.4483 15.3148 39.364C13.9725 38.0188 11.7306 37.8078 8.64469 38.7339C7.9472 38.9449 7.55157 39.6775 7.76258 40.378C7.97065 41.0754 8.70623 41.4711 9.40372 41.2601C11.3672 40.671 12.8794 40.6564 13.445 41.2278C13.8114 41.5942 13.867 42.3473 13.5974 43.2412C13.1754 44.6332 12.0677 45.9198 11.1328 46.1073C10.6492 46.204 10.5848 46.1395 10.1364 45.5329C9.73194 44.9849 9.05498 44.0676 7.76844 44.0676C6.86288 44.0676 6.08333 44.1643 5.45618 44.2434C4.96677 44.305 4.22825 44.3958 4.07586 44.3079C4.07586 44.3079 3.96743 44.22 3.83848 43.8214C2.35852 39.2526 7.6688 29.7838 10.9394 26.3579C12.1644 25.0743 12.7856 22.8382 13.574 20.0073C14.4532 16.8481 15.4496 13.2669 17.4717 10.6029C19.0923 8.46651 21.1525 7.23859 23.7725 6.84881C25.8386 6.5411 27.3713 6.81072 28.0922 7.60198C28.6901 8.25844 28.5611 9.10246 28.4791 9.43361C28.3179 10.0871 27.4739 10.6733 26.7031 10.6733H26.6855C25.9265 10.6645 25.4166 10.0989 25.1675 8.99109C25.0063 8.28188 24.303 7.83643 23.5908 7.99468C22.8816 8.15587 22.4332 8.85921 22.5944 9.57135C23.1161 11.8924 24.637 13.2874 26.6592 13.3108C26.6738 13.3108 26.6885 13.3108 26.7031 13.3108C28.6872 13.3108 30.5862 11.8953 31.0375 10.0696C31.2749 9.11418 31.2221 8.14414 30.9115 7.28254C35.0319 4.21712 38.6073 3.83028 40.7935 6.24804C42.9974 8.68338 43.1292 13.132 41.0631 15.2304C40.5532 15.7491 40.5591 16.5843 41.0778 17.0942C41.3357 17.3463 41.6698 17.4723 42.0039 17.4723C42.338 17.4723 42.6867 17.3404 42.9446 17.0796C46.0012 13.9761 45.9074 7.96831 42.7512 4.47795Z" fill="white" fill-opacity="0.9"/>
<path d="M29.5547 55.831C28.0835 57.4809 23.3945 61.7333 19.447 61.5838C17.6417 61.5164 14.7404 60.2621 11.4874 58.1374C8.18169 55.9805 5.73756 53.762 5.19833 53.0381C5.16316 50.9105 6.20646 48.0385 6.72225 46.749C6.38816 46.7783 6.07458 46.8164 5.78152 46.8545C5.16023 46.9307 4.48326 47.0157 3.83266 46.9336C3.2143 48.6744 2.46407 51.2651 2.56957 53.3781C2.57836 53.9437 2.81574 54.6412 5.06059 56.6047C6.49659 57.859 8.26668 59.1895 10.0456 60.35C12.6597 62.0556 16.3962 64.1129 19.3473 64.2213C19.447 64.2243 19.5466 64.2272 19.6463 64.2272C25.5309 64.2272 31.2749 57.8648 31.5211 57.5894C32.0047 57.0443 31.9578 56.212 31.4156 55.7284C30.8705 55.2419 30.0382 55.2918 29.5547 55.8339V55.831Z" fill="white" fill-opacity="0.9"/>
<path d="M12.7418 61.965C10.7959 62.2229 9.20162 62.2727 7.83302 62.3137C5.22477 62.3899 3.40486 62.4427 1.78423 63.9432C1.76371 63.738 1.80181 63.527 1.81354 63.4596C2.08901 62.0588 3.88841 59.8374 7.55461 59.8374C8.214 59.8374 8.89683 59.9165 9.60604 60.0572C8.80598 59.5209 8.01472 58.9582 7.25862 58.3838C3.37556 58.5039 0.822991 60.9071 0.377537 63.1783C0.143088 64.3798 0.562169 65.3557 1.47066 65.725L1.96593 65.9272L2.30881 65.5198C3.66568 63.9051 5.07531 63.864 7.87991 63.782C9.74671 63.7263 12.0179 63.6589 15.0335 63.0874C14.2599 62.7563 13.4891 62.3724 12.7477 61.9709L12.7418 61.965Z" fill="white" fill-opacity="0.9"/>
<path d="M30.8291 49.9343C29.1059 49.9343 27.9396 50.7929 26.7058 51.7014C25.132 52.862 23.3473 54.1749 19.7426 54.1749C16.7094 54.1749 15.1738 52.4546 14.4206 51.0098C13.7818 49.7848 13.5913 48.5715 13.5913 47.7656C13.1575 48.1026 12.6798 48.3693 12.167 48.5422C12.252 49.3247 12.46 50.1746 12.7941 50.9864C13.5151 52.7242 15.3731 55.6402 19.7426 55.6402C23.8279 55.6402 25.9057 54.1104 27.5732 52.8795C28.6956 52.0531 29.5836 51.3996 30.8262 51.3996C34.299 51.3996 35.5328 54.3419 35.5328 56.8593C35.5328 61.689 30.2137 64.8042 30.1609 64.8335C29.8093 65.0357 29.6891 65.4812 29.8884 65.8329C30.0232 66.0702 30.2694 66.2021 30.5244 66.2021C30.6474 66.2021 30.7735 66.1699 30.8878 66.1054C31.1369 65.9618 36.9981 62.5447 36.9981 56.8593C36.9981 52.7184 34.5188 49.9343 30.8262 49.9343H30.8291Z" fill="white" fill-opacity="0.9"/>
<path d="M27.8074 30.9033C26.3391 30.9033 25.0702 31.6096 24.3229 32.8405C23.6254 33.9893 23.4876 35.4018 23.9829 36.3572C24.1705 36.7147 24.613 36.8554 24.9705 36.6678C25.3281 36.4803 25.4687 36.0378 25.2812 35.6802C25.0614 35.2553 25.1112 34.3614 25.5713 33.6024C25.9113 33.0397 26.5765 32.3716 27.8015 32.3716C29.7797 32.3716 30.7028 33.3269 30.7028 35.3784C30.7028 36.2663 30.527 39.3259 28.2733 41.4213C26.5736 43.0038 24.0474 43.6837 20.7651 43.4463C19.6544 43.3643 17.7143 42.8632 16.3868 41.8433C16.4249 42.3708 16.3809 42.9335 16.249 43.5167C17.8198 44.4486 19.6544 44.8355 20.6596 44.9087C21.1226 44.941 21.571 44.9585 22.0077 44.9585C25.0731 44.9585 27.5114 44.1321 29.2727 42.4968C31.96 39.997 32.1681 36.4187 32.1681 35.3813C32.1681 32.5386 30.5768 30.9092 27.8015 30.9092L27.8074 30.9033Z" fill="white" fill-opacity="0.9"/>
<path d="M5.26259 14.7904C5.45894 14.7904 5.6465 14.7787 5.8282 14.7523C3.7797 16.5459 1.77223 18.99 2.33784 22.3719C2.72468 24.6842 3.7035 26.1934 5.25672 26.8558C5.79596 27.0873 6.34985 27.184 6.89787 27.1986C7.68914 26.0791 8.43351 25.1589 9.03136 24.5318C9.21012 24.3442 9.3801 24.0805 9.54421 23.7581C8.84966 24.1567 7.29937 24.86 6.29416 24.4321C5.62305 24.1449 5.16881 23.3068 4.94022 21.9411C4.46546 19.0926 7.00045 17.1232 9.2365 15.3853C10.8982 14.0929 12.214 13.0731 12.3049 11.6341C12.3342 11.1477 12.2228 10.4179 11.5165 9.70873C11.0037 9.19588 10.4556 9.09917 10.0834 9.09624C9.10169 9.10796 8.42472 9.81717 7.71258 10.5674C6.97114 11.3469 6.20331 12.1499 5.26552 12.1499C4.03466 12.1499 3.8178 11.0334 3.78556 10.5674C3.78556 10.5352 3.78556 10.544 3.78263 10.5117C3.7797 10.4619 3.68885 9.25742 4.57096 8.29911C5.39153 7.40527 6.8246 6.95103 8.82914 6.95103C12.1026 6.95103 13.4859 8.03535 14.0193 8.68302C14.4061 9.15192 14.5937 9.67357 14.5614 10.1806C14.8135 9.77614 15.0831 9.38344 15.3703 9.00246C15.7307 8.5277 16.1147 8.08517 16.5161 7.67782C16.3784 7.4463 16.226 7.21771 16.0502 7.00378C14.6171 5.26886 12.0528 4.31641 8.82621 4.31641C6.02161 4.31641 3.92036 5.0725 2.58107 6.56419C1.01613 8.30497 1.11576 10.3623 1.15093 10.7432C1.2535 12.3815 2.42575 14.7904 5.26552 14.7904H5.26259Z" fill="white" fill-opacity="0.9"/>
<path d="M73.2739 58.2021C73.1772 58.2021 73.0775 58.1787 72.9896 58.126C72.7083 57.9677 72.6057 57.6101 72.764 57.3288C72.7845 57.2936 74.7099 53.7856 72.9076 52.3319C72.0255 51.6197 71.2899 52.1561 70.185 53.1261C69.4377 53.7797 68.667 54.4567 67.8171 54.105C66.9995 53.768 66.9438 52.7422 66.8764 51.5523C66.7679 49.5917 66.5745 48.308 64.9685 48.308C63.3626 48.308 62.9698 49.7265 62.6563 51.734C62.4658 52.9474 62.3017 53.9936 61.4811 54.3101C60.6136 54.6472 59.7608 53.894 58.8582 53.0968C57.4339 51.8396 56.4229 51.0776 55.3561 51.8894C54.9283 52.2147 54.6879 52.625 54.6235 53.1379C54.4535 54.5124 55.6052 56.3001 56.0624 56.8716C56.2646 57.1236 56.2236 57.4929 55.9715 57.6951C55.7195 57.8974 55.3503 57.8563 55.148 57.6043C55.0689 57.5046 53.1963 55.1337 53.46 52.9943C53.5626 52.1619 53.9612 51.4761 54.6469 50.9574C56.5606 49.5038 58.4098 51.1391 59.6348 52.2176C60.0304 52.5693 60.8598 53.2991 61.0591 53.217C61.2584 53.1027 61.4108 52.1297 61.5016 51.5494C61.7771 49.791 62.1962 47.1357 64.9715 47.1357C67.7468 47.1357 67.9607 49.8584 68.0486 51.4879C68.0808 52.0418 68.1248 52.88 68.2831 53.0324C68.4442 53.0968 69.0743 52.54 69.4143 52.244C70.4165 51.3648 71.9346 50.0372 73.6461 51.4205C76.2162 53.4954 73.8893 57.7244 73.7897 57.9032C73.6812 58.0937 73.4849 58.2021 73.2768 58.2021H73.2739Z" fill="white" fill-opacity="0.9"/>
<path d="M87.5724 48.8301C86.8427 48.8301 86.2536 49.4191 86.2536 50.1489C86.2536 59.4624 85.7818 65.2036 83.4695 68.7291C83.7128 68.3833 83.9121 68.0404 84.0615 67.7005L83.7098 70.7894C82.1859 73.1515 78.9388 74.9333 74.8008 75.6748C73.5084 75.9063 72.2277 76.0176 71.0232 76.0176C68.4941 76.0176 66.3079 75.5253 65.0829 74.6051C65.033 74.567 64.9803 74.5259 64.9305 74.4849C63.512 74.5406 61.9999 74.5816 60.3939 74.608C59.0898 76.085 57.4046 76.8353 55.3825 76.8353C55.2624 76.8353 55.1393 76.8353 55.0133 76.8265C53.6417 76.7679 52.5515 76.1906 51.7779 75.115C51.6782 74.9743 51.5845 74.8278 51.4965 74.6754C49.958 74.6754 48.3578 74.6754 46.6845 74.6754H44.3722C15.0397 74.6754 9.72356 69.8193 8.80042 67.7298C8.27584 66.5458 8.78869 65.4322 9.16674 64.8402C9.33086 64.5823 9.76752 63.9317 10.0137 63.6914C9.24294 63.7353 8.53373 63.7558 7.87434 63.7764C7.45526 63.7881 7.07135 63.7998 6.71089 63.8174C6.0896 64.9457 5.49762 66.748 6.36801 68.7614C8.82973 74.4351 21.616 77.313 44.3693 77.313H46.6815C47.4054 77.313 48.1175 77.313 48.818 77.313C66.258 77.313 76.0433 77.1899 81.7053 73.9134C87.8508 70.3556 88.8882 63.7089 88.8882 50.1489C88.8882 49.4191 88.2962 48.8301 87.5695 48.8301H87.5724Z" fill="white" fill-opacity="0.9"/>
<path d="M42.9486 17.0767C42.6907 17.3375 42.3508 17.4694 42.0079 17.4694C41.665 17.4694 41.3397 17.3434 41.0818 17.0914C40.6656 16.6811 40.5836 16.0627 40.8327 15.5645C40.4752 15.4707 40.0971 15.418 39.6927 15.418C36.8998 15.418 35.3143 17.0855 35.2294 20.1099C35.2176 20.5143 35.5371 20.8513 35.9415 20.863C36.3547 20.8689 36.6829 20.5553 36.6947 20.1509C36.7767 17.2203 38.4442 16.8833 39.6927 16.8833C42.2394 16.8833 43.5728 20.1157 43.5728 23.3072C43.5728 26.4986 42.761 28.9193 41.158 30.1296C39.6575 31.2609 37.4097 31.4396 34.4762 30.666C33.8549 28.9926 31.0415 22.5775 24.5326 22.5775C24.4975 22.5775 24.4681 22.5833 24.433 22.5863C24.4007 22.5833 24.3685 22.5775 24.3333 22.5775H24.3245C21.1946 22.6156 18.6421 23.2867 16.6903 24.5673C16.0631 24.667 15.5767 24.5439 15.1664 24.1776C14.1612 23.2779 13.8242 21.1502 13.748 19.3684C13.6893 19.5824 13.6278 19.7934 13.5692 20.0044C13.2908 21.0008 13.0358 21.921 12.7633 22.7562C13.0534 23.7497 13.5018 24.6582 14.1846 25.2707C14.4689 25.5257 14.7854 25.7191 15.1254 25.851C14.8264 26.1587 14.548 26.4869 14.2931 26.8386C11.6145 30.5077 12.0423 35.5249 12.5376 38.1918C13.1208 38.2387 13.6483 38.3588 14.1114 38.5581C13.6454 36.3719 12.9186 31.2023 15.48 27.7002C17.2149 25.3264 20.1953 24.0984 24.3392 24.0457C24.3685 24.0457 24.3978 24.0398 24.4271 24.0369C24.4594 24.0398 24.4916 24.0457 24.5268 24.0457C30.7719 24.0457 33.1838 31.4191 33.2072 31.4953C33.2805 31.7298 33.4681 31.9115 33.7054 31.9789C35.1707 32.3979 36.5042 32.606 37.7057 32.606C39.4348 32.606 40.8825 32.1723 42.0342 31.3019C44.0241 29.8014 45.0323 27.114 45.0323 23.3101C45.0323 20.9656 44.3934 18.5098 43.0424 16.9741C43.0101 17.0093 42.9779 17.0474 42.9427 17.0796L42.9486 17.0767Z" fill="white" fill-opacity="0.9"/>
<path d="M88.9685 30.1849C86.7764 25.1296 82.0874 21.8679 75.0364 20.4905C72.4955 19.9923 69.6118 19.7402 66.4643 19.7402C55.9991 19.7402 48.57 22.5888 44.3851 28.2038C40.6779 33.1771 40.25 39.3255 40.25 43.5192C40.25 50.327 41.9263 54.8548 45.5251 57.7708C49.2206 60.763 55.1023 62.1579 64.029 62.1579C78.0637 62.1579 85.6481 58.5738 88.6139 50.5351C89.6191 47.8097 90.1085 44.542 90.1085 40.5447C90.1085 40.4626 90.1349 40.1988 90.1554 39.9644C90.3225 38.2441 90.7181 34.2204 88.9656 30.1849H88.9685ZM64.029 59.5204C46.2577 59.5204 42.8876 53.8965 42.8876 43.5192C42.8876 39.7006 43.2627 34.1237 46.4981 29.7805C50.1584 24.8688 56.8754 22.3778 66.4643 22.3778C69.4418 22.3778 72.1556 22.6122 74.5294 23.0782C88.8806 25.8857 87.8637 36.2894 87.5296 39.7065C87.4944 40.0699 87.468 40.3307 87.468 40.5417C87.468 44.2226 87.0314 47.1913 86.1375 49.6178C83.5762 56.5575 76.9647 59.5175 64.0261 59.5175L64.029 59.5204Z" fill="white" fill-opacity="0.9"/>
<path d="M51.736 30.1472C48.3336 33.2097 46.458 37.4766 46.458 42.1597C46.458 49.9962 48.0757 54.6207 49.5117 57.1879C50.2356 57.5367 51.0356 57.8473 51.9148 58.1169C50.6371 56.5754 47.9233 52.1238 47.9233 42.1597C47.9233 34.8801 53.1369 26.3784 67.8339 26.3784C81.4788 26.3784 83.5156 36.0143 83.5156 41.7583C83.5156 50.9428 77.5577 56.0772 74.6945 58.5448C74.6945 58.5448 74.6886 58.5477 74.6857 58.5507C75.8491 58.2898 76.9217 57.9763 77.9064 57.607C80.9836 54.5885 84.978 49.4628 84.978 41.7583C84.978 38.7544 84.4476 34.4376 81.9184 30.9326C79.0376 26.9381 74.2988 24.9131 67.831 24.9131C61.3631 24.9131 55.537 26.7242 51.7331 30.1501L51.736 30.1472Z" fill="white" fill-opacity="0.9"/>
<path d="M73.6639 27.0989C73.2888 28.3209 72.31 30.7328 70.915 31.5124C70.4344 31.782 69.945 31.8318 69.4204 31.6706C68.8665 31.5006 68.5119 31.1959 68.3361 30.7475C67.8379 29.4639 68.8255 27.263 69.3032 26.419C68.8812 26.3955 68.4504 26.3838 68.0049 26.3809C67.7763 26.8498 67.4833 27.5297 67.2781 28.2799L67.2693 28.2945C65.9066 30.7006 64.5996 32.6113 62.3928 31.5974C62.0148 31.4244 61.8038 31.1841 61.7334 30.8471C61.496 29.7452 62.7357 27.767 63.6735 26.63C63.102 26.7032 62.5481 26.7911 62.0118 26.8908C61.2264 28.0337 60.2974 29.7335 60.5875 31.0904C60.737 31.7908 61.1913 32.3329 61.9034 32.6612C62.5042 32.9366 63.0581 33.0568 63.568 33.0568C65.1036 33.0568 66.2495 31.9695 67.1199 30.7592C67.1521 30.8999 67.1932 31.0347 67.243 31.1666C67.5478 31.952 68.1808 32.5117 69.0746 32.7872C69.3882 32.8839 69.6988 32.9337 70.0036 32.9337C70.5106 32.9337 71.0059 32.7989 71.4836 32.5351C73.3797 31.4772 74.4435 28.5407 74.7805 27.4505C74.423 27.3216 74.0508 27.2044 73.6639 27.0989Z" fill="white" fill-opacity="0.9"/>
<path d="M47.9639 44.1345C48.8079 44.9814 50.1413 45.7141 52.2279 45.7141C56.9638 45.7141 58.0012 42.382 58.0012 41.1013C58.0012 40.0492 57.6525 39.2257 56.9667 38.6513C55.5659 37.4849 53.2771 37.8864 53.1804 37.904C52.861 37.9626 52.6529 38.2674 52.7085 38.5839C52.7672 38.9033 53.069 39.1114 53.3884 39.0557C53.406 39.0528 55.2435 38.7363 56.2165 39.551C56.6268 39.8939 56.8261 40.4009 56.8261 41.0984C56.8261 41.1335 56.7733 44.5389 52.225 44.5389C49.4058 44.5389 48.3185 42.971 47.9258 42.0479C47.9258 42.083 47.9258 42.1182 47.9258 42.1534C47.9258 42.8391 47.9404 43.4956 47.9639 44.1315V44.1345Z" fill="white" fill-opacity="0.9"/>
<path d="M77.8561 42.5783C75.1247 42.5783 74.0609 41.8398 74.0609 39.9408C74.0609 37.778 76.9446 37.6607 77.0677 37.6578C77.3901 37.649 77.6451 37.3794 77.6363 37.057C77.6275 36.7347 77.3579 36.4797 77.0355 36.4885C75.6024 36.5295 72.8916 37.3032 72.8916 39.9437C72.8916 43.7535 76.4992 43.7535 77.859 43.7535C79.8079 43.7535 82.126 42.1211 83.5092 40.9841C83.4946 40.5152 83.4653 40.0287 83.4154 39.5276C81.9501 40.861 79.5089 42.5813 77.859 42.5813L77.8561 42.5783Z" fill="white" fill-opacity="0.9"/>
<path d="M84.8821 39.5371C84.8704 39.6719 84.8176 39.8009 84.7151 39.9034C84.7004 39.9181 84.2345 40.3811 83.5047 40.9819C83.5135 41.2457 83.5164 41.5065 83.5164 41.7556C83.5164 50.9403 77.5585 56.0749 74.6953 58.5425C74.6953 58.5425 74.6895 58.5454 74.6865 58.5483C75.85 58.2875 76.9226 57.9739 77.9073 57.6047C80.9844 54.5861 84.9788 49.4603 84.9788 41.7556C84.9788 41.0757 84.9495 40.3284 84.8792 39.5371H84.8821Z" fill="white" fill-opacity="0.9"/>
<path d="M44.4776 69.8774C44.5099 69.8862 44.5421 69.8891 44.5744 69.8891C44.7766 69.8891 44.9553 69.7514 45.0022 69.5462C45.0198 69.47 46.5701 62.7618 48.5952 59.6613C48.3255 59.5352 48.0618 59.4063 47.8039 59.2686C45.7085 62.5626 44.2139 69.0363 44.1436 69.3499C44.0908 69.5872 44.2373 69.8217 44.4747 69.8774H44.4776Z" fill="white" fill-opacity="0.9"/>
<path d="M55.4766 71.7942C55.4238 72.0316 55.5703 72.266 55.8077 72.3188C55.84 72.3276 55.8722 72.3305 55.9044 72.3305C56.1066 72.3305 56.2854 72.1928 56.3323 71.9876C56.3704 71.8118 57.2437 67.8789 56.8833 61.7832C56.5814 61.7481 56.2854 61.71 55.9953 61.6719C56.3704 67.7382 55.4854 71.7503 55.4766 71.7942Z" fill="white" fill-opacity="0.9"/>
<path d="M64.3678 62.3427C63.8315 62.8672 63.4036 63.4973 63.0754 64.2241C63.0373 63.5178 62.967 62.8233 62.8703 62.1463C62.3662 62.1405 61.868 62.1258 61.3845 62.1111C61.9764 66.003 61.6101 70.9176 59.377 73.5464C58.2897 74.8271 56.8449 75.4366 55.0778 75.3605C54.1634 75.3194 53.4747 74.959 52.9677 74.2556C51.6958 72.4884 51.7662 68.9043 52.2087 65.666C52.5662 64.3003 52.8593 62.92 53.1348 61.6276C53.167 61.4752 53.1992 61.3257 53.2315 61.1763C52.6893 61.0561 52.1647 60.9243 51.6607 60.7807C51.4086 61.7946 51.0335 63.468 50.7668 65.3641C49.8964 68.6464 48.6246 71.8847 46.3944 73.1449C45.1195 73.8658 43.6132 73.9098 41.7933 73.2827C40.5419 72.8489 39.7858 72.1192 39.484 71.0495C38.47 67.4507 42.7545 60.8041 45.2485 57.5277C44.8734 57.2053 44.5188 56.8683 44.1876 56.5078C42.1655 59.1483 36.7614 66.7855 38.0714 71.4451C38.5052 72.9896 39.5953 74.0739 41.3127 74.6688C42.3091 75.0117 43.2527 75.1846 44.1407 75.1846C45.2192 75.1846 46.2127 74.9297 47.1124 74.4227C48.5659 73.6021 49.6444 72.2071 50.4796 70.5308C50.5793 72.3185 50.9485 73.9625 51.775 75.1113C52.5516 76.1869 53.6388 76.7642 55.0104 76.8228C55.1335 76.8287 55.2565 76.8316 55.3796 76.8316C57.4545 76.8316 59.1718 76.0462 60.4906 74.493C61.4196 73.3969 62.0673 71.9902 62.4864 70.4429C62.9142 72.6233 64.0015 73.7691 65.077 74.6014C66.302 75.5216 68.4883 76.014 71.0174 76.014C72.2219 76.014 73.5025 75.9026 74.7949 75.6711C78.9359 74.9297 82.183 73.1478 83.704 70.7858L84.0557 67.6969C82.8424 70.4605 78.2794 73.5581 74.537 74.2292C71.0203 74.8593 67.4127 74.5223 65.965 73.435C64.8983 72.6115 63.7582 71.4686 63.7582 68.3358C63.7582 66.1085 64.3063 64.4439 65.3847 63.383C66.346 62.4394 67.5915 62.1141 68.5879 62.0056C67.3131 62.0906 65.9738 62.1375 64.57 62.1463C64.4997 62.2079 64.4264 62.2694 64.3561 62.3368L64.3678 62.3427Z" fill="white" fill-opacity="0.9"/>
<path d="M78.4219 67.7944C77.4196 68.8201 76.2298 69.3213 74.782 69.3213C71.4353 69.3213 70.981 68.1402 70.94 66.8654C71.025 66.8478 71.1217 66.8273 71.2038 66.8126C72.0624 66.6514 73.8501 66.3173 73.8501 63.624C73.8501 62.7477 73.5893 62.0385 73.094 61.5198C71.8807 61.7161 70.5942 61.8656 69.2314 61.9711C69.5274 61.9594 69.7824 61.9653 69.967 61.9711C70.0491 61.9711 70.1194 61.9711 70.1751 61.9711C72.3848 61.9711 72.3848 63.1287 72.3848 63.624C72.3848 65.1011 71.7752 65.2154 70.9341 65.3736C70.4213 65.4703 69.4718 65.6462 69.4718 66.6338C69.4718 69.4678 71.1598 70.7896 74.782 70.7896C76.6195 70.7896 78.1962 70.1272 79.471 68.8231C82.3606 65.8631 82.9057 60.3475 83.0024 57.9062C82.5188 58.2403 82.0119 58.5569 81.4756 58.8499C81.2792 61.3791 80.6227 65.5495 78.4248 67.8002L78.4219 67.7944Z" fill="white" fill-opacity="0.9"/>
</svg>
