<svg width="101" height="96" viewBox="0 0 101 96" fill="none" xmlns="http://www.w3.org/2000/svg">
<path d="M28.162 69.3035C28.1333 64.638 28.1011 58.832 28.1011 52.0039C28.1011 45.9971 28.119 40.7363 28.1369 36.0958C28.2194 12.6639 28.2409 6.36298 25.6087 3.71998C24.7731 2.88082 23.6865 2.47559 22.2843 2.47559C17.8948 2.47559 16.5931 5.84298 15.9834 10.8995C15.3056 16.5369 15.3128 26.3414 15.3307 42.5795C15.3307 45.2584 15.3379 48.1166 15.3379 51.1684C15.3379 55.002 15.2734 58.8212 15.216 62.515C14.9686 77.5876 14.7749 89.49 18.7233 93.5065C19.6987 94.4999 20.9323 95.0234 22.2879 95.0234C23.6435 95.0234 25.0564 94.9302 26.1753 93.8041C28.3019 91.6668 28.2732 87.3742 28.1656 69.3035H28.162ZM23.8801 91.5269C23.6901 91.717 23.2275 91.7959 22.2807 91.7959C21.7822 91.7959 21.3914 91.6273 21.0184 91.2436C18.0168 88.1918 18.2212 75.7479 18.4364 62.5688C18.4973 58.8607 18.5619 55.0307 18.5619 51.1684C18.5619 48.1166 18.5619 45.2548 18.5547 42.5759C18.5404 26.4598 18.5296 16.7305 19.1859 11.2868C19.8565 5.70312 21.0901 5.70312 22.2807 5.70312C23.023 5.70312 23.2131 5.89678 23.3171 6.00077C25.0062 7.69703 24.9739 16.5943 24.9058 36.0886C24.8878 40.7327 24.8699 45.9935 24.8699 52.0075C24.8699 58.8427 24.9058 64.6559 24.9309 69.3251C25.0134 83.3182 25.0564 90.3435 23.8766 91.5305L23.8801 91.5269Z" fill="white" fill-opacity="0.9"/>
<path d="M37.4571 69.3114C37.432 64.6458 37.3962 58.8362 37.3962 52.0046C37.3962 45.9942 37.4141 40.7333 37.4284 36.0928C37.5073 12.5928 37.5289 6.27398 34.9468 3.68119C34.1364 2.86713 33.0928 2.47266 31.7516 2.47266C27.4876 2.47266 26.2253 5.84364 25.6408 10.9037C24.9917 16.5375 24.9988 26.3349 25.0168 42.5658C25.0168 45.2483 25.0204 48.1136 25.0204 51.169C25.0204 55.0026 24.9594 58.8255 24.902 62.5192C24.6653 77.6707 24.4753 89.6377 28.3447 93.5681C29.2807 94.5184 30.457 95.0205 31.748 95.0205C33.039 95.0205 34.4017 94.9273 35.4919 93.8335C37.5827 91.732 37.5575 87.4286 37.4536 69.3114H37.4571ZM33.2076 91.5599C33.0426 91.7284 32.6194 91.7966 31.7516 91.7966C31.3212 91.7966 30.9806 91.6459 30.647 91.3053C27.7243 88.3359 27.9323 75.2393 28.1296 62.5694C28.1869 58.8613 28.2479 55.0277 28.2479 51.169C28.2479 48.11 28.2479 45.2447 28.2443 42.5623C28.23 26.4497 28.2192 16.7204 28.8504 11.2767C29.4923 5.70378 30.6435 5.70378 31.7516 5.70378C32.4043 5.70378 32.5728 5.87233 32.6625 5.96198C34.3013 7.60444 34.269 16.5304 34.2045 36.0821C34.1902 40.7261 34.1722 45.9906 34.1722 52.0046C34.1722 58.847 34.2045 64.6601 34.2332 69.3329C34.3121 83.3655 34.3551 90.4123 33.2111 91.5599H33.2076Z" fill="white" fill-opacity="0.9"/>
<path d="M98.7941 20.2699V19.7821C98.7941 14.4639 93.7628 14.4639 87.3937 14.4639C85.6222 14.4639 83.5494 14.4926 81.1467 14.5212C77.8438 14.5643 73.7341 14.6181 68.8892 14.6181C57.5032 14.6181 49.6961 14.6683 45.1489 15.3568C41.7097 15.8768 38.1953 16.967 38.1953 21.1162C38.1953 24.1465 39.1241 26.0364 43.8686 26.7285C47.9102 27.3202 55.1973 27.3202 69.714 27.3202C89.922 27.3202 95.3048 27.019 97.5533 24.7561C98.8121 23.4902 98.8013 21.9267 98.7905 20.2699H98.7941ZM95.2654 22.4825C93.7735 23.9851 84.1806 24.0963 69.714 24.0963C55.2475 24.0963 48.1433 24.0963 44.3348 23.5404C41.4228 23.1137 41.4229 22.7694 41.4229 21.1198C41.4229 20.2125 41.4229 19.1868 45.6294 18.5521C49.9543 17.8994 57.643 17.8492 68.8856 17.8492C73.752 17.8492 77.8725 17.7954 81.1861 17.7524C83.5745 17.7201 85.6401 17.695 87.3902 17.695C90.3738 17.695 93.3217 17.7631 94.6988 18.2652C95.2976 18.4839 95.563 18.6274 95.563 19.7857V20.295C95.5737 21.4963 95.563 22.1884 95.2654 22.4861V22.4825Z" fill="white" fill-opacity="0.9"/>
<path d="M50.7068 0.639648C45.1052 0.639648 40.5508 4.54497 40.5508 9.35041C40.5508 14.1559 45.1088 18.0612 50.7068 18.0612C56.3048 18.0612 60.8663 13.2737 60.8663 9.35041C60.8663 5.15462 57.6854 0.639648 50.7068 0.639648ZM50.7068 14.8301C46.9521 14.8301 43.7783 12.3198 43.7783 9.34683C43.7783 6.37391 46.9521 3.8636 50.7068 3.8636C55.8242 3.8636 57.6388 6.81501 57.6388 9.34683C57.6388 11.2224 54.7125 14.8301 50.7068 14.8301Z" fill="white" fill-opacity="0.9"/>
<path d="M82.3548 1.05566C79.0017 1.05566 75.8315 2.24985 73.8735 4.24734C72.5143 5.6316 71.8151 7.30633 71.8509 9.09223C71.9513 14.3352 75.8029 17.7241 81.659 17.7241C87.5152 17.7241 91.8186 14.1308 91.8186 9.18189C91.8186 6.73972 90.897 1.05566 82.3583 1.05566H82.3548ZM81.659 14.4966C77.6031 14.4966 75.143 12.4525 75.0785 9.03127C75.0605 8.12039 75.4299 7.27047 76.1794 6.5102C77.5242 5.13671 79.8911 4.28679 82.3583 4.28679C86.5541 4.28679 88.5911 5.8898 88.5911 9.18547C88.5911 12.6748 85.1053 14.5002 81.659 14.5002V14.4966Z" fill="white" fill-opacity="0.9"/>
<path d="M92.924 31.9934C88.5883 28.3893 80.8279 24.0967 68.4987 24.0967C51.4573 24.0967 40.1322 31.5128 36.6142 44.9788C35.8719 47.8298 35.3949 50.7418 36.9369 52.7357C37.543 53.5175 38.73 54.4535 40.9427 54.4535C44.0591 54.4535 45.9741 51.5738 48.1939 48.2422C51.8948 42.6801 56.4994 35.7589 68.4987 35.7589C80.4979 35.7589 85.2891 41.0484 88.9505 45.298C91.1919 47.9016 93.3113 50.3617 96.6572 50.3617C99.1997 50.3617 100.846 48.461 100.846 45.5168C100.846 42.3143 98.773 36.849 92.9276 31.9934H92.924ZM96.6536 47.1341C94.8748 47.1341 93.5623 45.7104 91.3927 43.1894C87.5196 38.6923 82.2121 32.5313 68.4951 32.5313C54.7781 32.5313 49.1944 40.9086 45.5043 46.4528C43.8009 49.0133 42.327 51.2259 40.9427 51.2259C40.2147 51.2259 39.727 51.0717 39.4903 50.7633C38.7049 49.7448 39.4795 46.7719 39.7342 45.7929C42.8469 33.8833 53.0603 27.3242 68.4951 27.3242C79.8632 27.3242 86.9315 31.2152 90.8583 34.4786C95.4988 38.3337 97.6111 42.9025 97.6111 45.5204C97.6111 47.1377 96.9369 47.1377 96.65 47.1377L96.6536 47.1341Z" fill="white" fill-opacity="0.9"/>
<path d="M100.153 48.3962C99.5077 49.5258 98.439 50.2215 97.0763 50.3399C97.1803 51.6165 97.3057 53.1944 97.3057 53.6284C97.3057 71.8245 88.4193 79.9364 68.4946 79.9364C57.0189 79.9364 49.2693 77.5767 44.8081 72.7282C41.0892 68.683 39.454 62.6547 39.8233 54.3599C38.31 54.1089 37.4278 53.3702 36.9365 52.7318C36.854 52.6242 36.7787 52.5131 36.7105 52.4019C35.9574 62.5292 37.8294 69.9023 42.4376 74.9122C47.5443 80.4636 56.0686 83.1639 68.4982 83.1639C80.1568 83.1639 88.3942 80.4707 93.673 74.9265C98.292 70.0816 100.533 63.1137 100.533 53.6284C100.533 53.0402 100.408 51.491 100.246 49.5258C100.211 49.0955 100.178 48.7046 100.153 48.3926V48.3962Z" fill="white" fill-opacity="0.9"/>
<path d="M95.3628 43.5303C95.3019 43.3833 93.7993 39.9047 89.8473 36.3903C86.2146 33.1591 79.7344 29.3076 69.4959 29.3076C56.5965 29.3076 49.3202 34.4107 45.4902 38.689C41.3267 43.3402 40.2437 47.9377 40.2006 48.1313C40.1361 48.4218 40.3154 48.7087 40.6059 48.7768C40.6453 48.7876 40.6848 48.7912 40.7242 48.7912C40.9716 48.7912 41.1904 48.6226 41.2478 48.3716C41.2585 48.3286 42.3093 43.8531 46.2899 39.4062C49.9765 35.2893 56.9946 30.3835 69.4959 30.3835C88.3734 30.3835 94.3121 43.8172 94.3695 43.9535C94.4842 44.226 94.8034 44.3551 95.0759 44.2368C95.3485 44.122 95.4776 43.8064 95.3593 43.5339L95.3628 43.5303Z" fill="white" fill-opacity="0.9"/>
<path d="M78.7737 37.4196C78.8204 39.2163 78.598 42.6913 76.4965 45.1119C74.915 46.9301 72.5159 47.8553 69.3673 47.8553C66.4159 47.8553 64.2355 46.9803 62.8871 45.259C60.8753 42.6841 61.0833 38.768 61.363 36.749C60.7031 36.9498 60.072 37.1794 59.4731 37.4304C59.2435 39.8618 59.3368 43.6201 61.4706 46.3563C63.174 48.5403 65.8313 49.6448 69.3673 49.6448C72.9032 49.6448 75.9228 48.5116 77.8593 46.2774C80.0612 43.7349 80.5345 40.3782 80.574 38.2014C80.0074 37.9217 79.4085 37.6599 78.7737 37.4196Z" fill="white" fill-opacity="0.9"/>
<path d="M69.8988 44.0107C72.0505 44.0107 73.7038 43.3186 74.8119 41.9487C76.1065 40.3529 76.3324 38.194 76.293 36.6412C75.7156 36.4942 75.1131 36.3651 74.4819 36.2539C74.5644 37.6166 74.4317 39.5675 73.4169 40.8191C72.653 41.7586 71.5018 42.2177 69.8953 42.2177C68.4393 42.2177 67.4459 41.816 66.8649 40.984C65.929 39.65 66.1764 37.3656 66.5314 35.8271C65.8859 35.8702 65.262 35.9383 64.6595 36.0244C64.326 37.7601 64.1646 40.256 65.3946 42.0133C66.3234 43.3401 67.8368 44.0107 69.8953 44.0107H69.8988Z" fill="white" fill-opacity="0.9"/>
<path d="M53.5172 51.1758C51.95 50.5626 50.3219 50.828 49.3716 51.8536C47.9766 53.3634 48.9377 54.8086 49.6406 55.8665C50.2179 56.7344 50.8168 57.6345 50.8168 58.8394C50.8168 60.7796 48.4858 61.9343 44.5841 61.9343C42.3284 61.9343 40.8652 61.4143 40.0117 60.9517C40.0906 61.6689 40.1946 62.3646 40.3166 63.0352C41.3745 63.4225 42.7766 63.7238 44.5841 63.7238C49.6083 63.7238 52.6099 61.8948 52.6099 58.8359C52.6099 57.0894 51.7922 55.8594 51.136 54.8732C50.3183 53.6431 50.3183 53.471 50.6913 53.0693C51.1288 52.5959 52.0038 52.5063 52.8645 52.8434C53.5961 53.1303 55.9809 54.4356 55.9809 59.2016C55.9809 65.5025 49.9454 66.8832 47.6215 66.8832C44.1143 66.8832 42.1347 66.4815 41.0876 66.1373C41.3171 66.8545 41.5825 67.5395 41.8729 68.1957C43.1926 68.4683 45.0431 68.6763 47.6251 68.6763C51.552 68.6763 57.7775 66.105 57.7775 59.2016C57.7775 53.2988 54.5213 51.5631 53.5208 51.1722L53.5172 51.1758Z" fill="white" fill-opacity="0.9"/>
<path d="M83.4038 54.9842C83.4038 58.6277 88.4746 58.6277 90.9132 58.6277C93.9113 58.6277 95.9051 57.6953 97.2213 56.5585C97.2751 55.6548 97.3037 54.7224 97.3073 53.7613C96.5148 55.1097 94.7504 56.8347 90.9132 56.8347C87.0761 56.8347 85.1969 56.2824 85.1969 54.9842C85.1969 53.8079 85.5448 52.9329 85.8532 52.1583C86.3194 50.9892 86.8465 49.6659 85.3977 48.2817C84.6088 47.5286 83.454 47.3923 82.2312 47.9159C79.9719 48.8806 77.6875 51.936 77.6875 55.9094C77.6875 61.0269 81.8618 63.9603 89.1453 63.9603C92.4374 63.9603 94.8293 63.1857 96.461 62.343C96.626 61.5827 96.7766 60.8009 96.8914 59.9869C95.6613 60.8906 93.2048 62.1673 89.1453 62.1673C84.7379 62.1673 79.4806 61.0807 79.4806 55.9094C79.4806 52.7464 81.2593 50.2792 82.934 49.5655C83.246 49.4328 83.8234 49.2535 84.1569 49.5763C84.6913 50.0891 84.6554 50.315 84.1856 51.4949C83.8378 52.3699 83.4038 53.4637 83.4038 54.9806V54.9842Z" fill="white" fill-opacity="0.9"/>
<path d="M84.719 70.9462C84.2923 68.7694 83.3025 67.3457 81.7784 66.711C79.7486 65.8646 77.3279 66.7325 75.8971 67.4318C75.3878 65.0972 73.5732 62.1709 69.0188 62.1709C66.8205 62.1709 64.8194 63.2037 63.5284 65.0075C62.5458 66.3775 62.1047 68.0486 62.2446 69.6911C59.91 69.0491 58.0775 69.2535 56.7757 70.3079C54.2259 72.3735 54.936 76.8383 54.9683 77.0247C55.04 77.4623 55.4201 77.7742 55.8505 77.7742C55.8971 77.7742 55.9473 77.7707 55.9975 77.7635C56.4852 77.681 56.8152 77.222 56.7363 76.7307C56.7291 76.6948 56.184 73.0907 57.9053 71.6993C58.9382 70.8637 60.6918 70.9175 63.1124 71.8679C63.4388 71.9934 63.8081 71.9217 64.0592 71.6814C64.3102 71.4411 64.3999 71.0753 64.2887 70.7454C63.7508 69.1675 64.0126 67.4139 64.988 66.0511C65.9383 64.7242 67.4086 63.9604 69.0188 63.9604C74.0825 63.9604 74.2618 68.3642 74.2654 68.8627C74.2654 69.1926 74.4483 69.4974 74.7387 69.6516C75.0292 69.8058 75.3807 69.7915 75.6568 69.6086C76.5641 69.0097 79.3075 67.6147 81.0898 68.3606C82.0258 68.7515 82.6534 69.7377 82.9582 71.2869C83.055 71.7746 83.5248 72.0902 84.0125 71.9934C84.5002 71.8965 84.8158 71.4268 84.719 70.939V70.9462Z" fill="white" fill-opacity="0.9"/>
<path d="M96.3172 77.0964C95.2987 76.2285 94.0543 75.8161 92.6951 75.8879C91.6408 76.8597 90.4861 77.7347 89.2237 78.5093C88.9835 79.2158 88.8723 79.9546 88.779 80.575C88.4599 82.698 88.2698 82.698 87.7642 82.698C86.3441 82.698 85.5802 81.5253 85.1821 80.5104C84.2103 80.8941 83.1918 81.2348 82.1231 81.5361C82.9264 83.634 84.6442 85.9255 87.7606 85.9255C91.232 85.9255 91.709 82.7589 91.9672 81.0591C92.1214 80.0406 92.2719 79.1907 92.5552 79.1441C93.233 79.0365 93.7638 79.1656 94.2192 79.5565C95.1194 80.3239 95.6573 82.0381 95.6573 84.1468C95.6573 87.4102 94.1511 91.2976 86.9824 91.2976C84.7267 91.2976 82.9946 90.6305 81.6892 89.2606C80.4054 87.9158 79.7419 86.0941 79.3977 84.4803C79.3439 83.6483 79.2363 82.8916 79.1144 82.2425C78.078 82.4434 76.9985 82.6119 75.8832 82.7482C75.937 83.3757 76.0303 84.1001 76.1881 84.8819C76.2705 86.5172 76.0733 88.3784 75.0728 89.7699C73.9467 91.337 71.8811 92.1295 68.9333 92.1295C65.9855 92.1295 63.7907 91.3478 62.7221 89.8093C61.2231 87.654 61.8542 84.3978 62.263 82.9167C61.1047 82.8163 59.9858 82.6872 58.91 82.5258C58.5191 85.1616 56.8408 91.796 49.8227 91.796C42.8046 91.796 41.5853 88.1955 41.5853 85.0612C41.5853 83.2682 42.3491 81.6257 43.5326 80.869C44.1673 80.4638 44.7913 80.4028 45.3974 80.6825C45.8277 80.8834 45.9389 81.762 46.0429 82.9813C46.1935 84.7098 46.4732 87.9266 50.0881 87.9266C53.7029 87.9266 55.3704 84.717 56.1271 82.0202C55.0298 81.7835 53.9826 81.5109 52.9821 81.2025C52.5733 82.6119 51.6946 84.699 50.0881 84.699C49.5609 84.699 49.4318 84.699 49.2597 82.7016C49.1736 81.6974 49.0624 80.4674 48.5137 79.431C47.2657 78.8034 46.1182 78.0969 45.0746 77.308C43.9593 77.2112 42.8225 77.4945 41.7969 78.1507C39.6775 79.5027 38.3613 82.1529 38.3613 85.0648C38.3613 89.6085 40.3516 95.0272 49.8262 95.0272C54.3699 95.0272 57.3787 92.9293 59.3044 90.2432C59.5053 90.7238 59.7563 91.19 60.0647 91.6382C61.7717 94.1091 64.7554 95.3607 68.9369 95.3607C73.1183 95.3607 75.9299 94.1127 77.6978 91.6562C77.9919 91.2474 78.2393 90.8206 78.4473 90.3831C78.7199 90.7632 79.0139 91.129 79.3439 91.4769C81.266 93.503 83.8373 94.5287 86.9896 94.5287C98.0313 94.5287 98.892 86.5854 98.892 84.1504C98.892 81.0232 97.9775 78.5201 96.3207 77.1072L96.3172 77.0964Z" fill="white" fill-opacity="0.9"/>
<path d="M68.5096 87.2023C70.2561 87.2023 71.5722 86.6931 72.4221 85.6926C73.0999 84.8929 73.3617 83.9138 73.4155 82.9814C72.8238 83.0245 72.2177 83.0603 71.6045 83.089C71.5471 83.609 71.3965 84.1326 71.0558 84.5342C70.5645 85.1152 69.7074 85.4093 68.5096 85.4093C67.2401 85.4093 66.3579 85.108 65.8953 84.5091C65.5869 84.1147 65.4686 83.6054 65.447 83.107C64.8374 83.0818 64.2385 83.0532 63.6504 83.0137C63.6647 83.878 63.8656 84.8211 64.4788 85.6101C65.3 86.6644 66.6592 87.2023 68.5096 87.2023Z" fill="white" fill-opacity="0.9"/>
<path d="M10.7901 24.8173C13.4618 24.8173 15.531 24.0068 16.9404 22.4074C18.841 20.2521 18.8123 17.376 18.755 16.4974C18.902 15.4682 19.2929 11.4302 16.9117 8.56126C15.3481 6.67853 13.0028 5.72461 9.93659 5.72461C4.07682 5.72461 0.845703 8.75849 0.845703 14.2668C0.845703 16.874 0.845693 24.8137 10.7865 24.8137L10.7901 24.8173ZM9.94018 8.95932C11.9915 8.95932 13.5012 9.51876 14.4229 10.6197C16.1478 12.6817 15.5525 16.1209 15.5453 16.1496L15.4987 16.397L15.531 16.648C15.531 16.6696 15.7713 18.8607 14.5233 20.2772C13.7523 21.1522 12.4971 21.5933 10.7937 21.5933C5.20288 21.5933 4.0804 18.7926 4.0804 14.274C4.0804 11.6453 4.77613 8.95932 9.94377 8.95932H9.94018Z" fill="white" fill-opacity="0.9"/>
<path d="M16.5889 76.6439C15.0791 74.9261 12.931 74.0547 10.2056 74.0547C3.33807 74.0547 0.845703 79.5379 0.845703 83.2245C0.845703 89.4751 4.09116 92.6417 10.4924 92.6417C13.2753 92.6417 15.4234 91.8205 16.8866 90.1995C18.78 88.0981 18.7872 85.3547 18.7514 84.5944C18.8374 83.6763 19.0813 79.4877 16.5853 76.6475L16.5889 76.6439ZM15.531 84.7163C15.531 84.7378 15.6959 86.7246 14.4767 88.055C13.6518 88.9552 12.3142 89.4142 10.496 89.4142C5.16701 89.4142 4.07681 86.9397 4.07681 83.2245C4.07681 81.019 5.36784 77.2822 10.2091 77.2822C11.9843 77.2822 13.2753 77.7664 14.1575 78.7669C15.9506 80.7967 15.5382 84.3218 15.5346 84.3541L15.5131 84.5406L15.5274 84.7163H15.531Z" fill="white" fill-opacity="0.9"/>
<path d="M4.3233 64.0501C5.11943 64.3119 5.83307 64.441 6.49651 64.441C7.55801 64.441 8.88132 64.0967 9.8962 62.716C10.8716 63.8528 12.0802 64.4696 13.4214 64.4696C14.1924 64.4696 14.9849 64.2652 15.7811 63.8636C19.4784 61.9916 18.1695 58.0504 17.6064 56.3649L14.906 48.2531L17.5239 40.1663C18.069 38.4916 19.3385 34.5683 15.6484 32.6748C14.8379 32.2588 14.031 32.0472 13.2528 32.0472C11.9224 32.0472 10.7318 32.6533 9.77067 33.7722C8.73786 32.3664 7.39664 32.0186 6.32079 32.0186C5.66811 32.0186 4.9724 32.1405 4.19062 32.3915C2.74181 32.8577 1.78432 33.5821 1.26792 34.6042C0.53634 36.0458 0.92363 37.6739 1.34321 38.9327L4.43806 48.2316L1.43286 57.5018C1.02763 58.7497 -0.202404 62.5511 4.31973 64.0429L4.3233 64.0501ZM13.2564 35.2855C13.5182 35.2855 13.8302 35.3752 14.1781 35.5545C14.9096 35.9275 15.3543 36.408 14.4578 39.1765L13.1883 43.089L11.3235 37.4874C11.7502 36.3614 12.4424 35.282 13.2528 35.282L13.2564 35.2855ZM4.40939 37.9214C3.99698 36.6841 4.07228 36.2323 4.15117 36.0709C4.25517 35.8665 4.63172 35.6477 5.18399 35.4684C5.63226 35.325 6.01597 35.2497 6.32438 35.2497C6.68658 35.2497 7.18147 35.2497 7.66201 36.6949L14.5474 57.3834C15.4691 60.1519 15.0351 60.6217 14.3251 60.9803C13.9844 61.1525 13.6832 61.2385 13.425 61.2385C12.4997 61.2385 11.718 59.8758 11.2948 58.6027L4.40939 37.9178V37.9214ZM4.5062 58.5059L6.15943 53.4064L8.0278 59.0259L7.7732 59.8041C7.31776 61.2063 6.84437 61.2134 6.5001 61.2134H6.49651C6.18451 61.2134 5.79363 61.1381 5.3346 60.9839C4.26234 60.6289 3.86069 60.4962 4.5062 58.5023V58.5059Z" fill="white" fill-opacity="0.9"/>
</svg>
