<svg width="90" height="77" viewBox="0 0 90 77" fill="none" xmlns="http://www.w3.org/2000/svg">
<path d="M83.4237 11.7079C80.9884 11.4441 77.5391 11.4764 72.3167 11.5262C69.8726 11.5496 67.1002 11.576 63.9 11.576C62.5373 11.576 61.2712 11.576 60.0931 11.5731C48.8191 11.5584 45.7917 11.5555 44.2649 13.0853C43.3095 14.0436 43.3154 15.2891 43.3212 16.7309V17.1178C43.3212 18.2519 43.7051 19.2015 44.4583 19.94C46.627 22.0647 51.5856 21.965 59.0909 21.8126C61.2126 21.7687 63.6187 21.7188 66.1536 21.7188C68.8527 21.7188 71.3994 21.7863 73.6472 21.8449C74.6436 21.8712 75.5932 21.8976 76.4987 21.9152C77.3105 21.9328 78.0754 21.9416 78.7934 21.9416C83.4999 21.9416 86.2958 21.5372 87.8695 19.9957C88.6754 19.2044 89.0857 18.1699 89.0857 16.9156C89.0857 13.1028 86.8233 12.0742 83.4237 11.7079ZM86.0203 18.1142C84.7689 19.3392 80.6543 19.3626 76.5456 19.2806C75.6459 19.263 74.6993 19.2366 73.7117 19.2102C71.4493 19.1516 68.885 19.0813 66.1507 19.0813C63.5893 19.0813 61.1687 19.1311 59.0352 19.1751C52.9424 19.3011 47.682 19.4066 46.3017 18.0556C46.1317 17.8885 45.9588 17.6482 45.9588 17.1178V16.7192C45.9559 15.9016 45.95 15.1279 46.1317 14.9462C46.8848 14.193 51.5738 14.196 60.0873 14.2077C61.2654 14.2077 62.5314 14.2106 63.8971 14.2106C67.109 14.2106 69.8872 14.1842 72.3402 14.1608C77.2841 14.1139 80.8565 14.0817 83.1395 14.3278C86.3133 14.6707 86.4481 15.3682 86.4481 16.9156C86.4481 17.6072 86.2225 17.9178 86.0232 18.1113L86.0203 18.1142Z" fill="white" fill-opacity="0.9"/>
<path d="M53.1402 0.002929C46.1156 0.002929 45.0664 3.90358 45.0664 6.22755C45.0664 10.7554 47.3962 11.2448 48.3956 11.2448C50.2594 11.2448 51.4639 9.67689 51.4639 7.25034C51.4639 6.37408 52.1555 5.74107 53.1109 5.74107C53.7 5.74107 54.3066 5.74107 54.3066 7.40273C54.3066 8.20279 53.4128 10.0549 52.5717 11.5232L52.4457 11.7459H52.7036C53.2311 11.7342 53.7908 11.7312 54.3858 11.7254H54.4737L54.5147 11.6492C55.221 10.3333 56.065 8.52809 56.065 7.3998C56.065 5.16374 55.0451 3.97977 53.1109 3.97977C51.1767 3.97977 49.7056 5.38354 49.7056 7.24741C49.7056 7.77199 49.6118 9.48346 48.3956 9.48346C47.0973 9.48346 46.8248 7.71044 46.8248 6.22462C46.8248 3.26177 48.9495 1.75837 53.1402 1.75837C57.0819 1.75837 58.6908 3.11817 58.6908 6.45614C58.6908 8.51636 57.9875 10.3392 57.3984 11.5027L57.29 11.7166H59.2506L59.2887 11.6316C59.8191 10.4388 60.4492 8.57498 60.4492 6.45614C60.4492 2.11297 58.0578 0 53.1402 0V0.002929Z" fill="white" fill-opacity="0.9"/>
<path d="M81.0375 0.00292969C76.1199 0.00292969 73.7285 2.11297 73.7285 6.45907C73.7285 8.5486 74.3439 10.389 74.8597 11.5642L74.8978 11.6521H74.9945C75.5572 11.6463 76.0935 11.6433 76.6093 11.6433H76.8438L76.7382 11.4323C76.1668 10.2865 75.484 8.49292 75.484 6.45907C75.484 3.12403 77.0929 1.7613 81.0345 1.7613C85.2253 1.7613 87.35 3.2647 87.35 6.22755C87.35 7.71338 87.0775 9.4864 85.7792 9.4864C84.5659 9.4864 84.4692 7.77492 84.4692 7.25034C84.4692 5.38647 83.0068 3.9827 81.0638 3.9827C79.1208 3.9827 78.1098 5.16374 78.1098 7.40273C78.1098 8.51636 78.9362 10.2923 79.6278 11.5876L79.6689 11.6638H79.7539C80.3898 11.6785 80.9466 11.6931 81.4536 11.7166L81.7203 11.7283L81.5884 11.4968C80.7561 10.0374 79.8682 8.19692 79.8682 7.40273C79.8682 5.74107 80.4748 5.74107 81.0638 5.74107C82.0192 5.74107 82.7108 6.37701 82.7108 7.25034C82.7108 9.67689 83.9153 11.2448 85.7792 11.2448C86.7815 11.2448 89.1084 10.7554 89.1084 6.22755C89.1084 3.90358 88.0592 0.00292969 81.0345 0.00292969L81.0375 0.00292969Z" fill="white" fill-opacity="0.9"/>
<path d="M67.3634 0.00292969C65.2621 0.00292969 60.8867 0.00292969 60.8867 5.77917C60.8867 9.07025 62.1938 11.0689 64.7698 11.7166C65.6783 11.9452 66.5135 11.9452 67.0117 11.9452C67.5099 11.9452 67.9935 11.8631 68.518 11.699C70.7043 11.0191 73.0605 8.95009 73.0605 6.01362C73.0605 2.30639 70.8772 0.00292969 67.3604 0.00292969L67.3634 0.00292969ZM67.3634 1.7613C69.869 1.7613 71.305 3.31159 71.305 6.01362C71.305 8.71565 68.4711 10.1897 67.0146 10.1897C64.3917 10.1897 62.6451 9.43951 62.6451 5.7821C62.6451 2.365 64.1661 1.76423 67.3634 1.76423V1.7613Z" fill="white" fill-opacity="0.9"/>
<path d="M42.4367 3.7924C41.2293 2.45897 36.7748 -1.31566 28.9969 4.49868C27.898 3.71327 26.0722 3.10664 23.0683 3.55502C19.7772 4.04443 17.081 5.64748 15.0531 8.32313C12.7262 11.3885 11.6125 15.3947 10.7158 18.6154C10.0827 20.8955 9.48197 23.0465 8.71414 23.8524C5.69268 27.0175 -1.03015 37.641 1.01249 43.9506C1.87995 46.6233 3.86691 46.3742 5.46703 46.1749C6.03264 46.1046 6.67444 46.0255 7.38658 46.0196C7.47156 46.1017 7.60637 46.2863 7.70015 46.4123C8.15147 47.0248 8.93687 48.0916 10.5311 48.0916C10.7802 48.0916 11.0498 48.0652 11.337 48.0066C13.5672 47.5611 15.2201 45.2635 15.8092 43.3205C16.3748 41.4537 16.0817 39.7628 15.0003 38.6784C13.6581 37.3333 11.4162 37.1223 8.33023 38.0483C7.63275 38.2593 7.23712 38.992 7.44813 39.6924C7.6562 40.3899 8.39178 40.7855 9.08926 40.5745C11.0528 39.9855 12.565 39.9708 13.1306 40.5423C13.4969 40.9086 13.5526 41.6618 13.283 42.5556C12.861 43.9477 11.7532 45.2342 10.8183 45.4218C10.3348 45.5185 10.2703 45.454 9.82192 44.8474C9.41749 44.2993 8.74052 43.3821 7.45398 43.3821C6.54842 43.3821 5.76888 43.4788 5.14173 43.5579C4.65231 43.6194 3.9138 43.7103 3.76141 43.6224C3.76141 43.6224 3.65298 43.5344 3.52403 43.1359C2.04407 38.5671 7.35435 29.0982 10.6249 25.6724C11.8499 24.3888 12.4712 22.1527 13.2595 19.3217C14.1387 16.1625 15.1351 12.5813 17.1572 9.91738C18.7779 7.78096 20.8381 6.55304 23.4581 6.16327C25.5241 5.85555 27.0569 6.12517 27.7778 6.91643C28.3756 7.57289 28.2467 8.41691 28.1646 8.74807C28.0034 9.40159 27.1594 9.98772 26.3887 9.98772H26.3711C25.6121 9.97892 25.1021 9.41332 24.853 8.30554C24.6919 7.59634 23.9885 7.15088 23.2764 7.30914C22.5672 7.47032 22.1188 8.17367 22.28 8.88581C22.8016 11.2069 24.3226 12.6018 26.3447 12.6253C26.3594 12.6253 26.374 12.6253 26.3887 12.6253C28.3727 12.6253 30.2718 11.2098 30.7231 9.38401C30.9604 8.42863 30.9077 7.4586 30.597 6.597C34.7175 3.53157 38.2928 3.14473 40.4791 5.56249C42.6829 7.99783 42.8148 12.4465 40.7487 14.5448C40.2388 15.0635 40.2446 15.8988 40.7633 16.4087C41.0212 16.6607 41.3553 16.7867 41.6894 16.7867C42.0235 16.7867 42.3722 16.6549 42.6301 16.394C45.6868 13.2905 45.593 7.28276 42.4367 3.7924Z" fill="white" fill-opacity="0.9"/>
<path d="M29.2412 55.1454C27.77 56.7954 23.081 61.0477 19.1335 60.8982C17.3282 60.8308 14.4269 59.5765 11.174 57.4518C7.86822 55.2949 5.42409 53.0764 4.88485 52.3526C4.84969 50.2249 5.89298 47.3529 6.40877 46.0635C6.07468 46.0928 5.76111 46.1309 5.46804 46.169C4.84675 46.2452 4.16978 46.3302 3.51919 46.2481C2.90083 47.9889 2.15059 50.5796 2.25609 52.6925C2.26489 53.2581 2.50227 53.9556 4.74712 55.9191C6.18312 57.1734 7.9532 58.5039 9.73208 59.6645C12.3462 61.3701 16.0827 63.4274 19.0339 63.5358C19.1335 63.5387 19.2331 63.5417 19.3328 63.5417C25.2175 63.5417 30.9615 57.1793 31.2076 56.9038C31.6912 56.3587 31.6443 55.5264 31.1021 55.0429C30.557 54.5564 29.7247 54.6062 29.2412 55.1484V55.1454Z" fill="white" fill-opacity="0.9"/>
<path d="M12.4283 61.2795C10.4824 61.5373 8.88814 61.5872 7.51954 61.6282C4.9113 61.7044 3.09138 61.7571 1.47075 63.2576C1.45024 63.0525 1.48834 62.8415 1.50006 62.7741C1.77554 61.3732 3.57493 59.1518 7.24113 59.1518C7.90052 59.1518 8.58335 59.231 9.29256 59.3716C8.4925 58.8353 7.70124 58.2726 6.94515 57.6982C3.06208 57.8184 0.509514 60.2215 0.0640608 62.4927C-0.170388 63.6943 0.248693 64.6702 1.15718 65.0394L1.65246 65.2416L1.99533 64.8343C3.35221 63.2195 4.76184 63.1785 7.56643 63.0964C9.43323 63.0408 11.7045 62.9734 14.7201 62.4019C13.9464 62.0707 13.1756 61.6868 12.4342 61.2853L12.4283 61.2795Z" fill="white" fill-opacity="0.9"/>
<path d="M30.5157 49.2487C28.7925 49.2487 27.6261 50.1074 26.3923 51.0159C24.8185 52.1764 23.0338 53.4893 19.4291 53.4893C16.396 53.4893 14.8603 51.7691 14.1072 50.3243C13.4683 49.0993 13.2778 47.886 13.2778 47.0801C12.8441 47.4171 12.3664 47.6838 11.8535 47.8567C11.9385 48.6392 12.1466 49.489 12.4807 50.3008C13.2016 52.0387 15.0596 54.9546 19.4291 54.9546C23.5144 54.9546 25.5922 53.4249 27.2597 52.194C28.3822 51.3676 29.2701 50.714 30.5127 50.714C33.9855 50.714 35.2193 53.6564 35.2193 56.1738C35.2193 61.0034 29.9002 64.1187 29.8475 64.148C29.4958 64.3502 29.3757 64.7956 29.5749 65.1473C29.7097 65.3847 29.9559 65.5166 30.2109 65.5166C30.334 65.5166 30.46 65.4843 30.5743 65.4199C30.8234 65.2763 36.6846 61.8592 36.6846 56.1738C36.6846 52.0328 34.2053 49.2487 30.5127 49.2487H30.5157Z" fill="white" fill-opacity="0.9"/>
<path d="M27.4939 30.2178C26.0257 30.2178 24.7567 30.9241 24.0094 32.1549C23.3119 33.3037 23.1742 34.7163 23.6694 35.6716C23.857 36.0292 24.2995 36.1699 24.6571 35.9823C25.0146 35.7947 25.1553 35.3522 24.9677 34.9947C24.7479 34.5697 24.7977 33.6759 25.2578 32.9169C25.5978 32.3542 26.263 31.686 27.488 31.686C29.4662 31.686 30.3893 32.6414 30.3893 34.6928C30.3893 35.5808 30.2135 38.6404 27.9599 40.7357C26.2601 42.3183 23.7339 42.9982 20.4516 42.7608C19.3409 42.6787 17.4009 42.1776 16.0733 41.1578C16.1114 41.6853 16.0674 42.2479 15.9355 42.8311C17.5064 43.7631 19.3409 44.1499 20.3461 44.2232C20.8092 44.2554 21.2575 44.273 21.6942 44.273C24.7596 44.273 27.1979 43.4466 28.9592 41.8113C31.6466 39.3115 31.8546 35.7332 31.8546 34.6958C31.8546 31.8531 30.2633 30.2236 27.488 30.2236L27.4939 30.2178Z" fill="white" fill-opacity="0.9"/>
<path d="M4.94912 14.1049C5.14547 14.1049 5.33302 14.0931 5.51472 14.0668C3.46622 15.8603 1.45875 18.3044 2.02436 21.6864C2.4112 23.9986 3.39002 25.5079 4.94325 26.1702C5.48248 26.4017 6.03637 26.4984 6.58439 26.5131C7.37566 25.3936 8.12004 24.4734 8.71788 23.8462C8.89665 23.6587 9.06662 23.3949 9.23074 23.0726C8.53618 23.4711 6.98589 24.1745 5.98069 23.7466C5.30958 23.4594 4.85533 22.6212 4.62675 21.2556C4.15199 18.407 6.68697 16.4376 8.92303 14.6998C10.5847 13.4074 11.9005 12.3875 11.9914 10.9486C12.0207 10.4621 11.9093 9.7324 11.203 9.02319C10.6902 8.51033 10.1422 8.41362 9.76997 8.41069C8.78821 8.42241 8.11124 9.13162 7.3991 9.88186C6.65766 10.6614 5.88984 11.4644 4.95204 11.4644C3.72118 11.4644 3.50432 10.3478 3.47208 9.88186C3.47208 9.84962 3.47208 9.85841 3.46915 9.82618C3.46622 9.77636 3.37537 8.57187 4.25749 7.61356C5.07806 6.71973 6.51113 6.26548 8.51567 6.26548C11.7892 6.26548 13.1724 7.34981 13.7058 7.99747C14.0926 8.46637 14.2802 8.98802 14.2479 9.49502C14.5 9.09059 14.7696 8.69789 15.0568 8.31691C15.4173 7.84215 15.8012 7.39963 16.2027 6.99227C16.0649 6.76075 15.9125 6.53217 15.7367 6.31823C14.3036 4.58331 11.7393 3.63086 8.51273 3.63086C5.70814 3.63086 3.60689 4.38696 2.2676 5.87864C0.702649 7.61942 0.802288 9.67672 0.837456 10.0577C0.940027 11.6959 2.11228 14.1049 4.95204 14.1049H4.94912Z" fill="white" fill-opacity="0.9"/>
<path d="M72.9604 57.5162C72.8637 57.5162 72.7641 57.4928 72.6761 57.44C72.3948 57.2817 72.2922 56.9242 72.4505 56.6429C72.471 56.6077 74.3964 53.0998 72.5941 51.6462C71.712 50.934 70.9764 51.4703 69.8715 52.4404C69.1242 53.0939 68.3535 53.7709 67.5036 53.4192C66.686 53.0822 66.6303 52.0565 66.5629 50.8666C66.4545 48.9061 66.261 47.6224 64.6551 47.6224C63.0491 47.6224 62.6564 49.0409 62.3428 51.0483C62.1523 52.2616 61.9882 53.3078 61.1676 53.6243C60.3002 53.9614 59.4474 53.2082 58.5447 52.4111C57.1205 51.1538 56.1094 50.3919 55.0426 51.2037C54.6148 51.5289 54.3745 51.9392 54.31 52.4521C54.14 53.8265 55.2917 55.6142 55.7489 56.1857C55.9511 56.4377 55.9101 56.807 55.6581 57.0092C55.406 57.2114 55.0368 57.1704 54.8346 56.9184C54.7554 56.8187 52.8828 54.4478 53.1465 52.3085C53.2491 51.4762 53.6477 50.7904 54.3334 50.2717C56.2471 48.8181 58.0963 50.4534 59.3213 51.5319C59.717 51.8836 60.5463 52.6133 60.7456 52.5312C60.9449 52.4169 61.0973 51.444 61.1881 50.8637C61.4636 49.1053 61.8827 46.4502 64.658 46.4502C67.4333 46.4502 67.6472 49.1727 67.7351 50.8022C67.7674 51.356 67.8113 52.1942 67.9696 52.3466C68.1308 52.4111 68.7608 51.8542 69.1008 51.5583C70.1031 50.6791 71.6211 49.3515 73.3326 50.7348C75.9027 52.8096 73.5758 57.0385 73.4762 57.2173C73.3678 57.4078 73.1714 57.5162 72.9633 57.5162H72.9604Z" fill="white" fill-opacity="0.9"/>
<path d="M87.2579 48.1445C86.5282 48.1445 85.9392 48.7336 85.9392 49.4633C85.9392 58.7768 85.4673 64.5179 83.1551 68.0434C83.3983 67.6976 83.5976 67.3547 83.7471 67.0148L83.3954 70.1036C81.8715 72.4657 78.6243 74.2475 74.4863 74.989C73.1939 75.2205 71.9132 75.3318 70.7088 75.3318C68.1796 75.3318 65.9934 74.8395 64.7684 73.9193C64.7186 73.8812 64.6658 73.8402 64.616 73.7991C63.1976 73.8548 61.6854 73.8958 60.0794 73.9222C58.7753 75.3992 57.0902 76.1495 55.0681 76.1495C54.9479 76.1495 54.8248 76.1495 54.6988 76.1407C53.3273 76.0821 52.2371 75.5047 51.4634 74.4292C51.3638 74.2885 51.27 74.142 51.1821 73.9896C49.6435 73.9896 48.0434 73.9896 46.37 73.9896H44.0578C14.7253 73.9896 9.40911 69.1336 8.48596 67.0441C7.96138 65.8601 8.47424 64.7465 8.85229 64.1545C9.0164 63.8966 9.45307 63.246 9.69924 63.0057C8.92849 63.0496 8.21928 63.0702 7.55989 63.0907C7.14081 63.1024 6.7569 63.1141 6.39643 63.1317C5.77514 64.26 5.18316 66.0623 6.05356 68.0756C8.51527 73.7493 21.3015 76.6272 44.0548 76.6272H46.3671C47.0909 76.6272 47.8031 76.6272 48.5035 76.6272C65.9436 76.6272 75.7289 76.5041 81.3908 73.2277C87.5363 69.6699 88.5738 63.0233 88.5738 49.4633C88.5738 48.7336 87.9818 48.1445 87.255 48.1445H87.2579Z" fill="white" fill-opacity="0.9"/>
<path d="M42.6351 16.3912C42.3772 16.652 42.0373 16.7839 41.6944 16.7839C41.3515 16.7839 41.0262 16.6578 40.7683 16.4058C40.3522 15.9955 40.2701 15.3772 40.5192 14.879C40.1617 14.7852 39.7836 14.7324 39.3792 14.7324C36.5863 14.7324 35.0009 16.3999 34.9159 19.4243C34.9042 19.8288 35.2236 20.1658 35.628 20.1775C36.0412 20.1834 36.3695 19.8698 36.3812 19.4654C36.4632 16.5347 38.1308 16.1977 39.3792 16.1977C41.9259 16.1977 43.2593 19.4302 43.2593 22.6216C43.2593 25.8131 42.4476 28.2338 40.8445 29.4441C39.344 30.5753 37.0963 30.7541 34.1627 29.9804C33.5414 28.307 30.728 21.8919 24.2191 21.8919C24.184 21.8919 24.1547 21.8978 24.1195 21.9007C24.0873 21.8978 24.055 21.8919 24.0199 21.8919H24.0111C20.8812 21.93 18.3286 22.6011 16.3768 23.8818C15.7497 23.9814 15.2632 23.8584 14.8529 23.492C13.8477 22.5923 13.5107 20.4647 13.4345 18.6829C13.3759 18.8968 13.3143 19.1078 13.2557 19.3188C12.9773 20.3152 12.7223 21.2355 12.4498 22.0707C12.7399 23.0642 13.1883 23.9726 13.8711 24.5851C14.1554 24.8401 14.4719 25.0335 14.8119 25.1654C14.513 25.4731 14.2345 25.8014 13.9796 26.153C11.301 29.8222 11.7289 34.8394 12.2241 37.5062C12.8073 37.5531 13.3348 37.6733 13.7979 37.8726C13.3319 35.6863 12.6051 30.5167 15.1665 27.0146C16.9014 24.6408 19.8818 23.4129 24.0257 23.3601C24.055 23.3601 24.0843 23.3543 24.1136 23.3514C24.1459 23.3543 24.1781 23.3601 24.2133 23.3601C30.4584 23.3601 32.8703 30.7336 32.8938 30.8098C32.967 31.0442 33.1546 31.2259 33.392 31.2933C34.8573 31.7124 36.1907 31.9205 37.3923 31.9205C39.1213 31.9205 40.569 31.4867 41.7208 30.6163C43.7106 29.1159 44.7188 26.4285 44.7188 22.6246C44.7188 20.2801 44.0799 17.8242 42.7289 16.2886C42.6967 16.3237 42.6644 16.3618 42.6293 16.3941L42.6351 16.3912Z" fill="white" fill-opacity="0.9"/>
<path d="M88.656 29.4994C86.4639 24.4441 81.7749 21.1823 74.7239 19.8049C72.183 19.3067 69.2993 19.0547 66.1518 19.0547C55.6866 19.0547 48.2575 21.9032 44.0726 27.5183C40.3654 32.4916 39.9375 38.64 39.9375 42.8337C39.9375 49.6415 41.6138 54.1693 45.2126 57.0853C48.9081 60.0774 54.7898 61.4724 63.7165 61.4724C77.7512 61.4724 85.3356 57.8882 88.3014 49.8496C89.3066 47.1241 89.796 43.8565 89.796 39.8591C89.796 39.7771 89.8224 39.5133 89.8429 39.2788C90.01 37.5586 90.4056 33.5348 88.6531 29.4994H88.656ZM63.7165 58.8348C45.9452 58.8348 42.5751 53.211 42.5751 42.8337C42.5751 39.0151 42.9502 33.4381 46.1856 29.095C49.8459 24.1833 56.5629 21.6922 66.1518 21.6922C69.1293 21.6922 71.8431 21.9267 74.2169 22.3927C88.5681 25.2002 87.5512 35.6039 87.2171 39.021C87.1819 39.3844 87.1555 39.6452 87.1555 39.8562C87.1555 43.537 86.7189 46.5057 85.825 48.9323C83.2637 55.872 76.6522 58.8319 63.7136 58.8319L63.7165 58.8348Z" fill="white" fill-opacity="0.9"/>
<path d="M51.4226 29.4616C48.0201 32.5241 46.1445 36.7911 46.1445 41.4742C46.1445 49.3107 47.7622 53.9352 49.1982 56.5024C49.9221 56.8511 50.7221 57.1618 51.6013 57.4314C50.3236 55.8899 47.6098 51.4383 47.6098 41.4742C47.6098 34.1946 52.8234 25.6928 67.5204 25.6928C81.1654 25.6928 83.2021 35.3287 83.2021 41.0727C83.2021 50.2573 77.2442 55.3917 74.381 57.8593C74.381 57.8593 74.3751 57.8622 74.3722 57.8651C75.5357 57.6043 76.6083 57.2907 77.5929 56.9215C80.6701 53.9029 84.6645 48.7773 84.6645 41.0727C84.6645 38.0688 84.1341 33.752 81.605 30.247C78.7242 26.2526 73.9854 24.2275 67.5175 24.2275C61.0496 24.2275 55.2236 26.0387 51.4196 29.4645L51.4226 29.4616Z" fill="white" fill-opacity="0.9"/>
<path d="M73.3514 26.4133C72.9763 27.6354 71.9975 30.0473 70.6025 30.8268C70.1219 31.0964 69.6325 31.1463 69.1079 30.9851C68.554 30.8151 68.1994 30.5103 68.0236 30.0619C67.5254 28.7783 68.513 26.5774 68.9907 25.7334C68.5687 25.71 68.1379 25.6982 67.6924 25.6953C67.4638 26.1642 67.1708 26.8441 66.9656 27.5943L66.9568 27.609C65.5941 30.015 64.2871 31.9258 62.0803 30.9118C61.7023 30.7389 61.4913 30.4986 61.4209 30.1616C61.1835 29.0597 62.4232 27.0815 63.361 25.9444C62.7895 26.0177 62.2356 26.1056 61.6993 26.2052C60.9139 27.3482 59.9849 29.0479 60.275 30.4048C60.4245 31.1052 60.8788 31.6474 61.5909 31.9756C62.1917 32.2511 62.7456 32.3713 63.2555 32.3713C64.7911 32.3713 65.937 31.284 66.8074 30.0737C66.8396 30.2143 66.8807 30.3491 66.9305 30.481C67.2353 31.2664 67.8683 31.8262 68.7621 32.1016C69.0757 32.1983 69.3863 32.2482 69.6911 32.2482C70.1981 32.2482 70.6934 32.1134 71.1711 31.8496C73.0672 30.7916 74.131 27.8552 74.468 26.765C74.1105 26.636 73.7383 26.5188 73.3514 26.4133Z" fill="white" fill-opacity="0.9"/>
<path d="M47.6514 43.4489C48.4954 44.2959 49.8288 45.0285 51.9154 45.0285C56.6513 45.0285 57.6887 41.6964 57.6887 40.4157C57.6887 39.3637 57.34 38.5402 56.6542 37.9658C55.2534 36.7994 52.9646 37.2009 52.8679 37.2184C52.5485 37.2771 52.3404 37.5818 52.396 37.8983C52.4547 38.2178 52.7565 38.4259 53.0759 38.3702C53.0935 38.3672 54.931 38.0507 55.904 38.8655C56.3143 39.2083 56.5136 39.7153 56.5136 40.4128C56.5136 40.448 56.4608 43.8534 51.9125 43.8534C49.0933 43.8534 48.006 42.2855 47.6133 41.3623C47.6133 41.3975 47.6133 41.4327 47.6133 41.4678C47.6133 42.1536 47.6279 42.8101 47.6514 43.446V43.4489Z" fill="white" fill-opacity="0.9"/>
<path d="M77.5426 41.8928C74.8113 41.8928 73.7475 41.1543 73.7475 39.2552C73.7475 37.0924 76.6312 36.9752 76.7542 36.9723C77.0766 36.9635 77.3316 36.6939 77.3228 36.3715C77.314 36.0491 77.0444 35.7942 76.722 35.803C75.2889 35.844 72.5781 36.6177 72.5781 39.2582C72.5781 43.0679 76.1857 43.0679 77.5455 43.0679C79.4944 43.0679 81.8125 41.4356 83.1958 40.2985C83.1811 39.8296 83.1518 39.3431 83.102 38.842C81.6367 40.1754 79.1955 41.8957 77.5455 41.8957L77.5426 41.8928Z" fill="white" fill-opacity="0.9"/>
<path d="M84.5686 38.8516C84.5569 38.9864 84.5042 39.1153 84.4016 39.2179C84.3869 39.2325 83.921 39.6956 83.1913 40.2964C83.2 40.5601 83.203 40.8209 83.203 41.07C83.203 50.2546 77.245 55.389 74.3818 57.8566C74.3818 57.8566 74.376 57.8595 74.373 57.8625C75.5365 57.6016 76.6091 57.2881 77.5938 56.9188C80.6709 53.9003 84.6654 48.7746 84.6654 41.07C84.6654 40.3901 84.636 39.6428 84.5657 38.8516H84.5686Z" fill="white" fill-opacity="0.9"/>
<path d="M44.1651 69.1918C44.1974 69.2006 44.2296 69.2035 44.2619 69.2035C44.4641 69.2035 44.6428 69.0658 44.6897 68.8607C44.7073 68.7845 46.2576 62.0763 48.2827 58.9757C48.013 58.8497 47.7493 58.7207 47.4914 58.583C45.396 61.877 43.9014 68.3507 43.8311 68.6643C43.7783 68.9017 43.9248 69.1361 44.1622 69.1918H44.1651Z" fill="white" fill-opacity="0.9"/>
<path d="M55.1631 71.1087C55.1103 71.3461 55.2569 71.5805 55.4942 71.6333C55.5265 71.642 55.5587 71.645 55.591 71.645C55.7932 71.645 55.9719 71.5072 56.0188 71.3021C56.0569 71.1263 56.9303 67.1934 56.5698 61.0977C56.2679 61.0625 55.9719 61.0244 55.6818 60.9863C56.0569 67.0527 55.1719 71.0647 55.1631 71.1087Z" fill="white" fill-opacity="0.9"/>
<path d="M64.0534 61.6571C63.5171 62.1817 63.0892 62.8118 62.761 63.5386C62.7229 62.8323 62.6525 62.1377 62.5558 61.4608C62.0518 61.4549 61.5535 61.4403 61.07 61.4256C61.662 65.3175 61.2956 70.2321 59.0625 72.8609C57.9753 74.1415 56.5305 74.7511 54.7633 74.6749C53.849 74.6339 53.1603 74.2734 52.6533 73.5701C51.3814 71.8029 51.4517 68.2188 51.8942 64.9804C52.2518 63.6148 52.5448 62.2344 52.8203 60.942C52.8526 60.7897 52.8848 60.6402 52.917 60.4907C52.3749 60.3706 51.8503 60.2387 51.3462 60.0951C51.0942 61.1091 50.7191 62.7825 50.4524 64.6786C49.582 67.9609 48.3101 71.1992 46.0799 72.4594C44.8051 73.1803 43.2987 73.2243 41.4788 72.5971C40.2275 72.1634 39.4714 71.4336 39.1695 70.364C38.1555 66.7652 42.4401 60.1185 44.934 56.8421C44.5589 56.5198 44.2043 56.1827 43.8732 55.8223C41.851 58.4627 36.447 66.0999 37.757 70.7596C38.1907 72.304 39.2809 73.3884 40.9982 73.9833C41.9946 74.3262 42.9383 74.4991 43.8263 74.4991C44.9047 74.4991 45.8982 74.2441 46.7979 73.7371C48.2515 72.9165 49.33 71.5216 50.1652 69.8453C50.2648 71.6329 50.6341 73.277 51.4605 74.4258C52.2371 75.5013 53.3244 76.0787 54.6959 76.1373C54.819 76.1431 54.9421 76.1461 55.0652 76.1461C57.14 76.1461 58.8574 75.3607 60.1762 73.8074C61.1052 72.7114 61.7528 71.3047 62.1719 69.7573C62.5998 71.9377 63.687 73.0836 64.7626 73.9159C65.9876 74.8361 68.1738 75.3284 70.7029 75.3284C71.9074 75.3284 73.1881 75.2171 74.4805 74.9856C78.6214 74.2441 81.8686 72.4623 83.3895 70.1002L83.7412 67.0114C82.528 69.7749 77.965 72.8726 74.2226 73.5437C70.7059 74.1738 67.0983 73.8367 65.6505 72.7495C64.5838 71.926 63.4438 70.7831 63.4438 67.6502C63.4438 65.423 63.9918 63.7584 65.0703 62.6975C66.0315 61.7538 67.277 61.4285 68.2734 61.3201C66.9986 61.4051 65.6593 61.452 64.2556 61.4608C64.1852 61.5223 64.112 61.5839 64.0416 61.6513L64.0534 61.6571Z" fill="white" fill-opacity="0.9"/>
<path d="M78.1084 67.1086C77.1061 68.1343 75.9163 68.6354 74.4686 68.6354C71.1218 68.6354 70.6676 67.4544 70.6265 66.1796C70.7115 66.162 70.8082 66.1415 70.8903 66.1268C71.749 65.9656 73.5366 65.6316 73.5366 62.9383C73.5366 62.0621 73.2758 61.3529 72.7805 60.8341C71.5672 61.0305 70.2807 61.18 68.918 61.2855C69.214 61.2737 69.4689 61.2796 69.6536 61.2855C69.7356 61.2855 69.806 61.2855 69.8616 61.2855C72.0713 61.2855 72.0713 62.4431 72.0713 62.9383C72.0713 64.4154 71.4617 64.5296 70.6207 64.6879C70.1078 64.7846 69.1583 64.9605 69.1583 65.9481C69.1583 68.782 70.8463 70.1037 74.4686 70.1037C76.306 70.1037 77.8827 69.4414 79.1575 68.1372C82.0471 65.1773 82.5922 59.6619 82.6889 57.2207C82.2054 57.5548 81.6984 57.8713 81.1621 58.1644C80.9657 60.6935 80.3093 64.8637 78.1113 67.1144L78.1084 67.1086Z" fill="white" fill-opacity="0.9"/>
</svg>
