<svg width="90" height="90" viewBox="0 0 90 90" fill="none" xmlns="http://www.w3.org/2000/svg">
<path d="M82.7478 62.3243C82.512 62.6006 80.8613 64.0963 81.0297 64.3254C85.0251 66.1715 86.157 71.8783 85.6989 75.867C85.2407 79.8556 82.5659 83.6489 79.096 85.5961C75.0669 87.8465 66.8672 89.4635 62.5551 87.7387C60.9583 87.0986 59.7388 86.0475 58.3104 85.1918C56.9696 86.4046 55.4739 87.2064 53.7423 87.7319C48.1905 89.4163 41.7358 89.5578 36.211 87.7319C34.5468 87.1862 33.1049 86.3305 31.7978 85.1851C29.1836 87.1996 26.4751 88.6482 23.0591 88.5943C19.1446 88.527 13.5793 87.2872 10.224 85.2592C3.7491 81.3514 2.35441 71.4673 7.13812 65.7066L9.40197 63.9279C9.32112 63.7594 8.0477 62.9038 7.78494 62.6342C1.43809 55.9977 1.06752 51.0253 0.508297 42.2597C-0.327169 29.2762 -1.47257 16.0301 9.24026 6.67824C17.2446 -0.308682 28.9007 0.358343 38.906 0.122526C48.1905 -0.0998157 57.9331 -0.0930782 67.2108 0.776076C73.4701 1.36225 79.0691 3.93602 83.6237 8.29527C89.7752 14.1772 89.6067 21.8379 89.9301 29.8018C90.1929 36.3575 89.6943 42.3809 88.778 48.8625C87.9425 54.7647 86.5343 57.8236 82.7545 62.3243H82.7478ZM11.1133 60.02C16.2609 64.7162 28.6446 66.6701 35.5035 66.9194C47.4965 67.3506 64.691 67.6336 75.5924 62.3647C83.0443 58.7601 84.9173 49.9338 85.8606 42.3944C86.7836 35.0504 87.2283 23.94 84.668 16.9531C83.0173 12.4659 75.3297 6.76583 70.93 5.14206C67.1098 3.7339 61.5984 3.97645 57.5019 3.85517C48.3185 3.5924 39.0273 3.49134 29.8574 4.01014C26.0843 4.219 23.4432 4.09099 19.8049 5.43852C14.1385 7.54066 8.297 12.2098 5.72996 17.7212C2.67108 24.2769 3.3381 35.2593 4.24768 42.3944C5.04272 48.6402 6.27571 55.6002 11.1201 60.02H11.1133ZM28.3145 68.8531V74.4318C28.3145 75.4088 27.5262 77.7333 26.9872 78.6024C24.09 83.3188 12.2587 82.3418 12.9527 75.0787C13.1885 72.5992 14.8729 70.5577 17.5478 70.962C20.2226 71.3662 18.4776 73.3067 18.6325 73.9063C18.929 75.0989 20.4921 73.6705 20.8492 73.1045C21.8194 71.5818 21.3478 68.7385 19.8925 67.647C17.7701 66.057 14.5226 66.0974 12.1105 66.9531C10.4261 67.5527 9.47608 68.6307 8.82927 70.3017C4.90797 80.5024 14.5832 84.7808 23.0457 85.0234C25.0804 85.084 27.8024 83.9319 29.0287 82.2542C30.4032 80.3744 30.8007 76.5677 30.9017 74.2634C30.9759 72.5184 30.8411 70.7531 30.8883 69.008L28.3078 68.8396L28.3145 68.8531ZM61.787 74.2701C61.6321 72.5723 61.9016 70.6588 61.787 68.9339C61.787 68.5162 59.3884 68.624 59.22 69.1158C59.22 70.6183 59.1391 72.1276 59.193 73.6301C59.3615 78.4003 59.7388 83.4064 65.1828 84.7808C67.6488 85.4007 73.652 84.2823 76.0169 83.1638C78.2201 82.1195 81.6361 79.0471 81.9864 76.5205C82.384 73.6705 81.4879 68.4758 78.6042 67.1552C75.9293 65.9289 71.5499 65.7875 69.542 68.2804C68.1069 70.0591 68.5045 74.7081 71.6509 74.1893C71.9743 73.8794 70.2091 72.8013 71.3275 71.5212C72.2101 70.5105 74.5953 70.7733 75.5722 71.602C77.0747 72.8754 77.3577 74.9574 77.1084 76.817C76.374 82.2677 65.459 82.7798 63.047 78.5081C62.4945 77.5311 61.8881 75.3886 61.787 74.2701ZM66.7998 68.0446C62.9526 68.7049 63.5388 71.7839 64.2328 74.735C64.4956 75.8467 64.8257 77.3694 65.7757 78.0432C68.1474 79.7209 72.4999 79.8624 74.5077 77.5311C75.6935 76.1499 74.8715 71.8176 72.4662 72.579C72.6279 73.8659 74.1102 74.7485 72.4123 75.84C70.3101 77.1943 67.3658 75.4155 66.6449 73.2864C66.0452 71.5144 66.0856 69.7761 66.7998 68.0446ZM23.3017 68.2063C24.7031 71.2921 23.3691 76.1095 19.5084 76.2982C17.0492 76.4127 16.4091 74.7687 17.6421 72.8148C15.6545 71.7098 14.819 75.0854 15.0683 76.5272C15.3176 77.9691 17.7903 79.128 19.057 79.3234C20.7279 79.5861 24.117 78.8585 25.0602 77.3155C25.7744 76.1432 26.5829 71.9052 26.3673 70.5577C26.1517 69.2102 24.629 68.1861 23.3017 68.2063ZM37.5316 69.6616C36.8982 69.5403 34.0145 69.0619 33.6844 69.5336C33.462 70.5914 33.2262 71.7233 33.1588 72.8081C33.0174 75.146 33.1386 80.462 34.4862 82.3283C37.1677 86.0408 46.8025 85.6298 50.8519 84.8415C56.1072 83.8173 56.7406 81.1088 56.9427 76.2173C57.037 73.8996 56.8686 71.6155 56.4508 69.3382L52.7586 69.5201C52.3611 70.2276 52.698 71.09 52.6441 71.784C52.4487 74.068 51.62 76.6687 49.4841 77.8074C46.0277 79.6535 40.1862 79.2627 38.3872 75.3549C38.2525 75.0584 37.5383 72.9832 37.5383 72.8081V69.6549L37.5316 69.6616ZM42.2007 70.0052C41.372 69.7694 40.4355 69.4325 39.627 69.9244C39.6539 72.7407 40.011 75.2538 42.9486 76.2982C45.0575 77.0528 48.4735 76.4666 49.6324 74.4049C50.3533 73.1247 50.7238 71.1439 50.3196 69.7357C50.077 69.5673 48.305 69.6144 48.0827 69.8637C47.6987 70.7261 48.0962 71.7233 47.6245 72.5588C46.6813 74.2364 44.1479 74.5733 42.8678 73.0978C42.0525 72.1545 42.2344 71.1641 42.2007 70.012V70.0052ZM46.0547 72.3634C46.4926 72.0063 47.0114 70.2882 46.6745 69.8098L45.7784 69.6683C45.8323 71.6829 44.4848 71.9996 44.4781 69.8233L43.5078 69.8233C43.4405 70.5307 43.2518 71.474 43.7504 72.0804C44.1749 72.5925 45.5359 72.7744 46.0479 72.3634H46.0547Z" fill="white" fill-opacity="0.9"/>
<path d="M70.7489 54.3672C66.4098 57.4126 56.9839 59.818 51.6814 60.1212C42.0331 60.6602 24.6972 60.0134 17.3936 52.8513C11.8755 47.4409 10.8176 31.183 12.3471 24.0277C15.3049 10.229 30.9699 10.0808 42.1409 9.83824C59.1804 9.46767 78.7262 8.84107 78.4432 31.2639C78.3489 38.9785 77.5471 49.5903 70.7421 54.3672H70.7489ZM42.8686 11.9336L36.1579 11.9336C36.1107 11.9336 35.7806 12.1021 35.7469 12.2031C35.4639 16.5624 35.5717 21.2114 34.049 25.3483C32.021 30.8462 26.9677 30.0916 22.0897 31.1763L13.6003 31.4997V34.8146C14.0248 35.0909 15.0421 35.1987 15.6148 35.2256C20.9847 35.4951 28.1805 34.8618 33.5706 34.2487C42.8618 33.1909 41.9859 25.4965 42.8686 18.1592V11.9336ZM51.5197 11.9336L45.2132 11.9336C44.8157 12.4727 44.937 13.5776 44.964 14.2851C45.1189 18.7454 46.8977 29.2898 50.6438 32.0522C53.7566 34.343 64.7322 34.3026 68.8286 34.4036C71.1127 34.4575 73.6528 34.8483 75.9436 34.5788C76.1794 34.5519 76.3613 34.5586 76.5028 34.3295V31.2572C76.5028 31.1763 76.7588 30.9203 76.6645 30.6912C69.7113 29.9635 62.3875 30.415 55.852 27.6525C51.176 25.099 52.0519 16.8184 51.7622 12.3379L51.5197 11.9336ZM55.5892 13.9819C57.5835 12.0482 55.4477 12.0078 53.7027 12.0953C53.4534 13.3418 54.1137 13.7595 54.9154 14.5142C55.0906 14.2783 55.4005 14.1638 55.5892 13.9819ZM61.4644 12.7422C60.5953 12.9645 59.625 11.9741 59.0456 12.823L60.4201 14.1907C60.6155 14.0627 61.6531 12.8971 61.4711 12.7422H61.4644ZM30.4174 12.5805C29.9054 12.6478 29.3933 12.695 28.8812 12.7422C28.7128 12.7624 28.3355 12.6411 28.477 12.978C28.5646 13.1868 29.2181 13.7798 29.5146 13.7191L30.4174 12.5805ZM73.9155 20.0188C74.2457 19.7156 71.3552 16.8386 71.0049 16.5422C68.8556 14.7095 66.0595 13.4631 63.2431 13.2273C63.3173 15.3631 63.5733 18.166 65.6148 19.3518C66.4705 19.8504 68.741 19.9784 69.7854 20.0323C71.1531 20.0997 72.5478 19.9716 73.9155 20.0255V20.0188ZM32.3107 15.9291L33.3415 14.4468L31.9738 13.4159L30.7678 15.0666L31.8727 16.0503L32.3107 15.9291ZM24.4344 13.8741C24.0504 13.4968 21.234 15.0936 20.7287 15.4237C18.3638 16.9734 15.8507 19.7089 15.0556 22.4443C17.2656 22.3904 19.8124 22.3635 21.8471 21.3933C23.0599 20.8138 23.7337 19.372 24.0369 18.0851C24.3401 16.7982 24.4613 15.2418 24.4344 13.8741ZM27.3451 14.1975C27.1631 14.0627 26.267 15.1542 26.2333 15.2822C26.1255 15.6798 26.6915 16.0503 26.9677 16.2862L27.9986 15.0801L27.9717 14.8645C27.6213 14.7634 27.3653 14.5883 27.3451 14.1975ZM59.0389 15.1677L57.6981 14.2177L56.1349 15.7337L57.341 16.906C57.6172 16.9262 59.1938 15.39 59.0389 15.1677ZM28.3355 17.7347L29.6897 18.7184L30.5859 17.5124C29.8043 15.983 28.6926 15.9964 28.3355 17.7347ZM59.8945 19.6482C60.0091 19.7493 60.1843 19.8504 60.3325 19.783L61.6261 18.166L60.3864 16.805L58.7155 18.3277C59.1803 18.6241 59.5509 19.345 59.8945 19.655V19.6482ZM55.9193 18.5163C56.0204 18.4085 56.1215 18.2266 56.0541 18.0784L54.8952 16.9599C53.2782 17.7752 53.9722 18.5567 55.0839 19.372C55.2523 18.9408 55.7105 18.7521 55.9193 18.523V18.5163ZM32.3511 18.7386L31.0844 19.8032C31.7447 21.2855 32.6678 21.6965 33.3281 19.9379L32.3511 18.7386ZM28.3018 20.4972C28.4635 20.2277 27.244 19.1564 26.9071 19.0755L25.5933 20.4298L26.9408 21.7975L28.3018 20.4972ZM57.3612 19.5472L56.2966 20.7263L57.7991 22.1142L58.8637 20.9351L57.3612 19.5472ZM63.5059 19.9177C63.3712 19.7965 63.0141 19.527 62.8591 19.5539L61.4711 20.9351L62.6704 22.2826L64.0247 20.7195C64.0449 20.5915 63.6137 20.0188 63.5059 19.9177ZM30.8823 22.4646L29.6897 21.4741L28.3153 23.0103L29.528 24.2231C29.7908 23.8525 31.1451 22.9295 30.8823 22.4646ZM55.0973 21.811L54.2147 22.7139L55.0839 24.3915L56.4583 23.1787L55.1041 21.8177L55.0973 21.811ZM24.2727 24.8699L25.5596 23.1922L24.3535 22.1681C24.0908 22.1277 22.9723 23.5022 22.9791 23.8256L24.0369 24.8632H24.266L24.2727 24.8699ZM66.585 24.0142C66.7265 23.8525 66.8276 23.6302 66.7265 23.4213L65.4059 22.1344C63.3914 23.428 63.7754 23.6504 65.4261 25.0316C65.6687 24.6206 66.3424 24.2972 66.585 24.0142ZM70.7623 22.1479C69.051 23.4415 69.8595 23.866 71.0857 25.0249L72.3052 23.6504L70.7623 22.1412V22.1479ZM59.9619 22.3029C59.7598 22.3568 58.9311 23.1653 59.0591 23.4685L60.3931 24.7015L61.4577 23.5224C61.1208 23.2124 60.4133 22.1883 59.9687 22.3029H59.9619ZM76.3411 36.6742C74.0233 36.3239 71.645 36.6136 69.3003 36.5193C64.7119 36.3373 59.1197 36.0409 54.6122 35.3604C47.3423 34.2689 46.1296 29.3706 44.4047 23.0912C43.9398 26.305 43.5827 30.0916 41.3122 32.6182C37.5323 36.8224 29.5415 36.5529 24.1986 36.8494C20.9174 37.0246 17.6092 36.91 14.328 37.1661L13.9641 37.4019L14.5772 41.6938C14.9546 41.7948 14.8468 41.5994 14.9478 41.4849C16.4031 39.8005 16.8748 39.0054 19.3475 38.7831C22.211 38.5271 28.5915 38.0689 31.0171 39.403C31.6302 39.7398 32.0075 40.2115 32.5869 40.5484C34.7228 38.1093 38.1253 38.5742 41.0224 38.4664C44.7416 38.3249 52.2406 37.9342 55.313 40.0093C55.6498 40.2384 55.9261 40.8044 56.364 40.737C56.4651 40.7235 56.5594 40.326 56.7818 40.1643C59.3286 38.3182 68.7276 38.2239 71.8538 38.8303C72.7028 38.992 73.4641 39.2345 74.1581 39.7601L75.6134 41.2154L76.3411 36.6877V36.6742ZM76.1794 24.8699L75.4517 23.0979C75.1755 23.2933 74.778 23.3607 74.906 23.7919L76.1794 24.8699ZM18.0673 24.6004C18.2493 24.8362 18.6805 25.5571 18.9904 25.5032C19.3475 25.0181 21.1532 23.6369 19.8259 23.5628C19.6844 23.5561 18 23.738 17.9124 23.7649C17.1375 24.0007 17.9797 24.4926 18.0673 24.6071V24.6004ZM30.9564 25.6312C32.0816 26.8777 32.9642 24.0951 32.1153 23.738C31.9603 24.3915 30.4174 25.0383 30.9564 25.6312ZM15.0556 24.0614H14.4223C13.5531 26.5947 15.3386 24.4522 15.0556 24.0614ZM26.2805 25.0922C26.1255 25.2472 25.3979 26.0961 25.4181 26.2174L26.5972 27.282L27.9986 25.5908C27.9986 25.355 27.2844 24.6408 27.0755 24.5667C26.7656 24.4522 26.5163 24.8564 26.2805 25.0922ZM58.4931 25.0922C58.3718 24.971 57.8059 24.5397 57.6846 24.56L56.4516 25.921C57.2062 26.6486 58.5605 27.2079 59.0186 25.9008C59.0321 25.7525 58.6279 25.227 58.4998 25.099L58.4931 25.0922ZM63.0545 24.9036C62.6772 24.661 61.6059 25.8536 61.6396 26.0557L63.1421 27.4437L64.2066 26.2646L63.0545 24.9036ZM68.1751 24.8766L66.9556 26.4061L68.4783 27.7738L69.5226 26.433L68.1683 24.8699L68.1751 24.8766ZM74.2996 25.4561C74.0638 25.2135 74.0166 24.7756 73.5248 24.8564L72.3052 26.2444C72.6826 26.5139 73.3361 27.5649 73.8077 27.4437L74.8655 26.2242C74.8992 25.7862 74.5152 25.6784 74.3063 25.4628L74.2996 25.4561ZM21.4631 25.0451L20.0752 26.588C20.0212 26.8844 20.9915 27.4841 21.2744 27.6256L22.8106 26.2444L21.4631 25.0451ZM16.6524 25.5369C16.2684 25.3078 15.3453 26.3589 15.2106 26.7295L16.6255 27.9153L17.8046 26.743C17.4205 26.6217 16.7333 25.5773 16.6592 25.5369H16.6524ZM30.094 27.6188L29.3663 26.8171L27.8302 28.5891L30.094 27.6188ZM76.6645 28.5891C76.5769 27.1 75.8425 27.1674 75.2092 28.3532C75.0677 28.8249 76.4017 28.5015 76.6645 28.5891ZM25.189 28.4745C25.0273 28.2859 24.111 27.5582 23.8886 27.6256C23.7808 27.6593 22.5411 29.0607 22.8174 29.3908C23.2351 29.3639 25.3575 29.2022 25.3979 28.8249C25.2968 28.7238 25.2833 28.5688 25.189 28.4678V28.4745ZM14.5031 28.1781C14.3347 28.0568 14.1595 27.9355 14.0045 27.7873C13.7687 27.7873 13.2769 29.6873 13.8631 29.876L15.534 29.3976C15.6351 29.2426 14.6918 28.3263 14.4964 28.1781H14.5031ZM19.8865 29.3774C20.1358 28.9394 19.1049 28.2724 18.8556 27.949C17.2588 29.2494 18.1549 30.3341 19.8865 29.3774ZM16.7602 41.6129C14.9343 43.459 15.3049 45.3253 16.2886 47.4881C17.2723 49.6509 18.5929 51.4296 20.5737 52.7435C29.5819 58.7332 48.3058 59.1307 58.5538 56.8063C64.2201 55.5194 71.7865 53.3229 73.9425 47.2927C74.6769 45.2445 74.7914 41.4916 72.3322 40.5955C71.6315 40.3395 69.6776 40.2586 68.8219 40.2249C66.585 40.1306 60.0293 40.1576 58.3045 41.3636C57.0445 42.2395 56.5661 43.6881 56.5998 45.1704C56.6268 46.2551 56.9839 47.98 56.8963 49.0041C56.8761 49.1995 56.6942 49.6644 56.5392 49.7856C56.1956 50.0349 55.7442 50.0147 55.4612 49.6981C54.7739 48.93 55.3803 43.6275 54.619 41.97C54.2282 41.1211 53.1367 40.6562 52.2675 40.4406C49.2154 39.6657 41.9185 39.9622 38.5699 40.2317C36.8586 40.3664 34.7295 40.4608 33.8536 42.1452C32.8632 44.0519 34.1366 47.5622 33.2203 48.7885C32.5398 49.7115 31.8593 48.6537 31.738 47.8654C31.4415 45.9789 32.1894 41.02 29.7639 40.2991C28.7869 40.0093 24.6433 40.1778 23.3631 40.2182C22.9791 40.2317 22.6287 40.3732 22.2447 40.3934C20.284 40.4877 18.3032 40.0296 16.7468 41.6062L16.7602 41.6129Z" fill="white" fill-opacity="0.9"/>
<path d="M43.1436 43.3378C44.39 43.0818 47.0177 43.5197 46.7212 45.285C46.6673 45.5882 46.1283 46.5112 45.8656 46.7066C45.1851 47.1985 43.0694 47.2389 42.2744 46.8953C40.0577 45.9251 41.2368 43.7421 43.1503 43.3445L43.1436 43.3378ZM42.2407 45.7095C42.5237 46.1541 45.2726 45.9251 45.5422 45.4063C46.189 44.1665 42.8336 43.769 42.3081 44.9211C42.2205 45.1098 42.1396 45.5477 42.2407 45.7095Z" fill="white" fill-opacity="0.9"/>
<path d="M65.7883 42.8589C67.5334 42.5961 69.5816 43.5057 68.1667 45.399C67.2033 46.6859 64.8451 46.6185 64.077 45.143C63.4437 43.9369 64.6969 43.0206 65.7951 42.8589H65.7883ZM65.9501 43.8291C65.1281 43.9571 64.9057 44.4355 65.411 45.1025C67.4997 45.9986 68.2206 43.4788 65.9501 43.8291Z" fill="white" fill-opacity="0.9"/>
<path d="M23.2625 43.1825C24.3203 43.0275 26.1933 43.3374 26.0518 44.8197C25.8632 46.6793 22.4809 46.9623 21.5242 45.6484C20.5674 44.3346 22.0901 43.3509 23.2692 43.1825H23.2625ZM24.8997 45.224C25.5263 44.1864 22.7032 43.8023 22.4944 45.0016C22.4944 45.9314 24.7043 45.5474 24.8997 45.224Z" fill="white" fill-opacity="0.9"/>
</svg>
