<svg width="91" height="84" viewBox="0 0 91 84" fill="none" xmlns="http://www.w3.org/2000/svg">
<path d="M19.4808 83.4159C5.71881 83.4159 0.132812 82.6807 0.132812 64.2371C0.132812 51.3087 0.904887 45.9072 5.68498 45.9072C10.4651 45.9072 10.3574 49.5492 10.3574 63.1082C10.3574 74.7323 14.9037 75.6582 20.8496 75.6582C21.5509 75.6582 22.2769 75.6428 22.9813 75.6275C23.7011 75.6121 24.4485 75.5967 25.1806 75.5967C32.1693 75.5967 34.4947 76.135 34.4947 79.3186C34.4947 80.5398 34.1594 81.884 31.6833 82.5854C29.6377 83.1636 25.8758 83.4189 19.4777 83.4189L19.4808 83.4159ZM5.68498 48.6387C5.19897 48.6387 4.53456 48.6387 3.94704 50.835C3.31646 53.1973 3.02117 57.4545 3.02117 64.2371C3.02117 72.3485 4.05163 76.6456 6.4632 78.6112C8.83787 80.546 12.9628 80.6844 19.4777 80.6844C29.3486 80.6844 31.2434 79.9861 31.5879 79.6662C31.6033 79.5832 31.6033 79.3955 31.6033 79.3186C31.6033 79.2233 31.6033 78.9895 31.5848 78.8726C31.2895 78.6881 30.0868 78.3282 25.1775 78.3282C24.4762 78.3282 23.7472 78.3436 23.0428 78.3589C22.323 78.3743 21.5786 78.3897 20.8435 78.3897C17.5552 78.3897 14.1563 78.0821 11.557 75.852C8.80403 73.4897 7.4629 69.3217 7.4629 63.1082C7.4629 56.0888 7.386 52.1484 6.96151 50.0813C6.66622 48.6418 6.47858 48.6418 5.6819 48.6418L5.68498 48.6387Z" fill="white" fill-opacity="0.9"/>
<path d="M83.7228 65.0734C80.0993 65.0734 72.1602 63.8184 72.1602 60.0872C72.1602 57.0912 77.3955 52.1357 83.3629 52.1357C85.3408 52.1357 86.9249 52.7202 88.0753 53.8706C89.8656 55.6639 89.8625 58.1339 89.841 58.623C89.8471 59.1244 89.7887 61.7175 87.9585 63.4985C86.9003 64.5289 85.4331 65.0734 83.7228 65.0734ZM83.3629 54.8672C78.7889 54.8672 75.0485 58.8076 75.0485 60.0841C75.2977 60.8162 79.2226 62.3388 83.7228 62.3388C84.6579 62.3388 85.3623 62.0958 85.8791 61.6006C86.7927 60.7208 86.9649 59.1613 86.9526 58.6353V58.583V58.5246C86.9526 58.5154 87.0233 56.7836 85.9621 55.7347C85.3715 55.1502 84.5226 54.8672 83.3598 54.8672H83.3629Z" fill="white" fill-opacity="0.9"/>
<path d="M81.5455 73.9531C78.0943 73.9531 75.6396 73.138 74.2493 71.5323C73.0527 70.1481 73.0496 68.6501 73.1173 68.0165C73.0373 67.4259 73.0189 66.1216 74.0555 64.8636C75.4458 63.1841 78.125 62.332 82.0254 62.332C85.3813 62.332 89.8415 62.8242 89.8415 67.069C89.8415 72.7596 85.329 73.9531 81.5425 73.9531H81.5455ZM75.9872 67.6812L75.9964 68.2656C75.9964 68.2656 75.8611 69.1054 76.5132 69.8313C77.3283 70.7387 79.0694 71.2186 81.5455 71.2186C86.9531 71.2186 86.9531 68.5178 86.9531 67.069C86.9531 66.3185 86.9531 65.0666 82.0254 65.0666C78.1989 65.0666 76.8362 65.9709 76.3656 66.5123C75.9072 67.0352 75.9657 67.5643 75.9841 67.6812H75.9872Z" fill="white" fill-opacity="0.9"/>
<path d="M46.1557 83.4159C37.8598 83.4159 31.3633 77.8913 31.3633 70.8381C31.3633 63.7848 37.7244 58.7402 46.1557 58.7402C53.8396 58.7402 60.9512 60.2044 60.9512 70.8381C60.9512 77.8913 54.4517 83.4159 46.1557 83.4159ZM46.1557 61.4717C39.3701 61.4717 34.2516 65.4982 34.2516 70.835C34.2516 76.1719 39.4808 80.6813 46.1557 80.6813C52.8306 80.6813 58.0598 76.3564 58.0598 70.835C58.0598 62.9636 53.8765 61.4717 46.1557 61.4717Z" fill="white" fill-opacity="0.9"/>
<path d="M46.1565 75.3689C42.7821 75.3689 40.2383 73.1942 40.2383 70.312C40.2383 67.4298 42.7821 65.252 46.1565 65.252C49.0848 65.252 52.0778 65.8518 52.0778 70.312C52.0778 73.1942 49.5339 75.3689 46.1565 75.3689ZM46.1565 66.7715C43.6557 66.7715 41.8409 68.2603 41.8409 70.312C41.8409 72.3637 43.6557 73.8524 46.1565 73.8524C48.6573 73.8524 50.4721 72.3637 50.4721 70.312C50.4721 67.3006 49.0818 66.7715 46.1565 66.7715Z" fill="white" fill-opacity="0.9"/>
<path d="M61.3231 83.4158C61.117 83.4158 60.9109 83.4065 60.711 83.3881C60.0096 83.3266 57.878 83.1328 57.0352 81.5856C56.0785 79.8292 57.3612 77.7283 58.9823 75.0706C60.1112 73.2219 61.3908 71.1241 62.0613 68.934C62.7319 66.747 62.4827 64.8583 62.2674 63.1942C62.049 61.527 61.8429 59.9521 62.9226 58.7986C63.7162 57.9497 64.9497 57.5713 66.9214 57.5713C67.1921 57.5713 73.3225 57.682 73.3225 67.2176C73.3225 71.3025 72.0122 75.2952 69.6313 78.4665C67.2721 81.6102 64.2453 83.4127 61.3262 83.4127L61.3231 83.4158ZM59.6036 80.3398C59.6036 80.3398 59.8897 80.5674 60.9817 80.6658C61.0924 80.6751 61.2062 80.6812 61.32 80.6812C63.261 80.6812 65.488 79.2632 67.269 76.8855C69.2745 74.2124 70.425 70.6873 70.425 67.2176C70.425 60.4689 67.0537 60.3058 66.9122 60.3028C65.3834 60.3028 65.0912 60.595 65.0789 60.6073C64.8636 60.838 65.0174 62.0038 65.1281 62.8559C65.3557 64.5907 65.6664 66.9654 64.8328 69.6907C64.0638 72.2007 62.6304 74.5477 61.48 76.4333C60.6618 77.7744 59.4252 79.8015 59.6005 80.3367L59.6036 80.3398Z" fill="white" fill-opacity="0.9"/>
<path d="M76.8901 83.413C73.8326 83.413 72.2977 83.413 71.2057 82.2657C70.0153 81.0137 71.2272 78.15 71.624 77.3041C72.4884 75.4677 75.1122 71.1982 80.769 71.1982C83.2236 71.1982 88.9665 71.1982 88.9665 75.3231V75.3754C88.9665 76.2336 88.9665 78.2392 87.7515 80.0417C86.2442 82.2749 83.5004 83.4099 79.597 83.4099C79.031 83.4099 78.5112 83.4099 78.0313 83.4099H76.8901V83.413ZM73.5958 80.54C74.214 80.6815 75.7859 80.6815 76.8901 80.6815H78.0252C78.505 80.6815 79.0279 80.6785 79.597 80.6785C82.4485 80.6785 84.374 79.971 85.3153 78.5745C86.0781 77.4425 86.0781 76.1014 86.0781 75.3785V75.3262C86.0781 74.4034 84.291 73.9359 80.769 73.9359C78.8065 73.9359 77.1239 74.6864 75.7674 76.1629C74.2817 77.7809 73.688 79.7218 73.5958 80.5431V80.54Z" fill="white" fill-opacity="0.9"/>
<path d="M57.524 31.8953H57.5178C57.3886 31.8953 57.2656 31.843 57.1795 31.7538L52.9315 27.5704C52.747 27.3889 52.7531 27.0998 52.9438 26.9275C53.1345 26.7522 53.4391 26.7584 53.6236 26.9399L57.5363 30.791L61.3598 27.2475C61.5505 27.0721 61.855 27.0752 62.0395 27.2536C62.2241 27.432 62.221 27.7212 62.0334 27.8965L57.8624 31.7599C57.7731 31.843 57.6501 31.8891 57.5271 31.8891L57.524 31.8953Z" fill="white" fill-opacity="0.9"/>
<path d="M10.3441 57.9985C10.3441 53.1415 10.6702 47.9616 12.1405 47.9616C12.9833 47.9616 14.023 48.2969 14.5675 50.9207C15.0104 53.0585 15.0104 56.1591 15.0073 59.4381V60.0287C15.0073 65.6947 16.0563 69.4289 18.2125 71.4406C20.0489 73.1509 22.2298 73.1232 23.4017 73.1047C23.5063 73.1047 23.6047 73.1047 23.697 73.1047C24.0385 73.1047 24.4414 73.0894 24.869 73.0709C26.4347 73.0063 28.8032 72.9079 29.6306 73.6553C29.8275 73.8338 29.9136 74.0491 29.9136 74.3567C29.9136 75.2702 29.8705 75.5379 26.0809 75.6025C28.231 75.6178 29.8951 75.704 31.1532 75.9285C31.3932 75.504 31.5193 74.9934 31.5193 74.3567C31.5193 73.64 31.2486 73.0186 30.741 72.5572C29.4214 71.3607 26.7484 71.4714 24.8013 71.5544C24.3922 71.5698 24.0046 71.5883 23.7001 71.5883C23.6017 71.5883 23.494 71.5883 23.3802 71.5883C22.3098 71.6037 20.6979 71.6252 19.3414 70.361C19.2645 70.2871 19.1907 70.2072 19.1138 70.1303C20.2304 70.5978 21.387 70.7178 22.2821 70.7178C24.8874 70.7178 26.9607 70.0041 28.4464 68.5984C31.0763 66.1069 31.0733 62.2373 31.0702 60.5855V60.4717C31.0702 60.0748 31.1163 59.3335 31.1748 58.3954C31.5593 52.2372 31.5439 48.4353 30.3412 47.2264C30.0428 46.9281 29.6737 46.7712 29.2676 46.7712C28.231 46.7712 27.5882 47.3741 27.1667 48.1831C27.0191 47.8447 26.8192 47.531 26.5546 47.2633C26.0317 46.7373 25.3365 46.4636 24.4845 46.4451C22.7804 46.4113 21.9868 47.4848 21.5838 48.7306C21.47 48.22 21.2608 47.7463 20.8948 47.3587C20.3842 46.8173 19.6521 46.5343 18.7231 46.5159C17.9603 46.5036 17.2897 46.7527 16.7422 47.2603C16.2993 47.6724 15.9455 48.2477 15.6718 49.0074C15.1734 47.7863 14.183 46.4451 12.1374 46.4451C10.9655 46.4451 10.1288 47.3033 9.53516 48.5614C10.1504 50.4193 10.3042 53.4153 10.3411 58.0016L10.3441 57.9985ZM17.8649 48.3399C18.0987 48.1215 18.3663 48.02 18.6893 48.0293C19.3906 48.0416 19.6183 48.2846 19.6952 48.3645C20.2335 48.9336 20.095 50.324 19.9935 51.339C19.8859 52.4249 19.809 53.2092 20.2919 53.7106C20.5103 53.9352 20.8117 54.0613 21.147 54.0613C22.4389 54.0613 22.5958 52.6402 22.7465 51.2683C22.9895 49.032 23.3033 47.9585 24.4107 47.9585H24.4476C24.9951 47.9708 25.2442 48.1585 25.3857 48.2999C26.0532 48.9705 25.9917 50.5393 25.9548 51.4744C25.924 52.2372 25.9087 52.6217 26.2255 52.9324C26.3885 53.0923 26.61 53.1815 26.8438 53.1815C27.6804 53.1815 27.7942 52.4341 27.9542 51.3975C28.0957 50.4901 28.4187 48.3953 29.2 48.2846C30.1351 49.195 29.7106 56.0299 29.5691 58.2969C29.5076 59.2597 29.4614 60.0195 29.4614 60.4624V60.5793C29.4614 62.0435 29.4676 65.4701 27.3052 67.5187C26.1332 68.6292 24.4414 69.1921 22.279 69.1921C19.1784 69.1921 17.3728 67.6295 16.9145 64.5504C16.9114 64.5227 16.8991 64.495 16.8929 64.4674C16.7053 63.1601 16.6099 61.6805 16.6099 60.0225V59.435C16.6099 57.8324 16.6099 56.3344 16.5669 54.9564C16.5669 51.3605 17.0037 49.1335 17.8649 48.3369V48.3399Z" fill="white" fill-opacity="0.9"/>
<path d="M75.6393 3.57511C75.2087 2.58157 74.1598 2.19092 73.4092 1.98175C73.0371 1.88025 72.6679 1.82795 72.308 1.82795C70.8254 1.82795 69.7027 2.51389 68.6445 3.74429C68.6445 3.74429 68.4507 3.3352 68.3154 3.06451C67.5249 1.49575 65.4701 0.702148 62.2126 0.702148C57.7155 0.702148 55.3255 1.41885 53.9936 2.71692C53.9167 2.53851 53.8152 2.37241 53.6798 2.21861C53.2861 1.76644 52.6771 1.5142 51.865 1.46499C51.7481 1.45884 51.6343 1.45267 51.5174 1.45267C49.7518 1.45267 48.7029 2.54158 47.8908 5.20847C46.7988 8.17372 46.7558 12.5632 49.1151 15.713C50.8653 18.0507 53.6798 19.2842 57.248 19.2842C64.5442 19.2842 71.8836 12.4032 74.7658 7.51546C75.7808 5.79598 76.0577 4.54098 75.6393 3.57511ZM66.8635 3.7197C67.2726 4.53176 67.0143 5.80521 66.1714 7.34013C64.1382 10.4623 61.7882 13.8397 57.6571 13.7566C57.1496 13.7443 56.7005 13.6951 56.2975 13.6152C60.4439 10.0439 63.4523 4.10418 64.2797 2.36317C65.4363 2.54773 66.4698 2.93839 66.8635 3.71662V3.7197ZM62.2096 2.22167C62.4403 2.22167 62.6833 2.22784 62.9263 2.23707C61.8835 4.35027 58.8567 10.0101 54.9625 13.1107C54.781 12.9938 54.6149 12.8585 54.4734 12.7077C53.7075 11.8803 53.5752 10.5515 53.6521 9.08115C53.6952 8.73356 53.7352 8.39212 53.7721 8.05992C54.2028 4.17186 54.4211 2.22167 62.2126 2.22167H62.2096ZM73.3631 6.77723C70.7485 11.2097 63.8214 17.7677 57.248 17.7677C54.1781 17.7677 51.8835 16.7803 50.4224 14.8363C48.3984 12.1356 48.4783 8.20141 49.4104 5.6914C49.4165 5.67909 49.4196 5.66371 49.4257 5.64833C50.2347 2.96914 51.0068 2.96915 51.5143 2.96915C51.5943 2.96915 51.6774 2.97222 51.7573 2.97837C51.9973 2.99375 52.311 3.03989 52.4371 3.18446C52.6832 3.46745 52.5663 4.34719 52.4494 5.19309C52.4156 5.44532 52.3787 5.70677 52.351 5.97131C52.3264 6.18355 52.3018 6.39887 52.2772 6.61112C51.9665 9.23494 51.6466 11.951 53.2646 13.7013C54.2028 14.7164 55.6269 15.2301 57.6171 15.2731C61.0438 15.3439 63.4 13.5506 65.2333 11.3512C65.2394 11.3451 65.2456 11.3389 65.2517 11.3328C65.9561 10.5084 66.8235 9.38874 67.5064 8.17373C67.5925 8.04453 67.6756 7.91226 67.7586 7.78307C69.3059 5.39918 70.6439 3.34134 72.3019 3.34134C72.5141 3.34134 72.7264 3.37209 72.954 3.43361C73.8583 3.68277 74.0675 3.95961 74.1506 4.14417C74.2705 4.421 74.329 5.13157 73.36 6.77107L73.3631 6.77723Z" fill="white" fill-opacity="0.9"/>
<path d="M5.79869 46.9411C4.62366 46.9411 3.62397 46.5535 2.82729 45.7907C0.264984 43.336 0.354187 37.3532 0.495683 27.4424C0.529519 25.0677 0.569506 22.3762 0.569506 19.5617C0.569506 2.19773 9.31455 0.853516 21.6739 0.853516C38.3704 0.853516 42.6214 2.12696 44.0702 4.1848C44.6454 5.00302 44.7254 5.99349 44.2917 6.97473C43.4581 8.85724 40.6835 9.01411 37.6691 9.01411C36.7955 9.01411 35.8511 8.99566 34.8514 8.9772C33.7195 8.95567 32.5475 8.93413 31.3202 8.93413C26.1218 8.93413 19.5699 9.33403 14.9867 12.4654C11.0709 15.1384 10.871 24.471 10.7141 31.9702C10.6372 35.6522 10.5603 39.1312 10.0928 41.7273C9.859 43.0161 9.15153 46.9442 5.80177 46.9442L5.79869 46.9411ZM21.6739 3.58806C9.01003 3.58806 3.46094 5.09839 3.46094 19.5617C3.46094 22.3978 3.42095 25.0985 3.38712 27.4824C3.26715 35.723 3.1718 42.2318 4.88512 43.8743C5.1312 44.1081 5.40497 44.2096 5.79869 44.2096C6.37083 44.2096 6.90913 43.1084 7.24133 41.2659C7.67505 38.8697 7.7458 35.4923 7.8227 31.9149C8.00418 23.3852 8.21027 13.7173 13.2949 10.2476C18.5518 6.66098 25.6881 6.20265 31.3202 6.20265C32.5752 6.20265 33.7625 6.22419 34.9099 6.24572C35.8942 6.26418 36.8232 6.28263 37.6691 6.28263C40.6497 6.28263 41.4402 6.0058 41.6494 5.8643C41.6801 5.78125 41.6832 5.7351 41.6801 5.7228C41.6801 5.71665 41.2557 4.83999 36.7586 4.24325C33.4303 3.8003 28.4964 3.585 21.677 3.585L21.6739 3.58806Z" fill="white" fill-opacity="0.9"/>
<path d="M11.806 46.3343C11.16 46.3343 10.5633 46.079 10.0834 45.5961C7.88409 43.3752 8.32089 36.162 8.37625 35.3469C8.40701 34.9285 8.78844 34.6086 9.23138 34.6394C9.67432 34.6671 10.0096 35.027 9.97884 35.4453C9.78198 38.2721 9.95423 43.2429 11.2554 44.5564C11.483 44.7871 11.6676 44.8148 11.8029 44.8148C12.5258 44.8148 13.1502 44.8148 13.6393 42.7323C14.156 40.533 14.3744 36.4419 14.3744 29.0503C14.3744 12.5845 22.7904 12.5845 28.9331 12.5845C29.1976 12.5845 29.6006 12.6122 30.1543 12.6491C32.3229 12.7968 38.9239 13.252 39.5176 11.0742C39.5361 11.0065 39.5453 10.9296 39.4407 10.7912C38.4841 9.53007 32.8858 8.60419 29.2161 8.34889C28.7732 8.31813 28.441 7.95516 28.4748 7.53682C28.5086 7.11849 28.887 6.80165 29.333 6.83549C30.9325 6.94622 39.007 7.61988 40.7449 9.90842C41.1048 10.3821 41.2186 10.9173 41.071 11.4556C40.142 14.8608 33.3164 14.3932 30.0374 14.1656C29.5575 14.1317 29.1392 14.1041 28.9331 14.1041C22.8611 14.1041 15.9801 14.1041 15.9801 29.0534C15.9801 44.0027 15.2788 46.3374 11.8029 46.3374L11.806 46.3343Z" fill="white" fill-opacity="0.9"/>
<path d="M39.5688 8.97714C38.9567 9.0079 38.3199 9.01713 37.6678 9.01713C36.7942 9.01713 35.8499 8.99868 34.8502 8.98022C34.6287 8.97714 34.4042 8.971 34.1797 8.96792C36.6558 9.41087 38.8736 10.0445 39.4427 10.7951C39.5473 10.9304 39.538 11.0104 39.5196 11.078C39.0889 12.6591 35.4962 12.8529 32.7278 12.7821C31.0237 12.6007 29.4949 12.5853 28.9351 12.5853C22.7893 12.5853 14.3795 12.5853 14.3795 29.0511C14.3795 32.1886 14.3395 34.7263 14.2534 36.781C14.2534 36.8026 14.2534 36.8303 14.2503 36.861C14.1334 39.6079 13.9365 41.4781 13.6413 42.73C13.1522 44.8124 12.5277 44.8124 11.8049 44.8124C11.6695 44.8124 11.4819 44.7817 11.2574 44.5541C10.4884 43.7759 10.3407 41.6503 10.3899 39.4572C10.313 40.2661 10.2177 41.0259 10.0916 41.7242C9.99005 42.2932 9.79319 43.379 9.31641 44.4095C9.52865 44.877 9.78088 45.2831 10.0854 45.5907C10.5653 46.0736 11.1589 46.3289 11.808 46.3289C13.4198 46.3289 14.4349 45.7014 15.0593 43.5944C15.3361 44.3541 15.7022 45.0278 16.1882 45.5076C16.7326 46.0459 17.4093 46.3289 18.1445 46.3289C18.9627 46.3289 19.6887 46.0398 20.2423 45.4953C20.5438 45.197 20.7745 44.8432 20.9529 44.4679C21.4912 45.523 22.3032 46.3289 23.5367 46.3289C24.1273 46.3289 24.6656 46.1136 25.0932 45.7045C25.4807 45.3354 25.7699 44.8063 25.9852 44.1573C26.4927 45.4092 27.2494 46.3258 28.3814 46.3258C29.0243 46.3258 29.5995 46.0982 30.0486 45.6645C31.5497 44.2188 31.4728 40.5799 31.402 37.064C31.3867 36.3565 31.3743 35.6614 31.3743 35.0123C31.3743 34.8247 31.3743 34.6248 31.3682 34.4156C31.3436 32.3762 31.3098 29.5801 33.3399 27.8114C33.8597 27.3593 34.3088 27.1224 34.7056 26.9133C35.4162 26.538 36.1514 26.1504 36.4559 24.8616C36.4682 24.8062 36.4743 24.7508 36.4743 24.6955C36.4743 24.1633 36.2436 23.6988 35.8068 23.3482C35.6592 23.2313 35.4931 23.1298 35.3055 23.0436C36.4159 22.7422 37.1664 22.2777 37.4648 21.1735C37.6094 20.6382 37.4956 20.1245 37.1357 19.6847C36.8711 19.3617 36.462 19.0941 35.9606 18.8695C37.3633 18.6604 38.4307 18.1682 38.9413 16.701C39.1751 16.0304 39.0736 15.3814 38.6491 14.8308C38.3938 14.4986 38.0185 14.2156 37.5632 13.9725C39.2981 13.6004 40.6915 12.8529 41.076 11.4441C41.2237 10.9058 41.1099 10.3706 40.75 9.89686C40.4854 9.55235 40.0763 9.24168 39.5688 8.96484V8.97714ZM33.9213 25.5937C33.4722 25.8305 32.9093 26.1258 32.251 26.701C29.6949 28.928 29.7348 32.244 29.7625 34.4402C29.7625 34.6432 29.7687 34.837 29.7687 35.0185C29.7687 35.6798 29.7841 36.3719 29.7964 37.1009C29.8548 40.0047 29.9317 43.6159 28.9043 44.6094C28.7536 44.754 28.5967 44.8155 28.3845 44.8155C27.6063 44.8155 26.8003 41.9887 26.6096 38.7743C26.6219 37.7684 26.6158 36.7134 26.6035 35.6429C26.5973 34.997 26.5912 34.3541 26.5912 33.7297C26.5912 28.6881 27.1141 27.3193 27.9169 25.8059C28.2861 25.1077 28.9966 24.6401 29.8671 24.2956C31.4728 24.0526 34.072 23.9541 34.7702 24.514C34.8287 24.5601 34.8533 24.597 34.8625 24.6401C34.718 25.1753 34.5149 25.283 33.9243 25.5937H33.9213ZM35.9084 20.8043C35.773 21.2965 35.5638 21.4995 33.7398 21.8348C33.5275 21.8748 33.3091 21.9117 33.0877 21.9517C30.5346 22.4038 27.6432 22.9175 26.4743 25.1292C25.573 26.8364 24.9794 28.3559 24.9794 33.7297C24.9794 34.3572 24.9855 35.0031 24.9917 35.6552C24.9978 36.2981 25.004 36.9656 25.004 37.6392C24.9763 37.7192 24.9578 37.8053 24.9609 37.8945C24.9671 38.1345 24.9763 38.4421 24.9947 38.7958C24.9517 41.4227 24.7456 43.8804 23.9489 44.6402C23.8228 44.7632 23.6967 44.8124 23.5336 44.8124C22.254 44.8124 21.5742 41.7488 21.5158 39.6663C21.482 37.5162 21.4327 33.3821 21.4327 27.9499C21.4327 21.7671 23.0999 19.8139 28.3629 19.2879C28.3629 19.2879 28.363 19.2879 28.366 19.2879C30.9529 19.294 35.1271 19.7185 35.8653 20.6228C35.9237 20.6967 35.9299 20.7336 35.9084 20.8043ZM37.4187 16.2365C37.0465 17.3039 36.2744 17.3992 33.8905 17.5315C33.5491 17.5499 33.1861 17.5715 32.8016 17.5961C31.1806 17.5961 29.7287 17.6453 28.4337 17.7683H28.3691C28.3014 17.7683 28.2368 17.7776 28.1753 17.7929C22.3432 18.4112 19.8271 20.7274 19.8271 27.9499C19.8271 33.3821 19.8763 37.5193 19.9101 39.6848C19.9101 39.6848 19.9101 39.6971 19.9101 39.7032C19.9255 40.7583 19.9378 41.3427 19.9378 41.3643C19.9624 41.921 19.8548 43.6836 19.0796 44.4495C18.8274 44.6986 18.529 44.8155 18.1414 44.8155C17.8431 44.8155 17.5877 44.7017 17.3447 44.4618C16.0221 43.1545 15.8098 39.1772 15.8437 37.2763C15.9452 35.0739 15.9821 32.3701 15.9821 29.048C15.9821 14.0987 22.8631 14.0987 28.9351 14.0987C29.1412 14.0987 29.5595 14.1264 30.0394 14.1602C30.753 14.2094 31.6327 14.2709 32.5832 14.2986C34.7579 14.5385 36.7942 15.0061 37.3479 15.7259C37.4464 15.8551 37.4956 15.9904 37.4125 16.2303L37.4187 16.2365Z" fill="white" fill-opacity="0.9"/>
<path d="M83.2963 5.75907C72.8687 -1.33416 52.4195 0.0869516 44.8372 2.80613L44.7049 2.86149C42.6901 3.7443 40.9922 6.17741 39.6018 8.99502C40.094 9.26571 40.4939 9.57024 40.7492 9.9086C41.1091 10.3823 41.2229 10.9175 41.0752 11.4558C40.6907 12.8646 39.2973 13.609 37.5625 13.9812C38.0177 14.2242 38.393 14.5072 38.6483 14.8394C39.0728 15.3931 39.1743 16.0391 38.9405 16.7096C38.4299 18.1769 37.3594 18.669 35.9568 18.8782C36.4582 19.1027 36.8673 19.3704 37.1318 19.6933C37.4917 20.1332 37.6055 20.65 37.4609 21.1821C37.1595 22.2864 36.409 22.7509 35.2985 23.0523C35.4862 23.1384 35.6523 23.2399 35.7999 23.3568C36.2367 23.7075 36.4674 24.172 36.4674 24.7041C36.4674 24.7595 36.4612 24.8148 36.4489 24.8702C36.1444 26.1591 35.4093 26.5466 34.6987 26.9219C34.4742 27.0388 34.2312 27.168 33.9697 27.3402C33.4406 30.5762 33.2222 33.6122 33.5729 35.6546C33.9605 37.9093 35.1263 38.5276 36.0368 38.6507L36.2398 38.663C42.7886 38.663 45.2401 32.7325 45.6308 29.5519C45.7477 28.9736 47.3626 22.0341 57.8886 21.948C62.438 21.9142 65.7047 22.9754 67.6272 25.0886C70.3618 28.0908 69.4851 38.2139 69.4851 38.2139C69.4851 39.9764 71.1031 41.4129 73.0932 41.4129C74.459 41.4129 75.6494 40.7362 76.2615 39.7426C76.6245 39.8534 77.012 39.9149 77.4181 39.9149C79.1006 39.9149 80.5156 38.8844 80.9124 37.5002C81.18 37.5556 81.4599 37.5895 81.746 37.5895C83.3978 37.5895 84.7912 36.599 85.2157 35.2517C85.4895 35.3101 85.7756 35.347 86.0708 35.347C88.4424 35.347 89.0638 33.5414 89.3591 31.7758C89.7097 29.6811 89.8451 25.9684 89.8451 18.5337C89.8451 18.5337 89.8451 18.5337 89.8451 18.5306C90.045 13.1538 87.8457 8.85968 83.2963 5.76523V5.75907ZM86.1601 32.6063C86.1354 32.6063 86.1078 32.6063 86.0678 32.6063C85.6464 32.6063 85.3511 32.3603 85.3511 32.1419V21.1483C85.3511 20.3947 84.7051 19.7825 83.9053 19.7825C83.1056 19.7825 82.4596 20.3947 82.4596 21.1483V34.3843C82.4596 34.6057 82.1643 34.8487 81.7429 34.8487C81.3215 34.8487 81.0262 34.6027 81.0262 34.3843V22.9816C81.0262 22.228 80.3803 21.6158 79.5805 21.6158C78.7807 21.6158 78.1348 22.228 78.1348 22.9816V28.5399C78.1348 28.5399 78.1348 28.5553 78.1348 28.5645V36.7097C78.1348 36.9312 77.8395 37.1742 77.4181 37.1742C76.9967 37.1742 76.7014 36.9281 76.7014 36.7097V26.2944C76.7014 25.5408 76.0554 24.9287 75.2557 24.9287C74.4559 24.9287 73.8099 25.5408 73.8099 26.2944V38.2077C73.8099 38.4292 73.5146 38.6722 73.0932 38.6722C72.6718 38.6722 72.3765 38.4261 72.3765 38.2293C72.3765 38.2293 73.2132 27.6478 69.8511 23.3353C67.658 20.5208 63.6653 19.2811 58.5253 19.2165C58.1009 19.2627 57.6733 19.2873 57.2488 19.2873C56.9812 19.2873 56.7228 19.2781 56.4644 19.2658C44.4865 20.0225 42.7947 29.0382 42.7763 29.1336L42.767 29.1981C42.7332 29.4657 41.9119 35.6424 36.615 35.9192C36.2859 35.2056 35.9168 32.3172 37.4425 25.4362C39.5557 15.9099 43.5176 6.55885 45.9538 5.3346C46.5444 5.12851 47.2488 4.92549 48.0485 4.7317C48.839 2.4124 49.8664 1.45576 51.5213 1.45576C51.6351 1.45576 51.752 1.45885 51.8689 1.46808C52.6779 1.5173 53.29 1.77259 53.6837 2.22168C53.8191 2.37548 53.9206 2.54468 53.9975 2.72001C55.3294 1.42194 57.7194 0.705221 62.2165 0.705221C65.474 0.705221 67.5288 1.49882 68.3193 3.06758C68.427 3.2829 68.4977 3.50439 68.5561 3.73508C68.6146 3.74124 68.6761 3.75047 68.7346 3.75662C69.7589 2.60927 70.8939 1.83104 72.315 1.83104C72.6749 1.83104 73.0471 1.88334 73.4162 1.98484C74.1668 2.19401 75.2157 2.58466 75.6463 3.57821C75.8524 4.05498 75.8893 4.60252 75.7509 5.23617C77.9225 5.92519 79.9158 6.82338 81.6137 7.97995C85.3418 10.5146 87.1413 14.0489 86.9598 18.4752H86.966C86.966 18.4937 86.9598 18.5091 86.9598 18.5275C86.9598 23.0492 87.3812 32.6033 86.1631 32.6063H86.1601Z" fill="white" fill-opacity="0.9"/>
<path d="M88.4775 34.2305C87.9885 34.8949 87.2441 35.3409 86.066 35.3409C85.9368 35.3409 85.8107 35.3317 85.6876 35.3194C86.2782 35.6024 87.5363 38.137 87.1825 41.5698C86.7088 46.1592 82.424 52.9694 77.4716 52.9694C76.3427 52.9848 76.4873 50.081 76.5058 49.9119C76.4473 50.5917 76.1121 52.5142 74.2695 54.5105C74.328 54.5905 74.3864 54.6704 74.4602 54.7442C75.2815 55.6024 76.5704 55.704 77.4716 55.704C84.2819 55.704 89.4772 47.4911 90.0586 41.8374C90.3631 38.8783 89.7049 35.9653 88.4806 34.2335L88.4775 34.2305Z" fill="white" fill-opacity="0.9"/>
<path d="M69.5988 33.2493C69.3435 33.6123 68.9928 33.9014 68.513 34.0706C68.3222 34.1382 68.0116 34.0798 67.6763 33.9168C66.8704 33.5261 65.8368 32.468 65.0986 30.6316C65.0032 30.204 64.8556 29.7888 64.6649 29.3889C64.6618 29.3797 64.6557 29.3705 64.6526 29.3612C63.4775 26.962 60.6507 25.1748 57.5286 25.1748C53.4529 25.1748 49.8786 28.2139 49.8324 31.699C49.5125 33.7783 48.9527 36.6052 47.7715 37.328C47.5439 37.4665 47.1563 37.6295 46.4058 37.4265C45.1631 37.0912 45.0308 34.1936 45.1446 31.6898C44.8063 32.7233 44.2987 33.8276 43.582 34.8457C43.7912 36.9097 44.4464 38.4785 45.969 38.8876C46.3474 38.9891 46.7103 39.0414 47.0548 39.0414C47.6393 39.0414 48.1714 38.8968 48.6482 38.6046C49.6079 38.014 50.2908 36.8851 50.8198 34.9195C52.1641 36.9682 54.7325 38.42 57.5347 38.42C60.9306 38.42 63.9789 36.2884 64.9294 33.5446C65.5262 34.3166 66.209 34.9072 66.9503 35.2671C67.424 35.4978 67.9008 35.6147 68.3438 35.6147C68.6022 35.6147 68.8513 35.5747 69.082 35.4917C69.2758 35.424 69.4542 35.344 69.6234 35.2548C69.6326 34.6365 69.6295 33.9568 69.608 33.2462L69.5988 33.2493ZM57.5255 36.9035C54.3357 36.9035 51.432 34.4581 51.432 31.7728C51.432 29.0875 54.3357 26.6974 57.5255 26.6974C59.9986 26.6974 62.2933 28.1524 63.2038 30.0441C63.3053 30.3824 63.416 30.7085 63.536 31.0192C63.5852 31.2653 63.6221 31.5175 63.6221 31.7697C63.6221 34.4551 60.7184 36.9005 57.5286 36.9005L57.5255 36.9035Z" fill="white" fill-opacity="0.9"/>
<path d="M75.3728 44.7505C74.7053 44.123 73.7763 43.8277 72.6136 43.8738C68.1349 44.1014 64.4837 45.8824 61.5492 47.3159C59.5222 48.3063 57.7688 49.1584 56.3108 49.2476C54.4837 49.3583 53.1118 49.0076 51.2108 48.5186C49.3314 48.0356 46.9936 47.4358 43.4193 47.1282C38.8054 46.7283 34.7143 48.6478 33.57 50.6564C33.3701 51.0101 32.4104 52.8188 33.2532 53.8031C33.5546 54.1569 34.1729 54.5075 35.3941 54.1722C35.8862 54.0369 36.3815 53.6893 37.0059 53.2464C38.2025 52.4035 39.842 51.247 42.0874 51.1885C43.8254 51.1455 45.9047 51.5884 48.1102 52.0621C50.8602 52.6527 53.7055 53.2617 56.3262 53.0218C60.7156 52.6189 62.8412 51.4746 64.7144 50.4657C66.6462 49.426 68.3164 48.5247 72.3337 48.737C72.7705 48.7616 73.155 48.4417 73.1796 48.0203C73.2042 47.6019 72.8658 47.2451 72.4229 47.2205C67.9319 46.9867 65.9848 48.0356 63.9208 49.1461C62.1029 50.1273 60.2204 51.1393 56.1724 51.5115C53.81 51.7268 51.0939 51.1455 48.467 50.5826C46.1601 50.0873 43.9792 49.6167 42.0444 49.6721C39.2914 49.7428 37.3412 51.1209 36.0493 52.0314C35.6125 52.339 35.1603 52.6589 34.945 52.7173C34.7327 52.7757 34.5943 52.7911 34.5113 52.7942C34.5051 52.4897 34.742 51.8037 34.985 51.3762C35.6186 50.2627 38.7931 48.251 43.2748 48.6385C46.7107 48.9369 48.9746 49.5183 50.7925 49.9827C52.7642 50.4872 54.3207 50.8871 56.4123 50.761C58.2056 50.6533 60.0974 49.7305 62.2844 48.6631C65.2281 47.2267 68.5656 45.5994 72.6905 45.3903C73.3918 45.3626 73.8993 45.5041 74.2439 45.8271C75.019 46.5561 74.9636 48.1372 74.9267 49.1861C74.9206 49.3614 74.9144 49.5213 74.9144 49.6628C74.9144 49.749 74.6099 58.1956 57.4182 58.1956C53.8531 58.1956 50.7279 58.2479 47.9687 58.291C41.383 58.3987 36.1785 58.4817 35.4525 57.4851C35.351 57.3436 35.3726 57.0944 35.5233 56.7407C35.8524 55.9686 37.6303 56.1716 38.4855 56.2701C38.8946 56.3162 39.156 56.3439 39.3806 56.3131C38.9315 55.8671 38.5316 55.2919 38.1963 54.7105C36.8521 54.5783 34.7327 54.5321 34.0345 56.1747C33.6715 57.0298 33.7023 57.7588 34.1298 58.3464C35.0403 59.6014 37.5011 59.8751 42.3427 59.8751C43.9515 59.8751 45.8278 59.8444 47.9964 59.8105C50.7494 59.7644 53.8685 59.7152 57.4182 59.7152C64.6191 59.7152 69.9621 58.2787 73.2934 55.4488C76.394 52.8157 76.517 49.992 76.5232 49.6782C76.5232 49.5459 76.5293 49.3952 76.5355 49.2322C76.5816 47.9218 76.6493 45.9378 75.3758 44.7443L75.3728 44.7505Z" fill="white" fill-opacity="0.9"/>
<path d="M35.9583 48.0637C34.5864 48.0637 33.1499 47.6238 32.8792 44.3571C32.8946 42.0071 35.4815 38.7681 40.32 38.7681C45.943 38.7681 46.8873 39.6539 47.0196 39.8323C47.0349 39.8508 47.0565 39.8846 47.0503 39.9031C46.9673 40.1215 46.4751 40.6352 43.6913 40.6352C43.0146 40.6352 42.2395 40.6075 41.249 40.549C40.9045 40.5306 40.6 40.7736 40.5692 41.0996C40.5384 41.4257 40.7876 41.7179 41.1352 41.7579C44.4419 42.127 47.1303 42.9791 47.238 43.4651C47.2226 43.6035 46.6012 44.1141 43.8236 44.1141C42.6886 44.1141 41.7319 44.028 41.7227 44.0249C41.3813 43.9911 41.0706 44.2249 41.0244 44.5478C40.9783 44.8708 41.2121 45.1723 41.5535 45.2276C44.4234 45.6921 47.1118 46.4365 47.7455 46.9256C47.2257 47.1409 45.5585 47.1501 44.4234 47.1532C44.2081 47.1532 43.9866 47.1532 43.7621 47.1563C45.6877 47.3378 47.2472 47.6023 48.5668 47.8822C48.9174 47.673 49.1174 47.3716 49.1174 46.9348C49.1174 46.2612 48.2623 45.646 46.5612 45.0923C47.7947 44.8247 48.4407 44.3233 48.5206 43.582C48.6129 42.7115 47.7086 42.0686 46.432 41.598C47.3025 41.3857 48.0039 41.0012 48.2653 40.303C48.413 39.9123 48.3422 39.4848 48.0746 39.1249C47.2841 38.0636 44.7495 37.5469 40.3262 37.5469C34.9371 37.5469 31.5996 41.0904 31.5996 44.3756C31.5996 44.391 31.5996 44.4063 31.5996 44.4217C31.8272 47.2485 32.9315 48.8173 34.9555 49.1864C35.6015 48.7097 36.4074 48.2821 37.3302 47.9345C36.8565 48.0083 36.3951 48.0606 35.9614 48.0606L35.9583 48.0637Z" fill="white" fill-opacity="0.9"/>
<path d="M70.0569 39.9235L69.7154 39.3175C69.5709 38.9699 69.4878 38.5977 69.4878 38.2071C69.4878 38.2071 69.6139 36.7337 69.6201 34.7466C69.1556 34.359 68.6511 34.2637 68.2666 34.2637C66.9963 34.2637 65.5352 35.2634 63.8434 36.423C61.9609 37.7118 59.8261 39.1729 57.6545 39.4805C55.9719 39.7205 54.4954 39.7389 53.1912 39.7574C51.2564 39.7851 49.8568 39.8035 49.0602 40.5818C48.6603 40.9755 48.4726 41.5015 48.4849 42.1936C48.5249 44.1068 49.7246 45.205 51.3856 45.8294C50.7673 46.0693 50.2813 46.4477 50.0322 47.0475C49.8691 47.4381 49.8261 47.8226 49.8907 48.1856C50.3582 48.2994 50.795 48.4101 51.2103 48.5178C51.3887 48.5639 51.5579 48.607 51.727 48.6501C51.5148 48.5209 51.3241 48.3609 51.2226 48.1764C51.1549 48.0533 51.0811 47.8473 51.2287 47.4935C51.6009 46.5953 53.7418 46.6292 55.4644 46.6568C56.2026 46.6691 56.9009 46.6784 57.5191 46.6322C58.7311 46.6291 59.9492 46.4108 61.1273 46.0324C63.4435 45.3957 64.7816 44.4175 65.9443 43.4824C66.1965 43.2917 66.4395 43.0948 66.6764 42.8918C67.8606 41.9506 69.0326 41.1785 71.3027 40.9816C70.7982 40.7232 70.3706 40.3603 70.0569 39.9266V39.9235ZM68.5312 38.8346C67.1255 41.2646 64.0064 43.8392 60.6074 44.9035C59.7308 45.1342 58.7003 45.3126 57.4576 45.4111C50.6289 45.4049 49.7984 43.5562 49.7707 42.1659C49.7584 41.643 49.9276 41.4769 49.983 41.4246C50.4074 41.0093 51.7055 40.9909 53.2066 40.9693C54.4831 40.9509 56.0734 40.9293 57.8421 40.6771C60.3214 40.3264 62.5914 38.7731 64.5939 37.4042C66.0427 36.4138 67.4115 35.611 68.2666 35.611C68.482 35.611 68.7496 35.6725 68.9957 35.9124C69.534 36.4415 69.2448 37.595 68.5312 38.8315V38.8346Z" fill="white" fill-opacity="0.9"/>
<path d="M70.6464 48.715C70.6249 50.01 70.4341 51.6465 69.9328 52.3201C69.01 51.7972 67.8165 50.293 67.1275 49.3272C66.746 49.4625 66.3861 49.6132 66.0416 49.7793C66.2754 50.8929 66.4661 52.72 65.8325 53.8027C64.802 53.4182 63.6424 52.2401 62.9164 51.3789C62.5319 51.5573 62.1167 51.7295 61.6676 51.8925C61.7937 52.8 61.8614 54.2795 61.2431 55.4115C60.2249 54.7563 59.1453 53.5197 58.5116 52.7292C58.001 52.8184 57.4473 52.8984 56.8536 52.963C56.583 53.6951 56.0324 54.8086 54.9773 55.7098C53.9776 54.7932 53.3747 53.7105 53.0425 52.9476C52.4919 52.8861 51.9382 52.8061 51.3845 52.7108C50.9847 53.4613 50.271 54.6025 49.2498 55.5068C48.2809 54.5133 47.8471 52.9107 47.6657 51.9633C47.2473 51.8741 46.8321 51.7849 46.423 51.7049C46.2076 52.3078 45.7247 53.449 44.6635 55.3346C43.7438 54.1073 43.1009 52.7138 42.741 51.1881C42.5164 51.1789 42.298 51.1758 42.0827 51.182C41.9135 51.1851 41.7474 51.1974 41.5813 51.2158C41.3137 53.1291 40.7847 54.6179 40.0064 55.6422C39.1421 54.7532 38.4592 53.2121 38.1578 52.4647C37.8686 52.6431 37.5979 52.8246 37.3457 53.003C37.761 53.9996 38.6284 55.8114 39.7573 56.6696C39.8465 56.7372 39.9541 56.7711 40.0587 56.7711C40.1941 56.7711 40.3263 56.7188 40.4217 56.6173C41.2491 55.7283 41.8613 54.4764 42.2488 52.883C42.7502 54.2303 43.47 55.4207 44.3559 56.4604C44.4574 56.5773 44.6112 56.6419 44.7742 56.6265C44.9342 56.6142 45.0757 56.525 45.1526 56.3927C46.0138 54.907 46.5675 53.8058 46.9213 53.0153C47.235 54.1565 47.8287 55.593 48.9237 56.4727C49.1021 56.6173 49.3636 56.6173 49.542 56.4758C50.7878 55.4976 51.6491 54.2026 52.1474 53.3014C52.5565 54.2334 53.3193 55.5745 54.6482 56.6603C54.8235 56.8018 55.0788 56.808 55.2603 56.6726C56.6906 55.6083 57.4104 54.2118 57.7518 53.2921C58.5178 54.2457 59.8989 55.8083 61.1816 56.4358C61.3969 56.5404 61.6583 56.4789 61.7968 56.2943C62.6365 55.1685 62.7626 53.6859 62.698 52.5508C63.5439 53.4582 64.7528 54.5287 65.9247 54.7778C66.1062 54.8178 66.2969 54.7532 66.4107 54.6117C67.2044 53.6459 67.2905 52.1755 67.1859 50.9698C67.9611 51.9264 68.9731 52.9815 69.8651 53.2983C70.022 53.3536 70.2004 53.329 70.3326 53.2306C71.4031 52.4339 71.5846 49.9947 71.603 48.7027C71.2647 48.6966 70.9478 48.7027 70.6402 48.7089L70.6464 48.715Z" fill="white" fill-opacity="0.9"/>
</svg>
