<svg width="90" height="86" viewBox="0 0 90 86" fill="none" xmlns="http://www.w3.org/2000/svg">
<path d="M0.066202 35.2296C2.30527 0.50394 28.9461 -1.11391 57.1914 0.351986C65.2494 0.767621 78.2547 2.60893 84.0825 8.61552C93.9818 18.8187 89.8612 46.921 83.3451 58.4202C82.3932 60.1051 79.8592 62.295 79.6178 64.0737C79.5016 64.9273 79.6893 64.619 80.1765 64.8335C82.706 65.9508 83.8278 65.6648 85.3116 68.6055C90.0891 78.0802 80.2435 84.4309 72.0604 85.2845H67.618C66.0851 84.5382 64.1991 84.6678 62.6081 83.841C61.4774 83.2555 59.578 80.9181 58.4875 80.8019C57.0707 80.65 54.4473 83.1214 52.9457 83.7203C50.8943 84.5382 42.0274 84.8421 39.9403 84.2834C38.2689 83.8365 34.1974 79.7338 33.0891 79.5684C30.4433 80.1762 28.7852 82.7237 26.068 83.0589C22.2334 83.5281 13.4246 83.4745 10.1442 81.6198C1.40249 76.6858 1.79578 69.0479 8.83923 62.7196C6.53759 59.3632 3.93205 56.1677 2.34549 52.3689C1.20585 49.6427 0.709766 47.0103 0.0617328 44.1635C0.200278 41.2049 -0.130442 38.1748 0.0617328 35.2251L0.066202 35.2296ZM78.1698 61.4816C80.753 54.961 85.1283 49.5354 86.5987 42.4741C87.6311 37.5178 87.7786 23.1136 86.4199 18.3405C82.563 4.8033 65.5354 2.69831 53.6384 2.13966C37.2007 1.36649 20.1239 1.37543 8.96436 15.3506C3.58346 22.0901 2.22035 41.2987 4.3745 49.4416C9.63474 69.2893 37.2678 68.6144 53.6384 67.8725C62.4427 67.4748 70.5856 66.1921 78.1698 61.4816ZM15.1765 73.6646H22.7339C22.7697 73.6646 22.6401 73.0747 22.8904 72.9227C23.3596 72.6322 23.6412 72.887 24.2267 72.2345C24.5976 71.8188 25.5808 70.4066 24.9507 69.8792C23.4669 68.6368 13.7375 65.5083 11.8515 65.5932C7.00686 65.8122 4.91974 72.6143 7.68617 76.507C10.0593 79.8455 14.9888 80.9896 18.9396 81.2801C23.811 81.6376 29.2187 80.4935 31.9896 76.0512C35.0019 71.2244 29.0355 67.4033 27.2165 69.9105C26.5909 70.773 26.6132 72.7305 25.9875 73.2534C24.8568 74.2099 19.2524 76.002 17.6391 75.9081C12.209 75.5953 10.2157 70.5138 16.5084 70.0937L15.1765 73.6646ZM81.7362 79.3762C83.3809 75.8188 85.5887 73.1596 82.7239 69.4233C79.8592 65.6871 75.1978 66.0178 71.6448 68.5563C64.9052 73.3741 71.8906 80.0109 76.038 76.1003C77.0883 75.1082 77.0212 72.8199 78.7284 72.7752C80.5563 78.6254 70.8761 80.5069 68.1231 76.9584C65.8751 74.0624 68.4493 69.1731 68.0605 68.753C66.3354 70.0893 62.6438 68.9585 61.6964 69.2446C60.5791 69.5842 60.0294 74.0579 60.0294 75.2288C60.0338 81.6332 66.9521 83.5996 72.2392 83.0052C75.8682 82.5941 78.5586 80.498 81.7407 79.3807L81.7362 79.3762ZM57.397 69.6423H51.1759C50.6351 73.3071 48.4631 77.9953 44.1012 75.6355C41.8487 74.4199 41.9515 71.0993 41.3034 70.6256C40.7984 70.2546 35.5516 69.115 35.2253 70.8267C36.7851 74.6121 35.2432 79.3047 39.3772 81.2801C42.6978 82.8667 47.1715 82.889 50.644 81.8388C56.4495 80.0824 57.8082 75.2288 57.397 69.6379V69.6423ZM48.9502 70.5406L44.0609 70.5406L44.2665 73.6825C44.9682 74.1652 46.4341 74.8266 47.1715 74.3618L48.9502 70.5406Z" fill="white" fill-opacity="0.9"/>
<path d="M40.8613 9.43815C46.8679 9.02251 64.2709 8.44152 69.2987 10.0772C75.0908 11.9632 81.6784 21.4692 82.2817 27.4132C83.5376 39.8599 80.0114 57.5579 65.4195 60.0562C55.48 61.759 35.8066 62.8182 26.2872 60.0339C10.3814 55.3725 3.72674 45.0174 9.63055 28.5395C14.7254 14.314 26.9576 10.399 40.8613 9.44262V9.43815ZM71.6182 11.999C61.5983 8.589 48.6377 9.18341 38.1932 10.7789C28.3565 12.285 16.1958 15.5654 11.7132 25.7149C7.23059 35.8645 6.48423 48.6374 17.3846 55.1356C28.1643 61.5623 59.5961 62.6618 70.4339 57.0529C71.3009 56.606 77.1422 52.4765 76.0606 51.319C70.197 54.1256 63.3145 57.5177 56.7492 58.0406C51.27 58.4741 38.4255 58.711 33.2189 57.987C29.8089 57.5133 26.2425 54.3759 23.2079 53.7547C20.0259 53.1022 17.1164 54.0854 14.283 51.5558C11.4495 49.0263 13.7333 47.8106 13.6707 45.7325C13.6439 44.8252 12.4372 43.9046 12.4908 42.175C12.5311 40.9191 13.4696 39.7795 13.3936 38.613C13.2953 37.1159 11.9009 36.2801 12.0394 33.6567C12.0931 32.6109 15.0338 24.8032 15.6952 23.9049C18.846 19.6011 26.2872 20.6469 30.7609 19.838C37.6256 18.5955 43.9718 12.2761 52.7448 11.5565C58.9838 11.0426 65.0396 13.6481 70.9657 12.8928C71.5825 12.8124 72.2439 12.656 71.6227 12.0035L71.6182 11.999ZM63.1625 14.2381C56.9369 12.5219 50.6175 13.1163 44.6511 15.4805C41.8266 16.6023 38.8635 18.8235 36.0524 19.7977C31.2614 21.4513 20.5398 21.8044 17.1745 24.9507C16.017 26.0323 15.0964 28.0076 16.2807 29.4199C17.465 30.8322 19.9276 28.8166 21.3935 28.973L21.4113 30.4657C19.9365 32.3338 16.1824 31.0512 14.9131 32.0567C13.8405 32.9059 14.1802 34.8008 15.0561 35.6947C16.96 37.6343 27.2973 41.0041 30.1754 41.3705C33.2592 41.7593 44.4902 40.0476 44.4724 44.3917C44.1685 46.7157 41.992 47.1358 40.5618 48.4542C40.2981 49.5626 45.2232 56.7267 38.43 53.6251C35.3195 52.2039 34.3094 49.7994 33.1027 46.8274C30.6357 46.2375 28.9777 47.6006 27.3777 47.7257C26.1755 47.8151 24.3252 46.9302 22.9443 46.8542C20.3655 46.7157 17.7511 46.9391 15.1723 46.8453C14.1891 53.2049 22.3543 51.1357 26.2962 52.4228C27.5341 52.8295 28.5218 53.929 29.6749 54.3893C41.9741 59.3009 62.2642 57.7501 73.3612 50.1614C78.1209 46.9034 79.8013 42.747 80.0605 37.0175C79.855 36.7762 74.9433 38.5549 73.9512 38.6845C66.8139 39.632 58.7693 33.5807 62.1972 25.9742C62.5056 25.2859 63.462 24.6692 63.5513 24.2133C63.6407 23.7574 62.291 21.3083 62.2553 19.8067C62.2061 17.8268 63.234 16.1777 63.167 14.2381H63.1625ZM71.1713 30.3137C69.1378 31.1182 67.2563 25.5943 66.0943 25.8624C59.7257 30.9931 67.8596 37.3751 74.0227 36.5304C85.3565 34.9841 79.5287 18.0101 71.6093 14.8995C67.6183 13.3308 64.8385 14.4973 64.5346 18.9799C64.2039 23.8736 72.3914 24.8703 71.1668 30.3093L71.1713 30.3137ZM16.5086 39.7035L14.7031 39.8957L14.35 40.432C14.2562 41.6566 13.9076 43.2431 14.9534 44.1682L16.5042 39.7035H16.5086ZM24.0616 45.0621C25.7911 40.5035 18.6807 38.9125 17.5812 42.3627C16.6248 45.357 22.2739 44.2442 24.0616 45.0621ZM28.057 45.5045L28.9553 43.5068C24.3699 40.6376 26.8816 46.3626 28.057 45.5045ZM39.1764 43.7213H35.1764C34.81 46.9615 35.9139 50.6352 39.1764 51.7659V43.7213Z" fill="white" fill-opacity="0.9"/>
<path d="M57.7065 32.2262C58.7121 33.4284 58.292 35.1401 57.1657 36.1188L55.5032 31.7658C52.0262 29.7636 48.1737 30.0363 44.5135 31.4351C42.5381 32.1904 39.6599 34.9345 38.3996 35.158C37.2153 35.368 35.6153 34.5546 34.0421 34.7513C32.831 34.9032 32.0668 35.9579 30.7305 35.6719C31.0031 33.3524 33.1706 32.8072 33.2422 30.0184C33.3405 26.3492 29.5953 25.1157 35.0164 22.7828C42.8599 19.4041 46.9179 25.3883 52.3614 29.3435C53.6842 30.3044 57.1389 31.5513 57.7065 32.2262ZM49.3938 28.9681C50.0016 28.4363 46.8777 26.1704 46.4888 25.862C42.4085 22.604 38.556 20.9191 34.2879 25.1782C33.8142 27.4307 39.0119 25.0933 39.8789 24.9861C41.613 24.7716 44.795 24.9727 46.0911 26.2643C47.1682 27.3369 46.8017 29.5178 49.3983 28.9681H49.3938ZM42.7347 26.2955C41.2241 26.2419 39.4454 26.2509 38.2968 27.4084C39.3873 29.0039 41.1079 28.7089 42.6677 28.0117L42.7347 26.2911V26.2955ZM44.9514 28.0788C44.4822 27.5514 43.1816 29.3435 42.699 29.6028C39.1057 31.5424 37.6577 28.6374 34.7304 27.6318C35.7762 29.5491 38.1404 30.7424 40.2856 30.7513C41.1928 30.7513 46.4173 29.7189 44.9514 28.0788ZM34.2835 33.4463C35.7136 33.2675 37.6309 34.0138 38.7214 32.7714C38.7035 32.11 35.079 30.9435 34.2879 31.2072V33.4463H34.2835Z" fill="white" fill-opacity="0.9"/>
<path d="M26.279 25.3975C27.5304 28.3963 26.2969 32.9593 22.7305 33.4375C25.6042 31.261 27.0566 29.0041 25.3986 25.4019H26.279V25.3975Z" fill="white" fill-opacity="0.9"/>
</svg>
