<svg width="90" height="72" viewBox="0 0 90 72" fill="none" xmlns="http://www.w3.org/2000/svg">
<path d="M32.0963 1.69766C31.3332 0.92639 30.3596 0.827933 29.5993 0.827933C28.5736 0.827933 27.2964 0.827943 26.3966 2.01766C26.3227 2.11612 26.2544 2.22278 26.186 2.33218C25.6281 1.36673 24.7173 0.825195 23.2049 0.825195C22.1792 0.825195 20.8993 0.825194 19.9995 2.02038C19.9256 2.11611 19.8572 2.22278 19.7916 2.33218C19.2337 1.36673 18.3229 0.825195 16.8105 0.825195C14.1056 0.825195 12.8967 1.58825 12.4017 6.32799C11.9394 10.7559 11.9395 19.4723 11.9395 36.8395C11.9395 64.5996 11.9395 68.166 13.5804 69.7824C14.2286 70.4224 14.9972 70.488 15.659 70.488C15.7493 70.488 15.8395 70.488 15.9271 70.488C16.02 70.488 16.1158 70.488 16.217 70.488C17.8005 70.488 18.755 70.0176 19.354 68.8388C19.8764 70.0422 20.7352 70.4908 22.2148 70.4908C22.2503 70.4908 22.2859 70.4908 22.3242 70.4908C22.4172 70.4908 22.5129 70.4908 22.6141 70.4908C24.2031 70.4908 25.1549 70.0203 25.7511 68.8416C26.2735 70.0449 27.135 70.4935 28.6092 70.4935C28.6447 70.4935 28.6803 70.4935 28.7159 70.4935C28.8088 70.4935 28.9046 70.4908 29.0058 70.4908C31.6286 70.4908 32.5585 69.2381 32.9797 65.1329C33.4036 61.0058 33.4529 53.0169 33.4529 37.0145C33.4529 30.1524 33.4994 24.6223 33.5376 20.1807C33.6525 6.53859 33.6799 3.29763 32.0963 1.70039V1.69766ZM17.1277 67.7804C17.0129 67.9828 16.9882 68.0238 16.2197 68.0238C16.1076 68.0238 16.0009 68.0238 15.897 68.0265C15.6891 68.0293 15.4074 68.0347 15.2925 68.0101C14.4037 66.9544 14.4037 58.0767 14.4037 36.8422C14.4037 19.5598 14.4037 10.8872 14.8522 6.58507C15.0765 4.43811 15.3883 3.69693 15.6125 3.45625C15.7438 3.31403 16.0419 3.28942 16.8132 3.28942C17.5188 3.28942 17.5763 3.39882 17.6884 3.61762C18.0986 4.4135 18.2162 6.3991 18.2709 7.82129C18.3721 10.4934 18.3393 14.3388 18.2901 20.1588C18.2518 24.6059 18.2053 30.1415 18.2053 37.0118C18.2053 49.5517 18.1834 58.1231 17.9072 62.8218C17.8498 63.8119 17.672 66.8204 17.1277 67.7804ZM23.5194 67.7831C23.4072 67.9773 23.3826 68.0238 22.6141 68.0238C22.502 68.0238 22.3953 68.0238 22.2914 68.0265C22.0835 68.0265 21.8018 68.0347 21.6897 68.0101C21.4982 67.7694 21.17 66.763 20.9977 62.8273C20.7981 58.2599 20.7981 50.1972 20.7981 36.8395C20.7981 21.3321 20.7981 12.788 21.1208 8.06745C21.1317 7.9307 21.1399 7.79668 21.1509 7.66813C21.3232 5.39536 21.5994 3.99232 21.9686 3.50276C22.0972 3.33045 22.2558 3.28942 23.2076 3.28942C23.9132 3.28942 23.9707 3.39882 24.0828 3.61762C24.493 4.4135 24.6106 6.3991 24.6653 7.82403C24.7665 10.4961 24.7337 14.3388 24.6845 20.1588C24.6462 24.6059 24.5997 30.1415 24.5997 37.0118C24.5997 49.5955 24.5778 58.1943 24.2988 62.882C24.2414 63.8612 24.0609 66.8368 23.5194 67.7831ZM31.0762 20.1561C31.0379 24.6032 30.9914 30.1388 30.9914 37.0118C30.9914 52.9267 30.9449 60.8636 30.5319 64.8786C30.3213 66.9216 30.0368 67.6464 29.8372 67.898C29.7716 67.9773 29.684 68.0265 29.0058 68.0265C28.8936 68.0265 28.787 68.0265 28.683 68.0293C28.4752 68.0293 28.1935 68.0375 28.0813 68.0129C27.8872 67.7722 27.559 66.752 27.3867 62.7644C27.1925 58.1861 27.1925 50.1534 27.1925 36.8422C27.1925 21.0039 27.1925 12.2793 27.5453 7.65446C27.7176 5.3899 27.9938 3.99232 28.363 3.50549C28.4916 3.33593 28.6502 3.29216 29.602 3.29216C30.2092 3.29216 30.3131 3.39609 30.3514 3.43438C31.2129 4.30411 31.1691 9.60177 31.0789 20.1588L31.0762 20.1561Z" fill="white" fill-opacity="0.9"/>
<path d="M8.35014 12.5067H8.12314C7.07017 12.5149 4.60049 12.534 3.33145 11.213C2.68873 10.5429 2.40429 9.58295 2.4672 8.28384C2.71881 3.11198 5.87772 2.4173 7.74298 2.46106C10.3303 2.52396 12.4307 4.05555 12.4307 5.021C12.4307 5.16869 12.4608 5.3109 12.5101 5.44218C12.7261 3.90238 13.0434 2.8631 13.5001 2.16841C12.108 0.872028 9.88174 0.0515366 7.80315 0.00230683C4.23673 -0.0797428 0.309288 2.01525 0.0111743 8.16623C-0.0845502 10.1518 0.435096 11.7518 1.55644 12.9196C3.40529 14.8451 6.28523 14.9709 7.79494 14.9709C7.92075 14.9709 8.03562 14.9709 8.13955 14.9709H8.34742C9.92277 14.9709 11.1371 14.7028 12.0342 14.3829C12.0533 13.3955 12.0725 12.4875 12.0998 11.6479C11.6239 11.9432 10.4424 12.5094 8.35014 12.5094V12.5067Z" fill="white" fill-opacity="0.9"/>
<path d="M8.34874 68.0721C5.29649 68.0721 2.47125 67.4513 2.47125 62.955C2.47125 61.3085 2.97449 60.0559 3.97003 59.2354C4.82334 58.5325 6.05409 58.1441 7.43252 58.1441C9.76 58.1441 12.0437 59.3174 12.0437 60.5153C12.0437 60.5892 12.0519 60.6576 12.0656 60.7287C12.0355 59.5882 12.0136 58.2973 11.9972 56.8341C10.6872 56.0929 9.02975 55.6826 7.43252 55.6826C5.48248 55.6826 3.69653 56.2706 2.40288 57.3373C1.31162 58.2371 0.00976562 59.9465 0.00976562 62.955C0.00976562 67.9846 2.81586 70.5336 8.34874 70.5336C10.0581 70.5336 11.907 69.7541 13.0967 69.1442C12.8095 68.6301 12.5934 67.8971 12.4321 66.7073C11.4256 67.2653 9.67794 68.0748 8.35147 68.0748L8.34874 68.0721Z" fill="white" fill-opacity="0.9"/>
<path d="M6.32954 47.192C3.80515 45.4662 2.47047 41.4595 2.47047 35.6039C2.47047 29.7483 3.72309 26.1408 6.09433 24.6885C8.17565 23.414 10.7602 24.1224 11.9527 24.5709C11.9527 23.6711 11.9581 22.8069 11.9609 21.9782C10.1804 21.4503 7.34968 21.0455 4.82803 22.5799C1.63083 24.5244 0.0117187 28.9059 0.0117187 35.6039C0.0117187 42.3018 1.67732 47.006 4.96751 49.2378C6.61671 50.3564 8.38898 50.6846 9.89869 50.6846C10.6727 50.6846 11.3756 50.5998 11.9581 50.4904C11.9581 49.6863 11.9527 48.8494 11.9527 47.9715C10.7465 48.2586 8.34522 48.565 6.33501 47.1893L6.32954 47.192Z" fill="white" fill-opacity="0.9"/>
<path d="M8.03042 29.7262C7.02941 31.2414 6.52344 33.4567 6.52344 36.3121C6.52344 39.1674 7.0595 41.3417 8.1152 42.7885C9.27484 44.3775 10.7025 44.6155 11.4492 44.6155C11.6187 44.6155 11.7856 44.6046 11.9442 44.5827C11.9442 44.1259 11.9442 43.661 11.9442 43.1878C11.6625 43.2589 11.2905 43.2836 10.8639 43.1742C9.96952 42.9444 7.89093 41.8203 7.89093 36.3148C7.89093 30.8093 10.0406 29.0999 11.3097 29.0999C11.5449 29.0999 11.7609 29.1492 11.9442 29.2312C11.9442 28.7471 11.9442 28.2712 11.9442 27.8008C11.7418 27.757 11.5285 27.7324 11.3069 27.7324C10.0625 27.7324 8.86732 28.4599 8.02768 29.729L8.03042 29.7262Z" fill="white" fill-opacity="0.9"/>
<path d="M57.1909 49.6254C53.1322 49.6254 49.0324 47.7547 44.9901 44.0543C44.8233 43.9011 44.8123 43.6413 44.9655 43.4745C45.1186 43.3076 45.3785 43.2967 45.5453 43.4499C49.697 47.2488 53.8843 49.0429 57.9868 48.7776C63.5306 48.4193 67.0286 44.3469 67.0642 44.3059C67.2091 44.1336 67.469 44.1117 67.6413 44.2567C67.8136 44.4016 67.8354 44.6615 67.6905 44.8338C67.5401 45.0115 63.9463 49.2097 58.0497 49.5954C57.7625 49.6145 57.4753 49.6227 57.1909 49.6227V49.6254Z" fill="white" fill-opacity="0.9"/>
<path d="M41.7758 23.4494C41.9974 23.4057 42.1451 23.1923 42.1013 22.9708C42.0603 22.7493 41.8469 22.6016 41.6227 22.6426C41.5023 22.6645 38.6388 23.2333 37.9961 26.1734C37.9469 26.395 38.0891 26.6138 38.3079 26.663C38.338 26.6685 38.368 26.674 38.3954 26.674C38.5841 26.674 38.7537 26.5427 38.7947 26.3512C39.3198 23.9499 41.6719 23.4686 41.7704 23.4494H41.7758Z" fill="white" fill-opacity="0.9"/>
<path d="M45.7836 23.4876C45.7343 23.4958 40.7676 24.2588 39.2716 29.19C39.2059 29.4061 39.329 29.6358 39.5451 29.7015C39.5861 29.7124 39.6244 29.7179 39.6654 29.7179C39.8404 29.7179 40.0045 29.603 40.0565 29.428C41.3994 25.0055 45.7179 24.3245 45.9012 24.2971C46.1254 24.2643 46.2813 24.0564 46.2485 23.8322C46.2157 23.6079 46.0078 23.452 45.7836 23.4848V23.4876Z" fill="white" fill-opacity="0.9"/>
<path d="M72.4675 29.7645C70.46 24.1632 64.8889 23.8487 64.8342 23.846C64.6072 23.8378 64.4157 24.0101 64.4048 24.2371C64.3938 24.4641 64.5689 24.6555 64.7959 24.6665C64.8451 24.6665 69.872 24.9509 71.6935 30.0407C71.7537 30.2076 71.9123 30.3142 72.0792 30.3142C72.1256 30.3142 72.1721 30.306 72.2186 30.2896C72.432 30.213 72.5441 29.9778 72.4675 29.7645Z" fill="white" fill-opacity="0.9"/>
<path d="M40.1009 41.3466C38.7717 41.3466 37.6914 40.414 37.6914 39.268C37.6914 38.1221 38.7717 37.1895 40.1009 37.1895C41.4301 37.1895 42.5105 38.1221 42.5105 39.268C42.5105 40.414 41.4301 41.3466 40.1009 41.3466ZM40.1009 38.2807C39.3871 38.2807 38.7854 38.732 38.7854 39.2653C38.7854 39.7986 39.3871 40.2499 40.1009 40.2499C40.8148 40.2499 41.4165 39.7986 41.4165 39.2653C41.4165 38.732 40.8148 38.2807 40.1009 38.2807Z" fill="white" fill-opacity="0.9"/>
<path d="M43.9996 31.7822C43.0041 31.7822 42.1973 31.0437 42.1973 30.1357C42.1973 29.2277 43.0068 28.4893 43.9996 28.4893C44.9924 28.4893 45.802 29.2277 45.802 30.1357C45.802 31.0437 44.9924 31.7822 43.9996 31.7822ZM43.9996 29.5833C43.614 29.5833 43.2913 29.8376 43.2913 30.1357C43.2913 30.4338 43.6167 30.6882 43.9996 30.6882C44.3825 30.6882 44.708 30.4338 44.708 30.1357C44.708 29.8376 44.3825 29.5833 43.9996 29.5833Z" fill="white" fill-opacity="0.9"/>
<path d="M51.0837 29.5839C49.8475 29.5839 48.8438 28.7305 48.8438 27.683C48.8438 26.6355 49.8475 25.7822 51.0837 25.7822C52.3199 25.7822 53.3237 26.6355 53.3237 27.683C53.3237 28.7305 52.3199 29.5839 51.0837 29.5839ZM51.0837 26.8735C50.4629 26.8735 49.9377 27.2427 49.9377 27.6803C49.9377 28.1179 50.4629 28.4871 51.0837 28.4871C51.7045 28.4871 52.2297 28.1179 52.2297 27.6803C52.2297 27.2427 51.7045 26.8735 51.0837 26.8735Z" fill="white" fill-opacity="0.9"/>
<path d="M58.1462 29.209C56.7897 29.209 55.6875 28.2517 55.6875 27.0757C55.6875 25.8996 56.7897 24.9424 58.1462 24.9424C59.5028 24.9424 60.605 25.8996 60.605 27.0757C60.605 28.2517 59.5028 29.209 58.1462 29.209ZM58.1462 26.0337C57.4051 26.0337 56.7815 26.5095 56.7815 27.0729C56.7815 27.6364 57.4078 28.1122 58.1462 28.1122C58.8847 28.1122 59.511 27.6446 59.511 27.0729C59.511 26.5013 58.8984 26.0337 58.1462 26.0337Z" fill="white" fill-opacity="0.9"/>
<path d="M65.8262 30.6001C64.7678 30.6001 63.9062 29.7495 63.9062 28.7047C63.9062 27.66 64.7678 26.8066 65.8262 26.8066C66.8846 26.8066 67.7462 27.6572 67.7462 28.7047C67.7462 29.7522 66.8846 30.6001 65.8262 30.6001ZM65.8262 27.9006C65.3695 27.9006 65.0002 28.2617 65.0002 28.7047C65.0002 29.1478 65.3722 29.5061 65.8262 29.5061C66.2802 29.5061 66.6522 29.1451 66.6522 28.7047C66.6522 28.2644 66.2802 27.9006 65.8262 27.9006Z" fill="white" fill-opacity="0.9"/>
<path d="M41.8222 5.80581C42.1148 5.7347 42.298 5.44206 42.2269 5.14668C42.1558 4.85404 41.8632 4.67078 41.5678 4.74189C40.8841 4.90599 36.1772 6.08478 33.5352 8.23995C33.5488 8.69396 33.5598 9.18352 33.5652 9.7059C35.3457 7.72851 39.9077 6.26529 41.8194 5.80854L41.8222 5.80581Z" fill="white" fill-opacity="0.9"/>
<path d="M41.5408 10.25C41.2728 10.3266 36.4155 11.7269 33.5766 14.243C33.5766 14.7381 33.5711 15.2523 33.5684 15.7883C35.8904 13.0178 41.7706 11.3221 41.839 11.3002C42.1289 11.2182 42.2984 10.9146 42.2164 10.6247C42.1343 10.3348 41.8335 10.1652 41.5408 10.2472V10.25Z" fill="white" fill-opacity="0.9"/>
<path d="M56.6036 42.4845C54.5824 42.4845 52.9414 40.9857 52.9414 39.1451C52.9414 37.3044 54.5851 35.8057 56.6036 35.8057C58.622 35.8057 60.2657 37.3044 60.2657 39.1451C60.2657 40.9857 58.622 42.4845 56.6036 42.4845ZM56.6036 36.8997C55.1868 36.8997 54.0354 37.9061 54.0354 39.1451C54.0354 40.384 55.1868 41.3905 56.6036 41.3905C58.0203 41.3905 59.1717 40.384 59.1717 39.1451C59.1717 37.9061 58.0203 36.8997 56.6036 36.8997Z" fill="white" fill-opacity="0.9"/>
<path d="M56.6015 40.6653C55.7017 40.6653 54.9688 39.9843 54.9688 39.1447C54.9688 38.305 55.7017 37.624 56.6015 37.624C57.5013 37.624 58.2343 38.305 58.2343 39.1447C58.2343 39.9843 57.5013 40.6653 56.6015 40.6653ZM56.6015 38.7207C56.3089 38.7207 56.0627 38.9149 56.0627 39.1474C56.0627 39.3799 56.3089 39.5741 56.6015 39.5741C56.8942 39.5741 57.1403 39.3799 57.1403 39.1474C57.1403 38.9149 56.8942 38.7207 56.6015 38.7207Z" fill="white" fill-opacity="0.9"/>
<path d="M39.7309 47.4111C38.0653 47.8515 37.4253 49.2217 37.3979 49.2791C37.3049 49.4843 37.3952 49.7277 37.6003 49.8234C37.655 49.848 37.7124 49.8617 37.7699 49.8617C37.9258 49.8617 38.0735 49.7714 38.1446 49.621C38.15 49.6101 38.6478 48.5489 39.9415 48.207C40.1603 48.1496 40.2915 47.9253 40.2341 47.7065C40.1767 47.4877 39.9524 47.3564 39.7336 47.4139L39.7309 47.4111Z" fill="white" fill-opacity="0.9"/>
<path d="M46.1948 51.1255C44.6769 51.2841 43.8811 52.6899 43.8482 52.75C43.7388 52.947 43.8099 53.1986 44.0069 53.308C44.0698 53.3435 44.1382 53.3599 44.2065 53.3599C44.3515 53.3599 44.491 53.2834 44.5648 53.1493C44.5703 53.1384 45.1829 52.0581 46.2796 51.9432C46.5039 51.9186 46.668 51.7189 46.6461 51.4919C46.6215 51.2677 46.4191 51.1008 46.1948 51.1255Z" fill="white" fill-opacity="0.9"/>
<path d="M52.8379 53.7588C52.775 53.54 52.548 53.4142 52.3319 53.4771C51 53.8546 50.2998 55.3068 50.2697 55.3697C50.174 55.5749 50.2588 55.8183 50.4639 55.914C50.5214 55.9414 50.5815 55.9523 50.639 55.9523C50.7921 55.9523 50.9398 55.8675 51.0109 55.7198C51.0164 55.7089 51.5853 54.541 52.5534 54.2648C52.7722 54.2019 52.8981 53.9776 52.8352 53.7588H52.8379Z" fill="white" fill-opacity="0.9"/>
<path d="M88.6797 38.5163C88.9532 38.3193 89.1337 38.0185 89.1775 37.6848C89.1966 37.5481 89.6424 34.2688 89.8694 30.7051C90.3015 23.9415 89.585 22.2568 88.8301 21.4992C87.3204 19.9895 86.0486 20.7197 85.1187 21.253C84.1396 21.8137 82.66 22.6615 79.3999 22.6615C76.457 22.6615 74.8844 22.172 73.0656 21.6086C70.9542 20.9522 68.5639 20.2082 63.7858 20.2082C55.6164 20.2082 43.8806 19.9785 42.814 19.9566C42.0208 19.8445 36.5946 19.199 33.4002 21.9313C31.8877 23.225 31.1137 25.0246 31.1028 27.2864C30.9332 29.5181 31.4145 31.2822 32.5332 32.5348C33.6271 33.7601 35.1205 34.2606 36.4551 34.4767C34.8005 35.6856 33.8979 37.0859 33.7721 38.653C33.7037 39.4926 33.876 40.2666 34.155 40.9449C33.2197 41.1856 32.4429 41.8557 31.8549 42.9469C30.791 44.9216 30.6953 46.9181 31.5705 48.8791C32.3609 50.6487 33.9335 52.2486 35.8945 53.6653C35.5854 54.3628 35.3174 55.3063 35.5143 56.2608C35.5362 56.3593 35.5608 56.4578 35.5909 56.5535C34.5981 56.5945 33.4713 56.8297 32.5797 57.5299C31.9205 58.0495 31.1383 59.0369 31.1383 60.7982C31.1383 62.9534 31.9615 64.8323 33.5834 66.3803C38.2739 70.8547 49.0251 71.7053 57.3614 71.7053C60.7445 71.7053 63.7311 71.5658 65.7496 71.4701C66.6384 71.4291 67.3413 71.3963 67.6914 71.3963C68.0087 71.3963 68.3779 71.4072 68.8073 71.4236C70.049 71.4647 71.6599 71.5166 73.3364 71.3033C73.5552 71.3033 73.7877 71.306 74.0338 71.3088C74.3484 71.3115 74.6875 71.317 75.0458 71.317C77.9558 71.317 82.1239 71.0298 85.2363 67.9584C87.9905 65.2398 89.3853 60.8146 89.3853 54.8086V54.5159C89.3853 47.7769 90.0855 44.0163 88.573 41.3798C87.717 39.8892 85.7396 38.6694 84.0603 38.1224C85.1598 38.281 86.3768 38.4834 87.7361 38.7351C88.0671 38.7952 88.4089 38.7186 88.6824 38.5217L88.6797 38.5163ZM68.8866 68.9539C68.4545 68.9403 68.047 68.9266 67.6887 68.9266C67.2812 68.9266 66.5892 68.9594 65.632 69.0032C59.5685 69.2876 41.1128 70.1546 35.2791 64.5916C34.1468 63.5113 33.5943 62.2669 33.5943 60.79C33.5943 59.9531 33.8788 59.6276 34.0948 59.458C34.981 58.7716 37.0158 58.8673 38.2001 58.9521C38.944 59.1982 39.6387 59.1928 40.2732 58.9247C40.3333 58.9001 40.3935 58.87 40.4509 58.8427C40.4892 59.1271 40.5604 59.4116 40.6834 59.6851C41.0226 60.4509 41.6899 61.0033 42.6143 61.2768C43.7001 61.5996 44.6847 61.5257 45.538 61.0553C45.6802 60.9787 45.8115 60.8912 45.9346 60.8009C45.992 61.0389 46.0768 61.2796 46.1971 61.5148C46.7305 62.565 47.8026 63.2487 49.3807 63.5523C49.9277 63.6563 50.4391 63.7082 50.9177 63.7082C52.0199 63.7082 52.9416 63.432 53.6664 62.8795C54.5197 62.2313 54.9081 61.3726 55.0804 60.8365C55.1105 60.7736 55.2226 60.202 55.2281 60.1746C55.2363 60.1281 55.2445 60.0871 55.2527 60.0461C55.4113 59.3842 55.1761 58.974 54.517 58.8153C49.5858 57.6256 36.2582 53.3399 33.8186 47.8699C33.2634 46.6228 33.329 45.392 34.021 44.1093C34.2753 43.6361 34.5324 43.3681 34.7841 43.3134C35.1341 43.2368 35.6538 43.4228 36.2746 43.762C36.3239 43.7948 36.3731 43.8221 36.4251 43.844C37.3495 44.3719 38.4708 45.2088 39.573 46.032C43.6317 49.0651 49.192 53.2168 56.973 53.2168C60.791 53.2168 62.3172 52.5796 63.6655 52.0162C64.8744 51.5102 65.9219 51.0726 68.821 51.0726C76.1945 51.0726 79.7773 54.1385 79.7773 60.4509C79.7773 63.3691 79.0607 65.5434 77.644 66.9136C75.322 69.1618 71.452 69.036 68.8921 68.9512L68.8866 68.9539ZM37.0432 54.4448C38.2055 55.1915 39.4609 55.8807 40.7491 56.5097C40.7381 56.5453 40.7244 56.5809 40.7135 56.6164C40.5303 56.9911 40.2185 57.4642 39.7426 57.6666C39.2749 57.8636 38.6842 57.7624 37.984 57.3658C37.3385 56.9993 36.9693 56.548 36.8517 55.9846C36.7423 55.4595 36.8654 54.9043 37.0459 54.4448H37.0432ZM41.988 57.1196C41.988 57.1196 41.9935 57.1032 41.999 57.095C43.3309 57.6995 44.6683 58.241 45.9455 58.7169C45.9018 58.7935 45.4669 59.5374 44.8816 59.8574C44.351 60.1473 43.7357 60.1856 43.0054 59.9668C42.4639 59.8054 42.1138 59.5346 41.936 59.1353C41.6653 58.5309 41.8102 57.7022 41.9907 57.1196H41.988ZM47.2939 59.2064C47.4689 59.2666 47.644 59.3295 47.8135 59.3869C50.3899 60.2703 52.5068 60.8447 53.4421 61.0881C53.3054 61.3343 53.1085 61.5913 52.8213 61.8047C52.1047 62.3407 51.0326 62.4775 49.635 62.2122C48.4973 61.9934 47.7506 61.5531 47.417 60.9049C47.1243 60.3305 47.1817 59.6769 47.2911 59.2092L47.2939 59.2064ZM86.902 36.0794C79.1045 34.7228 76.0331 35.0756 73.0602 35.4148C71.7419 35.5652 70.4948 35.7102 68.8319 35.6965C67.6285 35.5925 66.7178 34.701 65.5663 33.5714C63.857 31.8976 61.7291 29.8108 57.7771 29.8108C53.4886 29.8108 51.2377 30.8774 49.4272 31.7362C48.4125 32.2176 45.7349 33.2788 43.309 33.2104C44.2444 34.3044 44.7339 35.7184 45.0129 36.3037C45.2919 36.8889 45.5572 37.5864 45.8307 38.3029C47.1708 41.8256 49.1974 47.1506 56.5628 47.4159C61.2861 47.5855 63.3182 45.7612 65.2819 43.9972C67.5629 41.9487 69.9232 39.8291 77.3514 39.8291C83.1578 39.8291 84.8616 40.7699 85.7341 42.2878C86.9211 44.3555 86.9211 48.3923 86.9211 54.505V54.7976C86.9211 60.1227 85.7724 63.9571 83.5051 66.1971C82.3838 67.302 81.0573 67.9529 79.6953 68.3303C81.38 66.487 82.2361 63.8395 82.2361 60.4509C82.2361 52.8175 77.4717 48.6111 68.8182 48.6111C65.4241 48.6111 64.0457 49.1882 62.711 49.7434C61.4693 50.263 60.2933 50.7553 56.9675 50.7553C50.0043 50.7553 44.8215 46.8853 41.039 44.0628C39.7563 43.1056 38.6404 42.2714 37.612 41.6916C37.1061 41.2184 36.1187 40.0314 36.2199 38.8363C36.3047 37.8325 37.1307 36.8643 38.6759 35.9536C40.161 35.0784 41.2359 34.4466 40.946 33.3088C40.6779 32.2586 39.6523 32.223 38.6623 32.1902C37.4507 32.1492 35.4213 32.0781 34.3629 30.8938C33.7037 30.1554 33.4302 28.9876 33.5533 27.4314C33.5533 27.3985 33.5561 27.3657 33.5561 27.3329C33.5561 25.7822 34.0237 24.628 34.9864 23.8048C37.4972 21.6523 42.4639 22.3935 42.5104 22.399C42.5651 22.4072 42.6225 22.4126 42.6772 22.4126C42.803 22.4126 55.2281 22.667 63.7749 22.667C68.1782 22.667 70.2869 23.3234 72.3245 23.9552C74.1679 24.5268 76.0714 25.1203 79.3889 25.1203C83.3027 25.1203 85.198 24.0345 86.3303 23.3836C86.5273 23.2714 86.7625 23.1347 86.902 23.0773C86.9402 23.1046 86.9922 23.1484 87.0633 23.2195C87.8154 24.2068 87.583 30.4152 86.8937 36.0739L86.902 36.0794ZM56.8882 32.9889C52.6189 32.9889 49.0962 35.5543 48.675 38.828C48.4863 38.3658 48.3086 37.8954 48.1308 37.4305C47.819 36.61 47.5264 35.8387 47.1927 35.155C48.4453 34.9307 49.4463 34.4548 50.4829 33.9652C52.2333 33.1338 54.0411 32.2777 57.7771 32.2777C60.7254 32.2777 62.2406 33.7629 63.8433 35.3327C65.1834 36.6455 66.5673 38.0021 68.6897 38.158C68.717 38.158 68.7416 38.158 68.769 38.1607C69.4801 38.1662 70.1255 38.147 70.7272 38.1087C68.0032 38.8171 66.2719 39.9467 64.8962 41.0762C65.0576 40.5675 65.1451 40.0369 65.1451 39.4899C65.1451 35.9071 61.442 32.9889 56.891 32.9889H56.8882ZM64.0484 39.4872C64.0484 42.4683 60.8375 44.8915 56.8882 44.8915C52.9389 44.8915 49.7253 42.4656 49.7253 39.4872C49.7253 36.5088 52.9389 34.0801 56.8882 34.0801C60.8375 34.0801 64.0484 36.506 64.0484 39.4872Z" fill="white" fill-opacity="0.9"/>
<path d="M81.4934 22.5245C81.9146 22.4643 82.2921 22.3877 82.6339 22.3002C83.252 17.6288 80.6347 15.3889 80.5089 15.2849C80.2764 15.0935 79.9345 15.1263 79.7403 15.3561C79.5461 15.5858 79.579 15.9304 79.8087 16.1246C79.9154 16.2148 82.2155 18.2223 81.4934 22.5217V22.5245Z" fill="white" fill-opacity="0.9"/>
<path d="M76.6069 29.2065C76.3197 29.1135 76.0106 29.2667 75.9149 29.5539C75.8192 29.841 75.9751 30.1501 76.2623 30.2458C76.3115 30.2622 78.8496 31.0772 81.7705 31.0772C83.7069 31.0772 85.8101 30.7135 87.4702 29.5238C87.4949 29.0123 87.514 28.5173 87.5249 28.0469C84.016 31.5887 76.6862 29.2311 76.6069 29.2065Z" fill="white" fill-opacity="0.9"/>
<path d="M75.7992 25.9128C75.6078 25.7487 75.3233 25.7323 75.1127 25.8882C74.8721 26.0687 74.8228 26.4133 75.0033 26.654C75.3425 27.108 77.7411 27.7261 80.0521 27.8054C80.2272 27.8109 80.4049 27.8136 80.5882 27.8136C82.675 27.8136 85.2787 27.3897 87.5132 25.7679C87.494 25.2701 87.4612 24.8298 87.412 24.4551C83.0688 28.1856 76.4666 26.2738 75.7965 25.9128H75.7992Z" fill="white" fill-opacity="0.9"/>
<path d="M76.8749 32.3352C76.5823 32.2559 76.2842 32.4282 76.2049 32.7208C76.1255 33.0134 76.2978 33.3116 76.5877 33.3909C76.8038 33.4483 79.8014 34.2469 82.9192 34.2469C84.4098 34.2469 85.925 34.0609 87.1776 33.5276C87.2186 33.101 87.2569 32.677 87.2898 32.2559C83.9832 34.225 76.9515 32.3543 76.8749 32.3324V32.3352Z" fill="white" fill-opacity="0.9"/>
<path d="M75.9749 60.2412C75.9749 55.6109 72.4905 53.1877 69.0471 53.1877C67.5894 53.1877 63.4869 53.1877 62.5926 58.9448C62.1167 61.3735 63.0739 62.2268 63.0739 62.2268C63.0739 62.2268 63.662 59.8337 65.7952 59.7817C67.0807 59.7817 67.5593 60.3807 67.5593 61.9889C67.5593 62.6808 66.6513 64.7047 63.8835 64.7649C60.4812 64.7649 58.7581 62.9242 58.7581 59.2949C58.7581 55.6656 59.874 53.762 62.7157 52.3945C61.9006 52.6926 60.9024 52.9689 59.3981 53.1138C58.0087 54.6263 57.3906 56.6228 57.3906 59.2949C57.3906 63.6408 59.7564 66.1324 63.8999 66.1324C67.4526 66.0558 68.9295 63.3947 68.9295 61.9889C68.9295 59.0351 67.2284 58.4142 65.798 58.4142C65.0541 58.4142 64.4551 58.6084 63.982 58.9065C64.745 54.5524 67.5785 54.5524 69.0499 54.5524C71.8122 54.5524 74.6101 56.5052 74.6101 60.2385C74.6101 64.7184 70.4803 68.0523 66.0633 68.9822C66.799 68.9494 67.3487 68.9248 67.6906 68.9248C68.0325 68.9248 68.4564 68.9385 68.8885 68.9522C69.2413 68.9631 69.6188 68.974 70.0153 68.9822C73.3903 67.2045 75.9776 64.0893 75.9776 60.2385L75.9749 60.2412Z" fill="white" fill-opacity="0.9"/>
<path d="M79.5764 43.7294C79.292 43.6309 78.9802 43.7814 78.8817 44.0658C78.7833 44.3502 78.9337 44.662 79.2181 44.7605C79.5135 44.8644 85.2023 46.9321 86.9226 53.4851C86.9226 52.4048 86.9199 51.3928 86.9062 50.452C84.3572 45.4497 79.6448 43.7513 79.5764 43.7267V43.7294Z" fill="white" fill-opacity="0.9"/>
<path d="M77.7021 47.483C77.4341 47.3463 77.1032 47.4502 76.9664 47.7182C76.8297 47.9862 76.9336 48.3172 77.2016 48.4539C77.3083 48.5086 87.105 53.686 85.2616 63.7152C85.8223 62.5829 86.2407 61.2537 86.517 59.7358C86.1724 56.5112 84.7338 53.9759 83.2897 52.1817C80.7981 49.0912 77.8307 47.5432 77.7049 47.4803L77.7021 47.483Z" fill="white" fill-opacity="0.9"/>
<path d="M32.2624 5.65831C32.834 5.63643 33.3017 5.22891 33.4193 4.69285C33.6408 4.46585 35.0794 3.3445 41.6789 3.42655C46.4706 3.48672 51.0107 3.77117 54.3228 4.03647C54.8999 2.61154 55.8599 2.10829 57.3805 2.10829C57.8017 2.10829 58.2612 2.14111 58.748 2.17666C59.3223 2.21769 59.976 2.26692 60.6816 2.26692C61.5732 2.26692 62.309 2.16847 62.9571 2.08095C63.4412 2.01531 63.857 1.96061 64.2399 1.96061C65.4487 1.96061 66.0942 2.51034 66.436 3.90791C70.0134 3.59886 74.2089 3.28981 76.7305 3.28981C81.7875 3.28981 86.7242 3.9927 86.7242 12.3836C86.7242 18.603 86.117 20.4108 85.9174 20.8375C86.6284 20.5366 87.4736 20.4245 88.4199 21.1493C88.8411 19.7654 89.1857 17.2355 89.1857 12.3864C89.1857 0.831055 80.4583 0.831055 76.7305 0.831055C71.7994 0.831055 61.1192 1.92778 59.7244 2.07273C58.5812 1.94419 50.5622 1.07447 41.7063 0.965066C36.4059 0.902162 33.02 1.57498 31.6552 2.97529C31.0234 3.62348 30.9769 4.23885 30.9851 4.47406C31.0098 5.15234 31.5896 5.68293 32.2596 5.65831H32.2624Z" fill="white" fill-opacity="0.9"/>
<path d="M76.7345 5.31934C76.4336 5.31934 76.1875 5.56275 76.1875 5.86633C76.1875 6.16718 76.4309 6.41333 76.7345 6.41333C76.8029 6.41333 83.0687 6.48444 86.7062 11.4402C86.6707 10.7264 86.5968 10.0727 86.4874 9.47652C82.5327 5.38224 77.0107 5.31934 76.7372 5.31934H76.7345Z" fill="white" fill-opacity="0.9"/>
<path d="M79.0073 10.2482C78.7174 10.1606 78.4138 10.3248 78.3263 10.6119C78.2388 10.9018 78.4029 11.2054 78.69 11.2929C78.7447 11.3093 84.0096 12.9886 86.028 20.5591C86.1511 20.1953 86.3152 19.5225 86.4574 18.3246C83.9877 11.8345 79.2316 10.3138 79.0073 10.2454V10.2482Z" fill="white" fill-opacity="0.9"/>
<path d="M64.2399 1.95703C63.857 1.95703 63.4413 2.01447 62.9572 2.07737C62.309 2.16489 61.5733 2.26335 60.6817 2.26335C59.9733 2.26335 59.3224 2.21685 58.748 2.17309C58.2612 2.13753 57.8017 2.10471 57.3805 2.10471C54.383 2.10471 53.5625 4.05477 53.5625 11.1739C53.5625 19.5375 53.8524 21.1758 57.1864 21.1758C58.8082 21.1758 59.7135 19.8028 60.2195 18.315C60.7583 19.625 61.6881 20.7901 63.3018 20.7901C66.488 20.7901 66.8135 18.8593 66.8135 10.5969C66.8135 4.06845 66.6139 1.95703 64.2372 1.95703H64.2399ZM63.3045 19.4254C61.3599 19.4254 60.9497 15.9191 60.8731 14.9291V6.06772C60.8731 5.6903 60.5668 5.38398 60.1894 5.38398C59.812 5.38398 59.5056 5.6903 59.5056 6.06772V14.5489C59.4974 14.5872 59.492 14.6228 59.4892 14.6638C59.4373 15.9985 58.9039 19.811 57.1864 19.811C55.4688 19.811 54.93 19.811 54.93 11.1767C54.93 3.47495 55.9584 3.47495 57.3805 3.47495C57.7525 3.47495 58.1655 3.50503 58.6468 3.54058C59.2458 3.58434 59.9241 3.63358 60.6817 3.63358C61.6635 3.63358 62.4813 3.52419 63.1377 3.43667C63.5726 3.37923 63.9473 3.32726 64.2372 3.32726C64.631 3.32726 64.8881 3.32726 65.1096 4.23254C65.3886 5.38397 65.446 7.61026 65.446 10.5996C65.446 19.4254 64.8635 19.4254 63.3018 19.4254H63.3045Z" fill="white" fill-opacity="0.9"/>
<path d="M47.8568 12.5754C47.4302 12.1405 47.2414 11.5607 47.2852 10.8113C47.2989 10.5487 47.4083 10.3518 47.6325 10.174C48.6691 9.35354 51.6092 9.44107 53.5757 9.7173C53.5866 9.23047 53.6003 8.77374 53.6222 8.34435C51.9976 8.12828 48.3983 7.82743 46.7847 9.10467C46.2568 9.52312 45.9587 10.0865 45.9204 10.7375C45.8548 11.878 46.1775 12.8215 46.8804 13.5381C47.9662 14.6485 49.8998 15.1763 52.922 15.1763C53.1435 15.1763 53.376 15.1736 53.6112 15.1654C53.5975 14.7387 53.5866 14.282 53.5784 13.7979C50.6438 13.869 48.7183 13.4615 47.8568 12.5808V12.5754Z" fill="white" fill-opacity="0.9"/>
<path d="M73.1268 9.61835C71.557 8.23718 68.0507 8.43683 66.8036 8.55717C66.809 8.9893 66.8117 9.44605 66.8145 9.93014C68.1574 9.79066 71.1467 9.69767 72.227 10.6467C72.4622 10.8546 72.5716 11.0925 72.5716 11.4016C72.5716 12.4162 72.3227 13.1301 71.8058 13.5868C70.9853 14.3143 69.3361 14.5249 66.7762 14.235C66.7625 14.7246 66.7434 15.1813 66.7188 15.6025C67.4791 15.6873 68.171 15.731 68.7919 15.731C70.6106 15.731 71.8605 15.3673 72.7139 14.6097C73.5261 13.8904 73.9391 12.8101 73.9391 11.4016C73.9391 10.7014 73.6574 10.086 73.1296 9.62109L73.1268 9.61835Z" fill="white" fill-opacity="0.9"/>
</svg>
