<svg width="61" height="63" viewBox="0 0 61 63" fill="none" xmlns="http://www.w3.org/2000/svg">
<path d="M27.5005 1.08798C37.3091 0.0558398 47.7694 4.65309 54.0116 12.1559C68.0254 28.9999 59.9084 54.736 39.054 60.8081C22.0191 65.7675 5.03227 55.4643 0.847883 38.445C-3.51178 20.7168 9.47762 2.98608 27.5005 1.08798ZM29.087 13.6463H31.2941L31.1578 10.7187C31.6161 8.75049 30.8942 6.07472 31.5226 4.20258C31.9835 2.83159 33.5635 3.07047 34.2581 4.12468C35.1903 5.53982 33.9907 6.88225 32.4626 6.57066C32.978 5.91373 33.483 5.3308 33.4973 4.43368C32.9546 4.13247 32.6703 4.6453 32.3587 5.03738L32.3262 13.5581C32.3873 13.8203 34.188 13.8515 34.5398 13.9034L34.7268 16.5078L36.6106 16.7661C36.3639 18.3903 37.0326 20.8791 38.8203 18.8979C41.831 15.5613 44.2588 11.1445 47.2644 7.73783L47.3916 7.41455C40.7807 2.91338 32.8209 1.19184 24.9091 2.65112C20.3534 3.49242 15.7367 5.47361 12.3417 8.64663L22.0074 20.1495C22.1295 20.3222 22.5644 20.1988 22.602 20.0495L22.5956 16.2416L25.7205 16.056L25.9828 13.9164L28.0562 13.5659L28.0484 6.63428C27.002 6.768 25.7712 6.33437 25.7517 5.11917C25.7413 4.46484 26.5527 3.37038 27.211 3.26651C28.9338 2.99387 29.0156 4.7933 29.0909 6.04615C29.2389 8.52459 28.9689 11.1523 29.0857 13.6463H29.087ZM28.0471 6.50575C27.9692 6.00721 28.2522 4.99843 27.8419 4.69983C26.271 3.55733 26.9422 6.14872 28.0471 6.50575ZM32.4626 17.5412H29.087C28.704 19.4951 27.124 19.8807 25.84 20.9804C23.5355 22.9538 22.6942 25.7114 21.9178 28.5481L19.7964 28.8286L19.8614 32.2846L22.1853 32.4923C22.8864 34.1671 23.8899 35.8614 25.5764 36.6962C30.2321 38.9994 36.4782 36.051 35.2617 30.3865C34.9488 28.9272 34.0231 27.7055 32.4028 27.7951C29.0377 27.9834 31.7913 32.3846 29.3233 33.0311C27.5187 33.5037 26.2451 32.3768 25.875 30.6851C25.1636 27.4316 27.6355 23.8782 30.9864 23.5289C34.7787 23.133 38.0452 25.4959 39.2098 29.0363L41.5519 29.2258V32.8611L39.35 32.9974C38.9891 35.4291 38.0296 38.31 36.0303 39.8692C34.7216 40.8897 32.3548 41.0753 32.7222 43.2474H28.6975C28.6767 42.7826 28.8248 41.7232 28.3522 41.4505L22.4696 39.8056L10.9122 53.5597L12.291 54.662L12.5377 54.5503L22.9448 41.1896C24.961 41.1052 24.16 42.8826 24.5729 44.125L26.4736 44.4301L26.6306 46.9994L28.8299 47.3578L28.7988 55.8798C28.7741 56.1784 27.7186 56.5601 27.6563 56.4887C27.4823 55.5889 28.025 55.1047 28.434 54.414C27.2941 53.6882 26.4372 56.042 26.6709 56.7561C26.7696 57.056 27.6602 57.6558 27.9588 57.6285C28.4521 57.5844 29.8621 56.3368 29.8621 55.9057V47.2721H32.0692L31.9329 52.0173C32.482 53.8999 31.0046 57.5818 34.0854 57.4052C34.8605 57.3611 35.4512 57.008 35.4564 56.1667C35.4616 55.1982 34.2114 53.5675 33.2415 54.6074C33.6505 54.9112 34.8177 56.3692 33.8985 56.5614C33.6804 56.5951 33.4272 56.403 33.3065 56.2277C33.0974 55.9226 32.9988 54.3439 32.9741 53.8349C32.8741 51.7083 33.0442 49.4922 32.9975 47.3565L33.1922 47.1617L35.1565 46.9839L35.4603 44.8209L38.5061 44.5548C38.6983 44.2782 38.4905 41.7115 38.5567 41.1C38.5775 40.9131 38.5736 40.7612 38.7593 40.6534L49.9908 53.7051L53.7506 49.805L42.0894 38.8786C41.9427 38.5735 41.7181 38.1866 41.683 37.8517C41.6532 37.5661 41.7233 37.7154 41.8635 37.6543C42.6503 37.3103 43.2643 37.2116 44.1329 37.2623L44.4821 34.7942L46.7438 34.5501V32.343C49.0184 32.4586 51.4371 32.1898 53.6948 32.3378C54.5205 32.3911 56.1512 32.4261 55.7007 33.6426L53.626 32.7338C53.3988 33.7945 53.9869 34.0983 54.8879 34.3917C55.6851 34.6514 56.294 34.6384 56.7237 33.8205C57.2456 32.826 55.6384 31.3044 54.8581 31.3044H46.7438V29.2271C48.9496 29.1415 51.2384 29.3414 53.4352 29.2323C53.9636 29.2064 55.4631 29.1103 55.8617 28.9324C57.5715 28.1716 56.5705 24.2261 54.1544 26.3164C53.3884 26.9785 53.6156 27.3187 53.8844 28.1885H46.7438L46.6152 26.2411L44.7963 26.1125C44.8145 25.6932 44.7794 23.3524 44.5432 23.1849C43.3734 22.7746 42.1751 23.2407 41.0001 22.9629C40.7651 22.9071 39.8018 22.5968 39.8693 22.2904L52.4575 11.9573L49.1651 8.85306L48.8833 9.10103C45.6454 12.5597 42.7905 16.7415 39.5408 20.1417C39.1656 20.5351 38.6684 21.1622 38.1088 21.1868L32.8585 19.4198C32.3808 19.0901 32.695 18.1047 32.4626 17.5438V17.5412ZM14.2865 32.7312H6.302C6.00469 32.7312 4.89466 33.3453 5.3919 33.7712C5.94238 34.2424 6.9109 33.3155 7.34064 32.9896C7.4406 32.9143 7.56005 32.7273 7.66391 32.9234C7.46267 33.4336 7.53148 33.9192 7.20432 34.4112C5.85799 36.4378 2.78363 33.3323 4.89336 32.1003C5.15821 31.9458 6.16309 31.6913 6.43183 31.6913H14.2865V29.4842H5.91252C5.28155 29.4842 4.2507 28.9428 4.16242 28.2391C3.8768 25.9645 8.14558 25.3089 7.47176 28.3144C7.19653 28.0924 5.6944 27.1356 5.45292 27.3303L5.26207 27.9327C5.30751 28.0275 5.82293 28.382 5.94497 28.4144C6.32537 28.5118 7.84437 28.5585 8.37537 28.5806C10.3358 28.6624 12.3209 28.5144 14.2813 28.5689L14.5656 26.2566L16.7558 26.1099L16.8844 23.6419C17.8165 23.6601 18.7279 23.7691 19.4511 23.0629L18.7046 21.7568L8.09624 12.7544C7.74181 12.7012 5.88136 15.451 5.58664 15.9158C1.08807 22.9681 -0.0492361 31.8588 2.25004 39.8991C3.28348 43.5122 5.1621 47.128 7.73142 49.8661L20.652 39.0305L21.2973 38.1178L16.4936 37.7946L16.3573 34.815L14.4306 34.5346L14.2865 32.7312Z" fill="white" fill-opacity="0.7"/>
<path d="M54.2749 28.1859C54.1191 27.4978 55.3888 26.4124 55.7731 27.1486C56.0678 27.712 54.7838 28.4546 54.2749 28.1859Z" fill="white" fill-opacity="0.7"/>
</svg>
