<svg width="10" height="9" viewBox="0 0 26 67" fill="none" xmlns="http://www.w3.org/2000/svg">
<path d="M12.6159 24.5789C13.0616 24.4658 13.2878 24.5323 13.7002 24.6587C14.0394 24.7651 19.1347 27.7651 19.3409 28.0179C19.7001 28.4502 19.74 28.7961 19.7068 29.3349C18.2367 39.5455 17.3986 50.4545 14.8576 60.4455C14.5915 61.4832 13.3743 66.2326 12.4962 66.4188C11.9574 66.5319 11.392 65.5275 11.1525 65.1483C8.17918 60.4588 7.07498 45.5787 6.71578 39.6519C6.52953 36.6253 6.01734 31.8227 6.36324 28.9957C6.41645 28.5567 6.38319 28.3771 6.70913 28.0112C6.93529 27.7585 12.29 24.6654 12.6226 24.5855L12.6159 24.5789ZM12.6891 58.7759L14.6381 26.7274C14.3654 25.9026 12.5893 25.7895 12.3565 27.0135C11.9175 29.3017 12.4496 33.7185 12.3698 36.3393C12.1902 42.5055 11.7978 48.7449 12.0106 54.9644L12.6891 58.7759Z" fill="white" fill-opacity="0.8"/>
<path d="M17.6856 17.8671H8.87193L8.37305 17.3682V4.39713C8.37305 2.49471 11.3863 0.55903 13.2023 0.572334C15.0182 0.585637 17.6856 2.65435 17.6856 4.39713V17.8671Z" fill="white" fill-opacity="0.8"/>
<path d="M9.70304 22.1975C9.82277 22.8028 9.40371 23.0223 9.0179 23.335C8.55893 23.7075 4.84056 25.9026 4.39489 26.0289C3.57007 26.2751 0.383843 26.5012 0.104467 25.6365C0.210896 24.5522 -0.440982 20.2485 0.603353 19.9093C4.40819 19.1643 6.53678 20.6676 9.70304 22.1975Z" fill="white" fill-opacity="0.8"/>
<path d="M26.0004 26.1818C24.7232 26.0555 23.1467 26.408 21.9228 26.102C21.5104 25.9956 16.4949 22.9823 16.3552 22.6896C16.0892 22.1242 16.7477 22.1841 16.9805 22.0045C17.3397 21.7251 20.3064 19.8693 20.5126 19.8693H25.5015L26.0004 20.3681V26.1885V26.1818Z" fill="white" fill-opacity="0.8"/>
</svg>
