<svg width="98" height="78" viewBox="0 0 98 78" fill="none" xmlns="http://www.w3.org/2000/svg">
<path d="M55.22 17.3247C56.8514 17.3247 58.1739 16.0022 58.1739 14.3708C58.1739 12.7394 56.8514 11.4169 55.22 11.4169C53.5886 11.4169 52.2661 12.7394 52.2661 14.3708C52.2661 16.0022 53.5886 17.3247 55.22 17.3247Z" fill="white" fill-opacity="0.99"/>
<path d="M42.4615 17.3247C44.0929 17.3247 45.4154 16.0022 45.4154 14.3708C45.4154 12.7394 44.0929 11.4169 42.4615 11.4169C40.8301 11.4169 39.5076 12.7394 39.5076 14.3708C39.5076 16.0022 40.8301 17.3247 42.4615 17.3247Z" fill="white" fill-opacity="0.99"/>
<path d="M49.1108 0C34.3956 0 22.4531 11.9244 22.4531 26.6577C22.4531 41.391 34.3775 53.3153 49.1108 53.3153C63.8441 53.3153 75.7684 41.391 75.7684 26.6577C75.7684 11.9244 63.8441 0 49.1108 0ZM55.9066 48.2774C52.2459 48.3861 42.8043 48.5673 38.6906 43.0401C36.3891 39.9231 36.5521 35.1932 35.646 28.6511C35.3198 26.2227 35.5011 24.0299 35.4105 22.3446C35.3923 21.8915 35.9179 21.6378 36.2441 21.9459C37.0958 22.7433 38.4912 23.7219 40.4122 24.1568C41.9888 24.5192 43.4023 24.3743 44.544 24.0843C44.834 24.0118 45.1602 24.1568 45.3051 24.4105L45.9757 25.5885C46.32 26.1684 46.465 26.8389 46.4106 27.5094C46.3381 28.4155 46.32 29.4122 46.4106 30.4633C46.8093 35.1932 48.9477 38.4733 50.5243 40.9017C51.6298 42.6051 53.4239 44.9973 56.1784 47.3713C56.5227 47.6612 56.3234 48.2411 55.8703 48.2592L55.9066 48.2774ZM48.9477 20.9854C50.3612 20.9854 51.2492 22.5258 50.5424 23.7581L49.8176 25.0267C49.437 25.6972 48.4584 25.6972 48.0778 25.0267L47.3529 23.7581C46.6462 22.5258 47.5342 20.9854 48.9477 20.9854ZM62.3762 33.6528C62.2312 38.4733 61.9231 43.0582 61.5063 47.3713C61.5063 47.5344 61.1077 47.6612 60.7271 47.7337C60.3646 47.8062 59.676 47.8243 58.3168 46.6283V39.9049C58.3168 39.5425 58.0269 39.2525 57.6644 39.2525C57.302 39.2525 57.012 39.5425 57.012 39.9049V45.3416C56.5046 44.7798 55.9247 44.0912 55.2905 43.2394V36.4436C55.2905 36.0812 55.0005 35.7912 54.6381 35.7912C54.2756 35.7912 53.9857 36.0812 53.9857 36.4436V41.4634C53.3695 40.5936 52.7896 39.76 52.264 38.9445V32.946C52.264 32.5836 51.9741 32.2936 51.6116 32.2936C51.2492 32.2936 50.9593 32.5836 50.9593 32.946V36.7154C50.1075 35.0301 49.4914 33.2722 49.2195 31.1701C49.147 30.6445 49.1108 30.1734 49.0927 29.7747C49.0745 29.3035 49.1833 28.8323 49.4189 28.4336C49.8719 27.6725 50.3612 26.8932 50.8505 26.0959C51.1405 25.6247 51.4304 25.1716 51.7385 24.7367C51.956 24.4105 52.3728 24.2837 52.7533 24.4105C53.3514 24.6099 54.1306 24.8092 55.0549 24.8454C55.4173 24.8454 55.8522 24.8454 56.3415 24.7911C58.8786 24.483 60.5821 23.0876 61.5244 22.0546C61.8325 21.7284 62.3762 21.9278 62.3943 22.3808C62.4849 25.969 62.4668 29.7384 62.3581 33.6528H62.3762ZM55.381 22.1634C52.699 22.1634 50.3431 20.8223 48.9477 18.7564C47.5523 20.8042 45.1783 22.1634 42.5143 22.1634C38.2194 22.1634 34.7218 18.6839 34.7218 14.3709C34.7218 10.0578 38.2013 6.57833 42.5143 6.57833C45.1964 6.57833 47.5523 7.91937 48.9477 9.98529C50.3431 7.93749 52.7171 6.57833 55.381 6.57833C59.676 6.57833 63.1736 10.0578 63.1736 14.3709C63.1736 18.6839 59.6941 22.1634 55.381 22.1634Z" fill="white" fill-opacity="0.99"/>
<path d="M5.491 62.2494V62.2131H10.384L11.2539 64.714C12.3231 66.9249 13.3923 69.1358 14.4615 71.3648C15.4219 73.1227 16.3643 74.8986 17.3248 76.6565C17.4335 77.0008 17.5422 77.3451 17.6691 77.6713V77.7076H10.9458V77.6713C11.1633 77.1639 11.3807 76.6565 11.5982 76.1491L10.9458 73.5032C10.3478 73.4489 9.7316 73.3764 9.13357 73.322L7.53882 73.4851C7.01327 73.5032 6.4696 73.5213 5.94406 73.5395C5.76284 74.3912 5.5635 75.2611 5.38228 76.1128C5.59974 76.6384 5.81722 77.1458 6.01656 77.6713V77.7076L0 77.6713C0.598031 76.294 1.21418 74.9168 1.81221 73.5576L4.11373 67.9579C4.58491 66.055 5.03795 64.1522 5.491 62.2494ZM8.00998 71.1111L10.0034 71.0024C9.78596 70.2594 9.56849 69.5345 9.35103 68.7915C9.06108 68.2297 8.75299 67.686 8.46303 67.1242C8.11871 67.976 7.75628 68.8096 7.39384 69.6613C7.23074 70.0963 7.06763 70.5312 6.90453 70.9661C7.28509 71.0024 7.64756 71.0567 8.02812 71.093L8.00998 71.1111Z" fill="white" fill-opacity="0.99"/>
<path d="M17.6125 77.6713L18.2831 76.8015L18.8449 69.9875C18.8811 68.574 18.9174 67.1424 18.9536 65.7288C18.7361 64.859 18.5005 63.9891 18.2831 63.1011C18.0656 62.8112 17.8481 62.5393 17.6125 62.2494V62.2131H24.3902V62.2494L23.7378 63.1011C23.5566 64.4965 23.3754 65.9101 23.1942 67.3055C23.5747 67.3598 23.9372 67.4323 24.3177 67.4867L25.8219 67.3236H28.1234C27.9422 65.9101 27.7609 64.5146 27.5797 63.1011C27.3623 62.8112 27.1448 62.5393 26.9273 62.2494V62.2131H33.705V62.2494C33.4875 62.5393 33.2701 62.8112 33.0345 63.1011C32.817 63.8804 32.5995 64.6415 32.364 65.4026C32.4002 66.9249 32.4183 68.4472 32.4546 69.9694C32.6177 71.1292 32.7808 72.289 32.9439 73.4307C32.9801 74.5543 32.9982 75.6598 33.0164 76.7833L33.6869 77.6532V77.6894H26.9092V77.6532C27.1267 77.3632 27.3623 77.0733 27.5797 76.7833L28.214 73.6663C28.1778 72.5971 28.1596 71.546 28.1415 70.4768C27.3804 70.4768 26.6011 70.4587 25.8219 70.4587C24.8252 70.4587 23.9553 70.4587 23.1761 70.4768C23.1761 71.1655 23.1761 71.8541 23.1761 72.5428C23.3573 73.8294 23.5566 75.098 23.7559 76.3846C23.9734 76.8015 24.1909 77.2183 24.4265 77.6532V77.6894C22.1612 77.6894 19.9141 77.6532 17.6488 77.6532L17.6125 77.6713Z" fill="white" fill-opacity="0.99"/>
<path d="M38.0908 77.6713C38.3264 77.4176 38.562 77.1458 38.7795 76.8921C38.9607 74.5906 39.1419 72.289 39.3231 69.9875C39.1419 67.6679 38.9426 65.3483 38.7613 63.0286C38.5439 62.7749 38.3083 62.5031 38.0908 62.2494V62.2131C39.0694 62.2494 39.7399 62.2494 41.389 62.2494C42.2589 62.2494 42.8932 62.2131 44.4517 62.2131C45.1766 62.2131 45.7746 62.2131 46.1733 62.2131C47.4056 62.6299 48.6379 63.0468 49.8521 63.4817C50.1964 64.5509 50.5588 65.6201 50.9032 66.6893L50.4682 68.3022C49.9427 69.0633 49.4172 69.8244 48.9097 70.5856L47.3512 71.6185C46.137 71.8722 44.941 72.1259 43.7268 72.3978C43.8899 73.9019 44.0349 75.4242 44.198 76.9283C44.4336 77.182 44.651 77.4357 44.8866 77.6894V77.7257C42.6214 77.7257 40.3742 77.6894 38.1089 77.6894L38.0908 77.6713ZM46.2639 68.4834C46.4451 67.9579 46.6445 67.4504 46.8438 66.9249C46.6807 66.4356 46.5357 65.9463 46.3726 65.457C45.9014 65.312 45.4303 65.167 44.9772 65.0039C44.5785 65.0039 44.1617 65.0402 43.7449 65.0402C43.7087 65.5476 43.6906 66.0731 43.6724 66.6168C43.6362 67.4323 43.6362 68.2116 43.6724 68.9365C44.5423 68.7734 45.4122 68.6284 46.3001 68.4653L46.2639 68.4834Z" fill="white" fill-opacity="0.99"/>
<path d="M57.9174 62.195V62.2313C57.6818 62.5393 57.4462 62.8474 57.2106 63.1555C57.0294 65.0946 56.8663 67.0155 56.6851 68.9546V72.4703C56.8844 73.1589 57.0838 73.8294 57.2831 74.5C57.7543 74.6268 58.2436 74.7718 58.7148 74.8986C59.6752 74.5 60.6357 74.1013 61.578 73.7207C61.6143 72.5246 61.6324 71.2742 61.5962 69.9513C61.5418 67.4686 61.3243 65.1671 61.0344 63.083C60.8169 62.7931 60.5994 62.5212 60.3639 62.2313V62.195H67.1415V62.2313C66.9241 62.5212 66.7066 62.7931 66.471 63.083C66.2898 65.3664 66.0905 67.6679 65.9093 69.9513L66.4348 76.6202C66.6704 76.9646 66.9241 77.2908 67.1597 77.617V77.6532H61.9224C61.7955 77.3995 61.6687 77.1458 61.5599 76.9102V75.5148C59.8564 76.294 58.153 77.0733 56.4495 77.8707C55.4165 77.5626 54.3654 77.2545 53.3325 76.9464C52.9882 75.8047 52.6257 74.6812 52.2814 73.5395C52.2995 73.0139 52.3176 72.4703 52.3358 71.9266C52.3358 70.9843 52.372 70.0238 52.372 69.0814C52.1908 67.088 52.0096 65.1127 51.8283 63.1193C51.5928 62.8112 51.3572 62.5031 51.1216 62.195V62.1588H57.9174V62.195Z" fill="white" fill-opacity="0.99"/>
<path d="M76.8041 61.9052C77.4927 61.9596 78.1813 61.9958 78.8881 62.0502C79.3955 62.1227 79.903 62.1952 80.4104 62.2677C80.5191 64.0074 80.6278 65.729 80.7185 67.4687H80.6822C80.0479 66.8707 79.3955 66.2726 78.7613 65.6746C78.0001 65.4753 77.239 65.2759 76.4779 65.0766L73.3246 67.1063L71.9655 69.2266C72.6179 70.5495 73.2521 71.8724 73.9045 73.2134C75.0643 73.6484 76.206 74.0652 77.3658 74.5001C77.7102 74.4639 78.0545 74.4095 78.3988 74.3732C79.2506 73.8115 80.1023 73.2497 80.954 72.706H80.9722L80.5735 77.2365C79.1056 77.4902 77.6377 77.7258 76.1698 77.9614C74.9556 77.6533 73.7414 77.3453 72.5091 77.0191C71.4762 76.0586 70.4432 75.08 69.4283 74.1195C68.8847 72.7423 68.341 71.365 67.7974 69.9696C68.1779 68.556 68.5766 67.1425 68.9572 65.729C70.0808 64.8229 71.2043 63.8986 72.3098 62.9925L76.8222 61.9052H76.8041Z" fill="white" fill-opacity="0.99"/>
<path d="M81.9106 77.6715L82.5812 76.8016C82.7624 74.5182 82.9617 72.253 83.143 69.9877C82.9617 67.7043 82.7624 65.4028 82.5812 63.1194C82.3637 62.8294 82.1462 62.5576 81.9106 62.2677V62.2314H88.6883V62.2677C88.4709 62.5576 88.2534 62.8476 88.0359 63.1194C87.8547 64.5148 87.6735 65.9283 87.4923 67.3237C88.3621 67.3237 89.232 67.3237 90.12 67.3419H92.4215L91.8778 63.1194C91.6604 62.8294 91.4429 62.5576 91.2254 62.2677V62.2314H98.0031V62.2677L97.3326 63.1194C97.1514 65.4028 96.952 67.7043 96.7708 69.9877C96.952 72.2711 97.1514 74.5363 97.3326 76.8016C97.5501 77.0916 97.7856 77.3815 98.0031 77.6715V77.7077H91.2254V77.6715C91.4429 77.3815 91.6785 77.0916 91.896 76.8016C92.0772 74.6994 92.2765 72.5973 92.4577 70.4951C91.6785 70.4951 90.8992 70.4951 90.1381 70.477C89.2501 70.477 88.3802 70.477 87.4923 70.4951C87.6735 72.5973 87.8728 74.6994 88.054 76.8016C88.2715 77.0734 88.489 77.3634 88.7064 77.6533V77.6896H81.9288V77.6533H81.9469L81.9106 77.6715Z" fill="white" fill-opacity="0.99"/>
</svg>
