<svg width="256" height="39" viewBox="0 0 256 39" fill="none" xmlns="http://www.w3.org/2000/svg">
<g clip-path="url(#clip0_292_8055)">
<path d="M30.1702 39C26.5401 36.1995 23.1145 33.1457 20.1362 29.6476C20.0158 29.5068 19.9436 29.336 19.9376 29.149C19.703 28.9741 16.3937 32.1626 16.0287 32.5627C14.691 34.0262 11.7447 38.61 9.50445 38.3104C9.2016 38.2702 6.43186 36.9052 6.33759 36.7544C6.18918 36.5192 6.25135 35.1702 6.49403 34.8646L12.6192 29.143L12.7295 23.0494L0.118197 17.961C-0.64594 13.8879 2.44872 14.4147 5.39897 14.477L15.5413 15.3937C15.9485 15.1183 16.9533 10.4863 17.0796 9.69422C17.3704 7.8567 17.2481 3.31116 18.634 2.20543C19.8915 1.20223 20.8682 1.76716 21.7467 2.9151C23.4795 5.17883 22.4787 6.93593 22.3403 9.33837C22.232 11.2081 22.3123 13.2245 22.7956 15.0299C24.4001 15.3716 26.2192 15.6209 27.8598 15.4762C30.8842 15.2068 33.8365 13.5683 36.8971 14.4649C37.3824 14.6077 39.4342 15.44 39.5625 15.8119C40.0378 17.191 38.7482 17.5228 37.7254 18.1279C34.2456 20.1805 30.3528 21.437 26.7527 23.2545L26.869 27.9367L32.7775 34.6796C34.3339 36.9313 31.6885 37.7314 30.3708 39.002H30.1702V39Z" fill="white"/>
<path d="M47.0176 4.4209L49.5948 4.45307L52.9341 11.2523L56.1411 4.61993L58.8507 4.4209V17.4886H56.2434V10.0501L53.8046 14.6418C53.261 14.67 52.3385 14.8409 51.9293 14.477C51.2514 13.8719 50.387 10.7457 49.4243 10.0521V17.4906H47.0176V4.4209Z" fill="white"/>
<path d="M188.814 17.4886V4.4209H195.332C195.569 4.4209 196.782 5.0964 197.043 5.31955C198.68 6.72684 198.339 9.56555 196.64 10.7537C199.017 11.974 198.778 15.8622 196.439 16.99C196.271 17.0704 195.011 17.4886 194.931 17.4886H188.814ZM191.421 9.64797H194.53C195.001 9.64797 195.643 8.66689 195.643 8.14016C195.643 7.61343 194.999 6.63235 194.53 6.63235H191.421V9.64797ZM191.421 15.2771H194.329C194.967 15.2771 195.844 14.2679 195.846 13.5683C195.846 12.9973 195.011 11.8594 194.53 11.8594H191.421V15.2771Z" fill="white"/>
<path d="M232.737 12.2615V4.4209H235.144V17.4886L232.837 17.2875L227.723 9.44693V17.4886H225.116V4.4209L227.621 4.62395L232.737 12.2615Z" fill="white"/>
<path d="M112.601 17.4886V4.4209H118.718C119.783 4.4209 121.325 5.85231 121.726 6.83339C122.537 8.8237 122.541 14.0186 121.225 15.7777C120.673 16.5135 119.011 17.4886 118.118 17.4886H112.603H112.601ZM115.208 15.2771C117.567 15.3777 119.394 15.3153 119.626 12.5691C119.731 11.3287 119.795 8.42564 119.111 7.44456C118.971 7.24151 118.283 6.63235 118.116 6.63235H115.208V15.2771Z" fill="white"/>
<path d="M207.366 4.4209C210.782 4.99186 211.478 10.5949 208.052 11.777L210.876 17.4886H207.867L205.429 12.2937L203.455 12.2615V17.4886H201.048V4.4209C202.96 4.64607 205.543 4.11733 207.366 4.4209ZM203.455 10.0501H206.564C207.045 10.0501 207.879 8.91216 207.879 8.3412C207.879 7.77025 207.047 6.63235 206.564 6.63235H203.455V10.0501Z" fill="white"/>
<path d="M171.365 36.1854H168.357L165.97 31.083L164.271 30.9865L163.97 31.2881L164.143 36.1834H161.536V23.1177H167.452C167.54 23.1177 168.447 23.4595 168.633 23.5419C171.698 24.8929 171.612 29.3118 168.569 30.6769L171.363 36.1854H171.365ZM164.273 25.3573L164.033 25.5182L164.133 28.8615C165.739 29.151 168.654 29.1691 168.353 26.8551C168.116 25.0216 165.607 25.2729 164.273 25.3573Z" fill="white"/>
<path d="M83.2649 23.166C89.3018 22.1487 89.729 27.2954 89.3419 31.8711C89.2075 33.4553 88.0603 34.3761 89.733 35.4818L88.4334 36.7845L87.232 35.6386C83.4935 37.4218 80.0319 35.7069 79.7009 31.467C79.4703 28.5177 79.5345 23.7932 83.2649 23.164V23.166ZM86.7266 32.1646C87.0014 30.6407 87.3543 25.9946 85.5353 25.4217C84.0491 24.9532 82.5589 25.669 82.3343 27.2592C82.1819 28.3348 82.1819 32.2752 82.6732 33.1155C83.1947 34.0102 84.4261 34.2393 85.3247 33.974L84.3259 32.6692L85.6255 31.3665L86.7266 32.1666V32.1646Z" fill="white"/>
<path d="M151.708 16.8834L150.407 17.8886L149.209 16.8915C146.544 18.3128 142.649 17.3217 141.931 14.1252C140.972 9.849 141.676 3.32521 147.551 4.27011C151.859 4.9637 151.823 10.4079 151.293 13.7532C151.215 14.2418 150.691 15.257 150.748 15.5525C150.818 15.9104 151.963 16.5236 151.708 16.8834ZM148.902 12.9651C149.077 11.783 148.902 9.83292 148.902 8.54223C148.902 6.47352 145.479 5.5809 144.59 7.63755C144.161 8.6327 144.195 11.2221 144.279 12.3701C144.434 14.4689 145.014 15.4661 147.296 15.2751C147.398 14.5554 146.805 14.2759 146.295 13.9703C147.258 13.1179 147.533 11.9881 148.602 13.4657C148.658 13.4919 148.894 13.0174 148.902 12.9631V12.9651Z" fill="white"/>
<path d="M145.493 23.1177V28.5459H149.905V23.1177L152.512 23.1197V36.1834L149.905 36.1854V30.7573H145.493V36.1854H142.885V23.1177H145.493Z" fill="white"/>
<path d="M105.581 4.4209V6.63235H99.5643V9.64797H104.779V11.8594H99.5643V15.2771H105.28C105.322 15.2771 105.507 14.9756 105.579 15.0761V17.4886H96.957V4.4209H105.581Z" fill="white"/>
<path d="M94.3499 4.4209V6.63235H88.1326V9.64797H93.3471V12.0605C92.6632 11.775 88.4555 11.7086 88.2208 12.0484C88.1586 13.0295 87.8558 14.485 88.4334 15.2771H94.3499V17.4886H85.7258V4.4209H94.3499Z" fill="white"/>
<path d="M113.403 23.1177V25.3292H107.186V28.5459H112.4V30.7573H107.186V33.974H113.403V36.1854H104.779V23.1177H113.403Z" fill="white"/>
<path d="M64.4662 4.4209V13.7693C64.4662 14.6077 66.1269 15.3636 66.9732 15.2852C67.8758 15.2027 69.0791 14.284 69.0791 13.3672V4.4209H71.4859V13.9704C71.4859 14.0468 70.9945 15.2027 70.8902 15.3837C69.2336 18.2787 64.1473 18.2164 62.4887 15.3475C62.3664 15.1344 61.8569 13.707 61.8569 13.5683V4.4209H64.4642H64.4662Z" fill="white"/>
<path d="M124.835 4.4209H127.442C127.294 4.72447 127.238 4.97175 127.23 5.31352C127.176 7.51291 127.053 10.432 127.234 12.5691C127.386 14.3644 128.144 15.5546 130.136 15.2631C130.76 15.1726 131.855 14.3765 131.855 13.7673V4.4209H134.462V13.7693C134.462 13.8538 133.931 15.1786 133.832 15.3495C132.268 17.9972 127.617 18.3149 125.75 15.8702C125.591 15.6631 124.835 14.1111 124.835 13.9724V4.4209Z" fill="white"/>
<path d="M156.524 4.4209V13.3672C156.524 14.1875 157.581 15.1887 158.425 15.2832C159.269 15.3776 161.137 14.7223 161.137 13.7693V4.4209H163.744V13.3672C163.744 13.4557 163.455 14.4267 163.385 14.6157C162.145 17.9912 157.033 18.5481 154.955 15.7435C154.755 15.4721 154.117 14.4106 154.117 14.1714V4.4209H156.524Z" fill="white"/>
<path d="M94.5504 23.1177V32.4662C94.5504 33.3286 96.0346 34.1388 96.8569 34.1368C97.7734 34.1368 99.1633 33.212 99.1633 32.2651V23.1177H101.57V33.0693C101.57 33.5277 100.21 35.1501 99.753 35.4697C97.1236 37.3052 92.5147 36.105 92.1437 32.6692C91.8087 29.5671 92.5588 26.1917 91.9431 23.1218H94.5504V23.1177Z" fill="white"/>
<path d="M179.167 23.1378L183.798 36.1834L181.219 36.1573L180.467 33.9619L175.904 34.0021L174.983 36.095L172.368 36.1854L176.999 23.1399H179.165L179.167 23.1378ZM176.58 31.7625H179.789C179.275 30.3975 178.854 29.0022 178.407 27.611C178.325 27.3537 178.553 27.0481 178.086 27.1366L176.58 31.7625Z" fill="white"/>
<path d="M66.8731 36.1834L64.2578 36.0929L63.3372 34.0001L58.7744 33.9599L58.0223 36.1553L55.4431 36.1814L60.0841 23.1439C60.7339 23.1539 61.835 22.8684 62.2441 23.4354L66.8751 36.1814L66.8731 36.1834ZM62.8619 31.7625C62.5951 31.4408 61.3958 26.8752 61.0588 27.1386L59.4523 31.7625H62.8619Z" fill="white"/>
<path d="M171.738 4.44905L176.377 17.4886L173.79 17.4685L173.046 15.064L168.333 15.1967L167.561 17.3981L164.945 17.4886L169.576 4.44302L171.734 4.44905H171.738ZM169.159 13.0657H172.368C171.919 11.6805 171.538 10.2431 171.016 8.88403C170.92 8.63272 171.107 8.35127 170.665 8.44174L169.159 13.0677V13.0657Z" fill="white"/>
<path d="M218.677 4.44302L223.308 17.4886L220.729 17.4625L219.771 15.1063C218.523 15.1746 216.979 14.9173 215.775 15.0681C214.829 15.1867 214.718 16.6503 214.464 17.4725L211.876 17.4906L216.465 4.54354L218.673 4.44503L218.677 4.44302ZM219.099 13.0657C218.872 11.4091 218.176 9.80278 217.594 8.23868L215.89 13.0657H219.099Z" fill="white"/>
<path d="M82.0433 16.21C80.0678 18.2425 75.6274 17.7359 73.4934 16.0773L75.0257 14.292C76.5139 15.6129 81.3835 16.0733 80.4709 13.0054C79.9615 11.2965 75.6093 12.7199 74.3177 9.92742C73.7942 8.79355 73.8083 7.83458 74.2375 6.67457C75.3867 3.56245 80.6294 3.54436 82.7172 5.72767L81.1889 7.21537C80.0076 6.22625 76.4417 5.85633 76.3053 7.95319C76.1809 9.87314 79.5163 9.64998 80.7718 10.0943C83.3269 11.001 83.8464 14.3584 82.0493 16.2079L82.0433 16.21Z" fill="white"/>
<path d="M118.564 23.166C120.353 22.8664 122.729 23.0514 124.021 24.4486L122.529 26.0992C121.508 25.0276 118.421 24.6658 117.9 26.3264C117.156 28.6966 120.557 28.375 121.913 28.759C124.207 29.4083 124.799 31.1654 124.384 33.4251C123.736 36.9655 116.975 37.1866 115.02 34.6495L116.508 33.0029C117.902 34.4525 122.647 34.8405 121.981 31.9053C121.67 30.5362 118.548 30.7633 117.276 30.1884C114.125 28.763 115.132 23.739 118.562 23.164L118.564 23.166Z" fill="white"/>
<path d="M77.7013 27.1386L75.1161 27.1165C74.9556 24.9251 71.8028 24.6658 70.9284 26.4812C70.5613 27.2411 70.5634 31.085 70.6997 32.046C71.0828 34.7761 74.6227 34.7741 75.2164 32.1505L77.7013 32.1646C77.3864 37.3012 69.4843 37.7716 68.3271 33.017C67.8498 31.0528 67.8277 26.6078 68.9909 24.9392C71.3114 21.6039 77.4346 22.7961 77.7013 27.1366V27.1386Z" fill="white"/>
<path d="M194.63 27.1386L192.356 27.1084C191.544 25.7313 190.599 24.7824 188.866 25.484C187.282 26.1253 187.462 30.2004 187.633 31.6419C187.779 32.8723 188.405 34.0423 189.767 34.1268C191.706 34.2454 191.808 32.3797 192.356 32.1988L194.63 32.1686C194.522 37.3293 186.1 37.7917 185.25 32.824C184.951 31.077 184.923 27.8864 185.34 26.1736C186.439 21.6562 194.504 22.1266 194.63 27.1406V27.1386Z" fill="white"/>
<path d="M140.679 27.1365L138.104 27.1044C137.643 24.9412 134.488 24.4969 133.756 26.7325C133.327 28.0412 133.219 32.3757 134.151 33.3789C135.569 34.9028 137.661 33.9941 138.205 32.1566C138.904 32.2209 139.701 32.0842 140.381 32.1646C140.651 32.1968 140.746 32.0601 140.657 32.442C139.384 37.9345 131.676 37.46 131.073 32.243C130.932 31.0247 130.938 28.6685 131.044 27.4321C131.544 21.628 139.703 21.5979 140.677 27.1365H140.679Z" fill="white"/>
<path d="M249.785 12.161L245.773 4.4229L248.589 4.51337C249.231 5.83019 249.799 7.18521 250.416 8.51208C250.515 8.72116 250.737 9.54744 251.086 9.44893C251.351 9.37455 252.805 5.05417 253.292 4.61992C253.78 4.18567 255.292 4.53347 256.002 4.4229L252.191 11.9599V17.4886H249.785V12.161Z" fill="white"/>
<path d="M240.96 4.4209V14.9756L241.261 15.2771H246.977V17.4886H238.553V4.4209H240.96Z" fill="white"/>
<path d="M53.8366 23.1177V32.8682C53.8366 32.9768 53.4957 33.8513 53.4034 34.0423C52.2001 36.5513 47.6353 37.3012 46.0288 34.9048L47.517 33.4171C48.2871 34.551 51.2294 34.0946 51.2294 32.8682V23.1177H53.8366Z" fill="white"/>
<path d="M158.128 23.1177H155.721V36.1854H158.128V23.1177Z" fill="white"/>
<path d="M180.791 4.4209H178.385V17.4886H180.791V4.4209Z" fill="white"/>
<path d="M92.3422 0C92.1857 0.430228 90.6494 2.88494 90.497 2.9734C90.1881 3.15434 89.3458 2.93922 88.9326 3.01361L89.9615 0.0261354L92.3401 0L92.3422 0Z" fill="white"/>
</g>
<defs>
<clipPath id="clip0_292_8055">
<rect width="256" height="39" fill="white"/>
</clipPath>
</defs>
</svg>
